<svg width="16" height="17" viewBox="0 0 16 17" fill="none" xmlns="http://www.w3.org/2000/svg">
<g clip-path="url(#clip0_68_204)">
<path fill-rule="evenodd" clip-rule="evenodd" d="M13.6348 13.6345H11.262V9.92084C11.262 9.0357 11.2466 7.89648 10.029 7.89648C8.79377 7.89648 8.60529 8.8613 8.60529 9.8578V13.6345H6.235V5.99852H8.50961V7.0427H8.54257C8.85937 6.44205 9.63347 5.80908 10.7877 5.80908C13.191 5.80908 13.6348 7.38991 13.6348 9.44659V13.6345ZM3.55943 4.9553C3.37861 4.95547 3.19952 4.91999 3.03243 4.85089C2.86533 4.78179 2.71349 4.68042 2.5856 4.55259C2.45771 4.42476 2.35628 4.27297 2.2871 4.1059C2.21792 3.93884 2.18236 3.75977 2.18244 3.57895C2.18244 3.21401 2.32741 2.86401 2.58547 2.60595C2.84352 2.3479 3.19352 2.20292 3.55847 2.20292C3.92341 2.20292 4.27341 2.3479 4.53147 2.60595C4.78952 2.86401 4.93449 3.21401 4.93449 3.57895C4.93458 3.94379 4.78978 4.29372 4.53192 4.55182C4.27406 4.80991 3.92426 4.95504 3.55943 4.9553ZM2.37092 13.6345H4.74633V5.99852H2.37124L2.37092 13.6345ZM14.8163 0H1.18018C0.528967 0 -3.8147e-06 0.51649 -3.8147e-06 1.15394V14.8461C-3.8147e-06 15.4835 0.528967 16.0006 1.18018 16.0006H14.8163C15.4691 16.0006 16 15.4835 16 14.8461V1.15394C16.0003 0.51649 15.4688 0 14.8163 0Z" fill="#068FFF"/>
</g>
<defs>
<clipPath id="clip0_68_204">
<rect width="16" height="16" fill="white" transform="translate(0 0.5)"/>
</clipPath>
</defs>
</svg>
