<svg width="385" height="274" viewBox="0 0 385 274" fill="none" xmlns="http://www.w3.org/2000/svg">
<path d="M358.185 4.82074H291.868C290.247 4.82074 288.932 6.13519 288.932 7.75664V46.865C288.932 48.4865 290.247 49.8009 291.868 49.8009H358.185C359.807 49.8009 361.121 48.4865 361.121 46.865V7.75664C361.121 6.13519 359.807 4.82074 358.185 4.82074Z" fill="#F4F4F4"/>
<g opacity="0.04">
<path d="M358.185 4.82074H291.867C291.091 4.82064 290.346 5.12789 289.796 5.67531C289.245 6.22274 288.934 6.9658 288.93 7.74203L325.025 32.3745L361.119 7.74203C361.115 6.96625 360.805 6.22353 360.255 5.67616C359.705 5.12878 358.961 4.82124 358.185 4.82074Z" fill="#292A2E"/>
</g>
<path d="M381.025 182.329H297.31C295.263 182.329 293.604 183.988 293.604 186.035V235.403C293.604 237.45 295.263 239.109 297.31 239.109H381.025C383.072 239.109 384.731 237.45 384.731 235.403V186.035C384.731 183.988 383.072 182.329 381.025 182.329Z" fill="#F4F4F4"/>
<g opacity="0.04">
<path d="M381.026 182.328H297.31C296.33 182.328 295.39 182.716 294.696 183.407C294.001 184.098 293.608 185.036 293.603 186.015L339.166 217.11L384.729 186.015C384.724 185.036 384.332 184.099 383.638 183.408C382.944 182.717 382.005 182.329 381.026 182.328Z" fill="#292A2E"/>
</g>
<path d="M97.9061 75.6966H32.5171C30.9184 75.6966 29.6224 76.9926 29.6224 78.5913V117.152C29.6224 118.751 30.9184 120.047 32.5171 120.047H97.9061C99.5047 120.047 100.801 118.751 100.801 117.152V78.5913C100.801 76.9926 99.5047 75.6966 97.9061 75.6966Z" fill="#F4F4F4"/>
<g opacity="0.04">
<path d="M97.906 75.6966H32.5173C31.752 75.6965 31.0177 75.9995 30.4751 76.5392C29.9325 77.079 29.6257 77.8116 29.6217 78.577L65.2108 102.866L100.8 78.5779C100.796 77.8127 100.49 77.0799 99.9477 76.54C99.4054 76 98.6713 75.6968 97.906 75.6966Z" fill="#292A2E"/>
</g>
<path d="M97.4659 102.715C96.6246 102.322 95.7918 101.916 94.9915 101.509C94.8875 101.456 94.7667 101.447 94.6557 101.483C94.5447 101.519 94.4525 101.598 94.3996 101.702C94.3466 101.806 94.3371 101.926 94.3732 102.037C94.4093 102.148 94.488 102.241 94.592 102.294C95.4011 102.706 96.2427 103.116 97.093 103.513C97.1985 103.56 97.3181 103.564 97.4262 103.523C97.5343 103.483 97.6222 103.402 97.671 103.297C97.7198 103.192 97.7257 103.073 97.6872 102.964C97.6488 102.855 97.5692 102.766 97.4655 102.715H97.4659Z" fill="#292A2E"/>
<path d="M110.334 107.608L110.271 107.589C109.407 107.324 108.544 107.049 107.708 106.77C107.597 106.733 107.476 106.742 107.372 106.794C107.267 106.847 107.188 106.938 107.151 107.049C107.114 107.16 107.123 107.281 107.175 107.385C107.227 107.49 107.319 107.569 107.43 107.606C108.274 107.886 109.142 108.164 110.01 108.429L110.079 108.45L110.1 108.456C110.212 108.485 110.33 108.469 110.43 108.411C110.531 108.353 110.604 108.259 110.635 108.147C110.665 108.036 110.651 107.917 110.595 107.816C110.539 107.715 110.445 107.64 110.334 107.608Z" fill="#292A2E"/>
<path d="M91.3632 99.5412C90.5641 99.079 89.7716 98.5992 89.0093 98.1182C88.9604 98.0855 88.9055 98.0629 88.8478 98.0518C88.79 98.0407 88.7306 98.0412 88.6731 98.0534C88.6156 98.0656 88.5611 98.0892 88.5128 98.1228C88.4646 98.1564 88.4235 98.1993 88.3921 98.2491C88.3607 98.2988 88.3396 98.3543 88.33 98.4123C88.3203 98.4703 88.3224 98.5297 88.3361 98.5868C88.3498 98.644 88.3748 98.6979 88.4097 98.7453C88.4445 98.7926 88.4885 98.8325 88.539 98.8627C89.3114 99.3499 90.1133 99.8371 90.9221 100.303C90.9578 100.324 90.9962 100.339 91.0361 100.35C91.139 100.375 91.2477 100.363 91.3422 100.314C91.4367 100.266 91.5106 100.186 91.5504 100.087C91.5902 99.989 91.5932 99.8796 91.5588 99.7793C91.5244 99.6789 91.4549 99.5944 91.3632 99.5412Z" fill="#292A2E"/>
<path d="M116.967 109.575C116.071 109.315 115.185 109.057 114.31 108.799C114.254 108.782 114.196 108.776 114.138 108.781C114.08 108.787 114.024 108.804 113.973 108.832C113.922 108.86 113.877 108.897 113.841 108.943C113.805 108.989 113.778 109.041 113.763 109.097C113.73 109.209 113.743 109.329 113.798 109.432C113.854 109.535 113.949 109.611 114.06 109.644C114.937 109.902 115.824 110.161 116.722 110.421L116.738 110.425C116.85 110.452 116.967 110.434 117.066 110.375C117.164 110.316 117.236 110.221 117.265 110.111C117.295 110 117.28 109.882 117.224 109.782C117.168 109.682 117.075 109.608 116.966 109.575H116.967Z" fill="#292A2E"/>
<path d="M85.5946 95.8082C84.8476 95.2674 84.1129 94.7084 83.4074 94.1455C83.3161 94.0727 83.1997 94.0392 83.0837 94.0522C82.9677 94.0653 82.8616 94.1239 82.7888 94.2152C82.716 94.3065 82.6825 94.4229 82.6955 94.5389C82.7086 94.6549 82.7672 94.761 82.8585 94.8338C83.5747 95.4051 84.3201 95.9725 85.0778 96.5211C85.1235 96.5541 85.175 96.5781 85.2295 96.5919C85.3287 96.6166 85.4334 96.606 85.5256 96.5619C85.6178 96.5179 85.6918 96.4431 85.735 96.3505C85.7781 96.2578 85.7877 96.1531 85.7621 96.0541C85.7365 95.9552 85.6773 95.8683 85.5946 95.8082Z" fill="#292A2E"/>
<path d="M103.812 105.387C102.953 105.062 102.09 104.722 101.249 104.375C101.195 104.353 101.138 104.342 101.08 104.342C101.022 104.342 100.965 104.354 100.912 104.376C100.858 104.398 100.81 104.431 100.769 104.472C100.728 104.513 100.696 104.561 100.674 104.615C100.652 104.668 100.641 104.725 100.641 104.783C100.641 104.841 100.653 104.898 100.675 104.952C100.697 105.005 100.73 105.053 100.771 105.094C100.812 105.135 100.86 105.167 100.914 105.189C101.764 105.539 102.635 105.883 103.5 106.21C103.516 106.216 103.533 106.221 103.549 106.225C103.658 106.252 103.773 106.237 103.871 106.182C103.969 106.127 104.042 106.037 104.076 105.929C104.109 105.822 104.1 105.707 104.051 105.606C104.002 105.505 103.916 105.426 103.812 105.387Z" fill="#292A2E"/>
<path d="M80.2863 91.4613C79.6124 90.8351 78.9547 90.1891 78.3278 89.5411C78.2876 89.4995 78.2397 89.4662 78.1866 89.4432C78.1336 89.4201 78.0766 89.4077 78.0188 89.4067C77.961 89.4057 77.9035 89.4161 77.8498 89.4373C77.796 89.4585 77.7469 89.49 77.7053 89.5302C77.6637 89.5703 77.6304 89.6183 77.6074 89.6713C77.5843 89.7243 77.5719 89.7814 77.5709 89.8392C77.5699 89.897 77.5803 89.9544 77.6015 90.0082C77.6227 90.062 77.6543 90.1111 77.6944 90.1527C78.3307 90.812 79.0014 91.4694 79.6871 92.1064C79.7294 92.1457 79.7791 92.1764 79.8333 92.1965C79.8875 92.2166 79.9451 92.2259 80.0029 92.2238C80.0607 92.2217 80.1175 92.2082 80.17 92.1841C80.2226 92.16 80.2699 92.1258 80.3092 92.0835C80.3486 92.0411 80.3792 91.9914 80.3994 91.9372C80.4195 91.8831 80.4288 91.8254 80.4267 91.7677C80.4245 91.7099 80.411 91.6531 80.387 91.6005C80.3629 91.548 80.3287 91.5007 80.2863 91.4613Z" fill="#292A2E"/>
<path d="M80.26 37.4571C80.9161 36.8361 81.6034 36.2186 82.3021 35.6223C82.346 35.5847 82.3822 35.5389 82.4085 35.4874C82.4347 35.4359 82.4506 35.3797 82.4551 35.3221C82.4597 35.2644 82.4528 35.2065 82.435 35.1515C82.4172 35.0965 82.3886 35.0455 82.3511 35.0016C82.3136 34.9576 82.2677 34.9214 82.2162 34.8952C82.1647 34.8689 82.1086 34.853 82.0509 34.8485C81.9933 34.8439 81.9353 34.8508 81.8803 34.8686C81.8253 34.8865 81.7744 34.915 81.7304 34.9525C81.0204 35.5586 80.3221 36.1868 79.6546 36.8179C79.6126 36.8576 79.5789 36.9053 79.5553 36.958C79.5318 37.0108 79.5188 37.0677 79.5173 37.1255C79.5157 37.1833 79.5255 37.2409 79.5462 37.2948C79.5668 37.3488 79.5979 37.3982 79.6377 37.4402C79.6774 37.4822 79.7251 37.5159 79.7779 37.5395C79.8307 37.563 79.8876 37.576 79.9454 37.5775C80.0031 37.5791 80.0607 37.5693 80.1147 37.5486C80.1687 37.5279 80.218 37.4968 80.26 37.4571Z" fill="#292A2E"/>
<path d="M68.5103 54.7156C68.5207 54.7191 68.5311 54.7221 68.5428 54.7247C68.6505 54.7515 68.7645 54.7366 68.8617 54.683C68.959 54.6293 69.0323 54.5408 69.067 54.4353C69.3486 53.5813 69.6701 52.7196 70.0232 51.8745C70.0683 51.7668 70.0687 51.6457 70.0244 51.5377C69.9801 51.4297 69.8948 51.3437 69.7871 51.2986C69.6794 51.2536 69.5582 51.2531 69.4502 51.2974C69.3422 51.3417 69.2563 51.4271 69.2112 51.5348C68.8494 52.401 68.5197 53.2842 68.2309 54.1598C68.1944 54.2706 68.2032 54.3913 68.2556 54.4955C68.308 54.5997 68.3996 54.6788 68.5103 54.7156Z" fill="#292A2E"/>
<path d="M67.6053 61.0924C67.705 60.1976 67.8454 59.2908 68.0224 58.3966C68.0336 58.3399 68.0336 58.2815 68.0223 58.2248C68.0109 58.1681 67.9886 58.1142 67.9564 58.0662C67.9243 58.0181 67.883 57.9769 67.8349 57.9448C67.7868 57.9127 67.7329 57.8904 67.6761 57.8792C67.6194 57.8679 67.5611 57.868 67.5044 57.8793C67.4477 57.8906 67.3938 57.913 67.3457 57.9451C67.2977 57.9773 67.2564 58.0186 67.2244 58.0667C67.1923 58.1147 67.17 58.1687 67.1587 58.2254C66.9768 59.1446 66.8339 60.0768 66.7303 60.9957C66.7185 61.1015 66.7455 61.2079 66.8061 61.2954C66.8668 61.3829 66.9571 61.4455 67.0603 61.4715C67.0796 61.4765 67.0993 61.4799 67.1191 61.4819C67.1766 61.4883 67.2348 61.4834 67.2904 61.4673C67.346 61.4512 67.3979 61.4243 67.4431 61.3881C67.4882 61.3519 67.5258 61.3072 67.5537 61.2564C67.5815 61.2057 67.5991 61.15 67.6053 61.0924Z" fill="#292A2E"/>
<path d="M73.0919 45.2277C72.9939 45.1644 72.8748 45.1425 72.7607 45.1669C72.6466 45.1912 72.5468 45.2598 72.4832 45.3576C71.9729 46.1459 71.4883 46.9527 71.0427 47.7566C70.9862 47.8588 70.9726 47.9793 71.0048 48.0915C71.037 48.2037 71.1124 48.2986 71.2145 48.3553C71.2483 48.3737 71.2841 48.3879 71.3214 48.3975C71.4155 48.4209 71.5147 48.4126 71.6036 48.3739C71.6925 48.3352 71.7661 48.2682 71.8131 48.1834C72.2487 47.3971 72.7226 46.6075 73.2218 45.8361C73.2851 45.7381 73.307 45.6191 73.2826 45.505C73.2583 45.391 73.1897 45.2913 73.0919 45.2277Z" fill="#292A2E"/>
<path d="M67.4153 65.1788C67.4109 65.0636 67.3615 64.9547 67.2777 64.8756C67.1939 64.7964 67.0824 64.7532 66.9671 64.7554C66.8518 64.7575 66.742 64.8047 66.6612 64.8869C66.5803 64.9691 66.535 65.0798 66.5348 65.1951C66.552 66.1253 66.6108 67.0672 66.7089 67.9952C66.715 68.0527 66.7323 68.1084 66.7599 68.1592C66.7875 68.2099 66.8249 68.2548 66.8698 68.2911C66.9147 68.3275 66.9664 68.3546 67.0218 68.371C67.0773 68.3874 67.1354 68.3927 67.1928 68.3866C67.2503 68.3805 67.306 68.3632 67.3568 68.3356C67.4076 68.3079 67.4524 68.2706 67.4888 68.2257C67.5251 68.1807 67.5522 68.1291 67.5686 68.0736C67.585 68.0182 67.5903 67.9601 67.5842 67.9026C67.4891 67 67.4319 66.0837 67.4153 65.1788Z" fill="#292A2E"/>
<path d="M75.0027 42.5721C75.0515 42.6113 75.1083 42.6395 75.169 42.6546C75.2511 42.6751 75.3374 42.6715 75.4176 42.6443C75.4977 42.617 75.5683 42.5673 75.6208 42.501C76.1798 41.7971 76.7745 41.0916 77.3891 40.4047C77.4633 40.3171 77.5003 40.204 77.4924 40.0895C77.4845 39.975 77.4321 39.8682 77.3466 39.7917C77.261 39.7152 77.149 39.6751 77.0343 39.68C76.9196 39.6848 76.8114 39.7343 76.7326 39.8178C76.1067 40.5177 75.5007 41.2362 74.9313 41.954C74.8953 41.9993 74.8686 42.0512 74.8528 42.1067C74.8369 42.1623 74.8321 42.2205 74.8388 42.2779C74.8454 42.3353 74.8633 42.3908 74.8915 42.4413C74.9196 42.4918 74.9574 42.5363 75.0027 42.5721Z" fill="#292A2E"/>
<path d="M70.5227 78.372C70.4736 78.2661 70.3843 78.1841 70.2747 78.1439C70.1651 78.1038 70.044 78.1088 69.938 78.158C69.8321 78.2071 69.7501 78.2963 69.7099 78.406C69.6698 78.5156 69.6749 78.6367 69.724 78.7426C70.1118 79.5771 70.5406 80.4154 70.9985 81.2352C71.057 81.3342 71.152 81.4065 71.263 81.4364C71.3741 81.4664 71.4925 81.4517 71.5928 81.3955C71.6932 81.3394 71.7676 81.2462 71.8002 81.1358C71.8327 81.0255 71.8208 80.9068 71.767 80.8052C71.3198 80.0052 70.9027 79.1873 70.5227 78.372Z" fill="#292A2E"/>
<path d="M87.9004 30.8704C87.8353 30.7735 87.7343 30.7063 87.6198 30.6838C87.5052 30.6613 87.3864 30.6852 87.2894 30.7502C86.5128 31.2699 85.7456 31.8104 85.0086 32.3534C84.9621 32.3877 84.9228 32.4309 84.8929 32.4803C84.863 32.5298 84.8432 32.5847 84.8346 32.6419C84.8259 32.699 84.8286 32.7573 84.8425 32.8135C84.8563 32.8696 84.8811 32.9224 84.9154 32.9689C84.9497 33.0155 84.9928 33.0548 85.0423 33.0847C85.0918 33.1145 85.1467 33.1344 85.2039 33.143C85.261 33.1517 85.3193 33.149 85.3754 33.1351C85.4315 33.1212 85.4844 33.0964 85.5309 33.0622C86.2575 32.5269 87.0143 31.9948 87.7799 31.481C87.8768 31.416 87.944 31.3152 87.9666 31.2006C87.9892 31.0861 87.9654 30.9673 87.9004 30.8704Z" fill="#292A2E"/>
<path d="M75.6056 86.461C75.0294 85.7464 74.4743 85.011 73.9562 84.2757C73.9236 84.2268 73.8815 84.185 73.8324 84.1527C73.7833 84.1204 73.7283 84.0982 73.6705 84.0875C73.6128 84.0767 73.5535 84.0777 73.4961 84.0902C73.4387 84.1028 73.3844 84.1267 73.3363 84.1605C73.2883 84.1944 73.2476 84.2375 73.2165 84.2873C73.1853 84.3371 73.1645 84.3927 73.1552 84.4507C73.1459 84.5087 73.1483 84.568 73.1623 84.6251C73.1762 84.6821 73.2014 84.7359 73.2364 84.783C73.7652 85.5336 74.3317 86.2843 74.9206 87.0141C74.9562 87.061 75.0008 87.1003 75.0518 87.1296C75.1029 87.1589 75.1593 87.1777 75.2178 87.1848C75.2762 87.192 75.3355 87.1873 75.3921 87.1711C75.4487 87.155 75.5015 87.1276 75.5473 87.0906C75.5931 87.0537 75.6311 87.0079 75.6589 86.956C75.6868 86.9042 75.7039 86.8472 75.7093 86.7886C75.7148 86.73 75.7084 86.6709 75.6906 86.6147C75.6727 86.5586 75.6438 86.5067 75.6056 86.4619V86.461Z" fill="#292A2E"/>
<path d="M68.2751 71.936C68.2481 71.8225 68.177 71.7243 68.0776 71.6631C67.9781 71.6019 67.8584 71.5827 67.7449 71.6098C67.6313 71.6368 67.5331 71.7079 67.4719 71.8073C67.4107 71.9068 67.3915 72.0264 67.4186 72.14C67.6333 73.0417 67.8896 73.9489 68.1803 74.8359C68.2166 74.9469 68.2956 75.0388 68.3997 75.0916C68.5039 75.1443 68.6247 75.1535 68.7357 75.1172C68.8466 75.0808 68.9386 75.0019 68.9913 74.8977C69.0441 74.7936 69.0533 74.6727 69.017 74.5618C68.7337 73.6981 68.4843 72.814 68.2751 71.936Z" fill="#292A2E"/>
<path d="M93.8593 27.3557C93.8043 27.2527 93.7106 27.1757 93.5989 27.1417C93.4872 27.1078 93.3666 27.1195 93.2636 27.1744C92.4421 27.6126 91.6236 28.0696 90.8314 28.5324C90.7815 28.5616 90.7379 28.6003 90.7029 28.6464C90.668 28.6924 90.6424 28.7449 90.6278 28.8008C90.6131 28.8568 90.6096 28.915 90.6175 28.9723C90.6253 29.0296 90.6444 29.0847 90.6736 29.1346C90.7028 29.1845 90.7415 29.2282 90.7875 29.2631C90.8336 29.2981 90.8861 29.3236 90.942 29.3383C90.9979 29.3529 91.0562 29.3564 91.1134 29.3486C91.1707 29.3407 91.2259 29.3217 91.2758 29.2925C92.0582 28.8355 92.8673 28.383 93.6793 27.9514C93.7821 27.8962 93.8588 27.8024 93.8925 27.6907C93.9262 27.5791 93.9143 27.4586 93.8593 27.3557Z" fill="#292A2E"/>
<path d="M98.3097 24.715C97.8805 24.906 97.4553 25.0994 97.0339 25.2951C96.9814 25.3194 96.9343 25.3539 96.8952 25.3964C96.856 25.439 96.8256 25.4888 96.8058 25.5431C96.7859 25.5974 96.7769 25.6551 96.7793 25.7128C96.7817 25.7706 96.7955 25.8273 96.8198 25.8798C96.8442 25.9322 96.8786 25.9793 96.9211 26.0185C96.9637 26.0576 97.0135 26.088 97.0678 26.1079C97.1221 26.1277 97.1798 26.1367 97.2375 26.1343C97.2953 26.1319 97.352 26.1181 97.4045 26.0938C97.822 25.8989 98.243 25.7075 98.6676 25.5196C98.7702 25.4695 98.8493 25.3817 98.8884 25.2745C98.9275 25.1673 98.9234 25.0492 98.8771 24.9449C98.8308 24.8407 98.7459 24.7584 98.6402 24.7155C98.5344 24.6727 98.4162 24.6725 98.3104 24.715H98.3097Z" fill="#292A2E"/>
<path d="M292.916 256.257C292.05 256.425 291.566 256.501 291.561 256.502C291.504 256.511 291.449 256.531 291.4 256.561C291.351 256.591 291.308 256.631 291.274 256.677C291.205 256.772 291.176 256.889 291.194 257.005C291.212 257.12 291.275 257.224 291.37 257.292C291.464 257.361 291.582 257.39 291.697 257.372C291.717 257.369 292.199 257.293 293.084 257.121C293.141 257.111 293.196 257.089 293.245 257.058C293.294 257.026 293.336 256.985 293.369 256.937C293.402 256.889 293.425 256.834 293.436 256.777C293.448 256.72 293.449 256.661 293.437 256.604C293.426 256.547 293.404 256.493 293.372 256.444C293.339 256.396 293.298 256.354 293.249 256.322C293.201 256.29 293.146 256.267 293.089 256.256C293.032 256.245 292.973 256.245 292.916 256.257Z" fill="#292A2E"/>
<path d="M358.939 195.683C358.864 196.595 358.768 197.515 358.652 198.416C358.639 198.523 358.665 198.632 358.725 198.721C358.786 198.81 358.877 198.873 358.982 198.899C358.999 198.904 359.016 198.907 359.033 198.909C359.09 198.916 359.149 198.912 359.205 198.897C359.26 198.882 359.313 198.856 359.358 198.821C359.404 198.785 359.442 198.741 359.471 198.691C359.5 198.641 359.519 198.586 359.526 198.528C359.643 197.614 359.741 196.681 359.818 195.755C359.822 195.642 359.783 195.532 359.707 195.447C359.632 195.362 359.527 195.31 359.414 195.3C359.301 195.291 359.189 195.325 359.101 195.397C359.013 195.468 358.956 195.571 358.941 195.683H358.939Z" fill="#292A2E"/>
<path d="M359.149 191.564C359.147 191.663 359.179 191.761 359.239 191.84C359.3 191.919 359.385 191.975 359.482 191.999C359.514 192.007 359.546 192.012 359.579 192.012C359.637 192.013 359.694 192.003 359.748 191.982C359.802 191.961 359.851 191.93 359.893 191.89C359.935 191.849 359.968 191.801 359.991 191.748C360.014 191.695 360.027 191.638 360.028 191.581C360.046 190.667 360.045 189.729 360.026 188.795C360.023 188.678 359.975 188.567 359.891 188.487C359.806 188.406 359.693 188.362 359.577 188.364C359.46 188.366 359.349 188.415 359.268 188.499C359.187 188.583 359.143 188.696 359.146 188.813C359.167 189.735 359.167 190.66 359.149 191.564Z" fill="#292A2E"/>
<path d="M358.45 178.214C358.521 178.232 358.595 178.232 358.665 178.214C358.736 178.196 358.801 178.161 358.855 178.111C358.908 178.062 358.949 178 358.973 177.931C358.996 177.862 359.003 177.788 358.991 177.716C358.843 176.809 358.678 175.887 358.501 174.978C358.478 174.864 358.411 174.765 358.314 174.701C358.218 174.637 358.1 174.613 357.987 174.635C357.873 174.657 357.773 174.723 357.707 174.819C357.642 174.914 357.617 175.032 357.637 175.146C357.813 176.046 357.975 176.959 358.122 177.858C358.136 177.943 358.174 178.022 358.232 178.085C358.291 178.149 358.366 178.194 358.45 178.214Z" fill="#292A2E"/>
<path d="M342.334 232.114C342.293 232.073 342.245 232.04 342.192 232.017C342.139 231.994 342.082 231.982 342.024 231.982C341.966 231.981 341.908 231.992 341.855 232.014C341.801 232.036 341.752 232.068 341.711 232.108C341.062 232.747 340.387 233.382 339.71 233.996C339.623 234.075 339.572 234.184 339.566 234.301C339.56 234.417 339.601 234.532 339.679 234.618C339.758 234.705 339.867 234.756 339.984 234.762C340.101 234.768 340.215 234.727 340.301 234.648C340.987 234.027 341.669 233.384 342.328 232.737C342.369 232.696 342.402 232.648 342.425 232.595C342.447 232.542 342.459 232.484 342.46 232.427C342.46 232.369 342.449 232.312 342.428 232.258C342.406 232.204 342.374 232.156 342.334 232.114Z" fill="#292A2E"/>
<path d="M331.029 240.759C330.273 241.267 329.495 241.771 328.716 242.259C328.617 242.321 328.547 242.42 328.521 242.534C328.494 242.648 328.515 242.767 328.577 242.866C328.639 242.965 328.737 243.036 328.851 243.062C328.965 243.088 329.085 243.068 329.184 243.006C329.97 242.513 330.756 242.003 331.519 241.491C331.567 241.459 331.608 241.417 331.64 241.369C331.672 241.321 331.695 241.267 331.706 241.21C331.717 241.153 331.717 241.095 331.705 241.038C331.694 240.982 331.672 240.928 331.639 240.88C331.607 240.832 331.566 240.791 331.518 240.759C331.469 240.727 331.415 240.705 331.359 240.693C331.302 240.682 331.244 240.682 331.187 240.694C331.13 240.705 331.077 240.728 331.029 240.76V240.759Z" fill="#292A2E"/>
<path d="M356.761 171.107C356.773 171.164 356.797 171.219 356.831 171.267C356.864 171.315 356.907 171.356 356.957 171.387C357.006 171.419 357.062 171.44 357.12 171.449C357.178 171.459 357.237 171.457 357.294 171.443C357.351 171.43 357.405 171.405 357.452 171.37C357.5 171.335 357.54 171.291 357.57 171.241C357.6 171.191 357.62 171.135 357.628 171.076C357.636 171.018 357.633 170.959 357.618 170.902C357.404 170.011 357.174 169.105 356.936 168.206C356.905 168.094 356.831 167.999 356.73 167.941C356.629 167.883 356.51 167.867 356.397 167.897C356.285 167.927 356.189 168 356.13 168.101C356.072 168.202 356.056 168.321 356.085 168.434C356.322 169.323 356.55 170.222 356.761 171.107Z" fill="#292A2E"/>
<path d="M351.211 155.547C351.179 155.499 351.137 155.458 351.089 155.426C351.041 155.394 350.987 155.372 350.93 155.36C350.873 155.349 350.815 155.349 350.758 155.361C350.702 155.372 350.648 155.395 350.6 155.427C350.552 155.459 350.511 155.501 350.479 155.549C350.447 155.597 350.425 155.651 350.413 155.708C350.402 155.764 350.402 155.823 350.414 155.879C350.425 155.936 350.448 155.99 350.48 156.038C350.992 156.801 351.481 157.581 351.933 158.356C351.961 158.407 352 158.452 352.046 158.489C352.092 158.525 352.145 158.551 352.201 158.567C352.258 158.583 352.317 158.587 352.375 158.579C352.433 158.572 352.489 158.552 352.539 158.523C352.59 158.493 352.634 158.454 352.669 158.407C352.705 158.361 352.73 158.307 352.745 158.25C352.759 158.194 352.762 158.134 352.753 158.077C352.744 158.019 352.724 157.963 352.693 157.913C352.232 157.122 351.734 156.326 351.211 155.547Z" fill="#292A2E"/>
<path d="M337.191 236.744C337.117 236.654 337.011 236.596 336.895 236.584C336.779 236.572 336.663 236.606 336.572 236.679C335.867 237.248 335.136 237.816 334.398 238.368C334.308 238.44 334.25 238.543 334.235 238.657C334.22 238.771 334.251 238.886 334.319 238.978C334.388 239.07 334.49 239.131 334.603 239.149C334.717 239.167 334.832 239.139 334.926 239.073C335.673 238.515 336.412 237.94 337.125 237.364C337.17 237.327 337.208 237.283 337.235 237.232C337.263 237.181 337.28 237.125 337.286 237.068C337.292 237.01 337.287 236.952 337.271 236.897C337.255 236.841 337.227 236.789 337.191 236.744Z" fill="#292A2E"/>
<path d="M354.615 161.628C354.567 161.522 354.478 161.439 354.369 161.398C354.26 161.357 354.139 161.361 354.032 161.409C353.926 161.457 353.843 161.546 353.802 161.655C353.761 161.764 353.765 161.885 353.814 161.992C354.19 162.822 354.541 163.673 354.857 164.521C354.9 164.627 354.982 164.713 355.087 164.759C355.192 164.806 355.311 164.809 355.419 164.769C355.527 164.729 355.614 164.649 355.663 164.545C355.713 164.441 355.719 164.323 355.682 164.214C355.36 163.347 355 162.477 354.615 161.628Z" fill="#292A2E"/>
<path d="M356.804 208.841C356.749 208.823 356.691 208.816 356.633 208.82C356.576 208.824 356.519 208.84 356.468 208.866C356.416 208.892 356.37 208.928 356.332 208.972C356.295 209.015 356.266 209.066 356.248 209.121C355.962 209.989 355.651 210.858 355.324 211.705C355.282 211.813 355.285 211.935 355.332 212.041C355.38 212.148 355.467 212.232 355.576 212.274C355.593 212.28 355.611 212.286 355.629 212.29C355.733 212.316 355.843 212.303 355.938 212.254C356.033 212.204 356.107 212.122 356.146 212.022C356.478 211.161 356.794 210.278 357.084 209.396C357.102 209.342 357.109 209.284 357.105 209.226C357.101 209.168 357.085 209.112 357.059 209.061C357.033 209.009 356.997 208.963 356.953 208.925C356.909 208.888 356.859 208.859 356.804 208.841Z" fill="#292A2E"/>
<path d="M358.854 202.656C358.867 202.599 358.868 202.54 358.857 202.483C358.846 202.426 358.824 202.371 358.792 202.323C358.76 202.275 358.718 202.233 358.669 202.202C358.62 202.17 358.566 202.148 358.508 202.138C358.394 202.116 358.275 202.139 358.178 202.204C358.081 202.269 358.014 202.37 357.991 202.484C357.812 203.383 357.61 204.285 357.391 205.165C357.375 205.221 357.372 205.28 357.38 205.338C357.388 205.396 357.407 205.452 357.436 205.502C357.466 205.552 357.506 205.596 357.552 205.631C357.599 205.666 357.652 205.692 357.709 205.706C357.766 205.72 357.825 205.723 357.883 205.714C357.94 205.705 357.996 205.685 358.046 205.654C358.095 205.624 358.139 205.583 358.173 205.536C358.207 205.489 358.231 205.435 358.245 205.378C358.468 204.484 358.673 203.568 358.854 202.656Z" fill="#292A2E"/>
<path d="M354.286 215.276C354.234 215.251 354.177 215.237 354.119 215.234C354.062 215.231 354.004 215.239 353.949 215.259C353.895 215.278 353.845 215.308 353.802 215.347C353.759 215.385 353.724 215.432 353.699 215.485C353.309 216.305 352.892 217.129 352.459 217.933C352.432 217.984 352.415 218.039 352.409 218.097C352.403 218.154 352.408 218.213 352.425 218.268C352.442 218.323 352.469 218.375 352.506 218.42C352.542 218.464 352.587 218.502 352.638 218.529C352.689 218.556 352.745 218.574 352.802 218.579C352.86 218.585 352.918 218.58 352.973 218.563C353.029 218.546 353.08 218.519 353.125 218.483C353.17 218.446 353.207 218.401 353.234 218.35C353.674 217.533 354.098 216.696 354.495 215.863C354.545 215.757 354.551 215.636 354.512 215.526C354.472 215.416 354.391 215.326 354.286 215.276Z" fill="#292A2E"/>
<path d="M359.277 185.084C359.344 185.101 359.415 185.101 359.483 185.085C359.551 185.069 359.614 185.037 359.667 184.992C359.72 184.948 359.762 184.891 359.789 184.826C359.816 184.762 359.828 184.693 359.822 184.623C359.753 183.711 359.664 182.778 359.56 181.851C359.545 181.737 359.486 181.633 359.396 181.561C359.305 181.49 359.189 181.457 359.075 181.47C358.96 181.483 358.855 181.54 358.782 181.63C358.709 181.719 358.674 181.834 358.685 181.949C358.788 182.866 358.876 183.788 358.945 184.689C358.952 184.782 358.988 184.869 359.047 184.94C359.107 185.011 359.187 185.061 359.277 185.084Z" fill="#292A2E"/>
<path d="M346.965 226.976C346.921 226.94 346.869 226.912 346.814 226.895C346.758 226.879 346.7 226.873 346.643 226.879C346.585 226.885 346.529 226.902 346.479 226.929C346.428 226.956 346.383 226.993 346.346 227.038C345.771 227.741 345.169 228.444 344.56 229.126C344.521 229.169 344.491 229.219 344.472 229.274C344.453 229.329 344.445 229.386 344.448 229.444C344.451 229.502 344.466 229.558 344.491 229.61C344.516 229.663 344.551 229.709 344.594 229.748C344.637 229.786 344.687 229.816 344.742 229.835C344.796 229.854 344.854 229.862 344.912 229.859C344.97 229.856 345.026 229.842 345.078 229.817C345.13 229.791 345.177 229.756 345.216 229.713C345.835 229.021 346.445 228.309 347.028 227.596C347.065 227.551 347.092 227.499 347.109 227.444C347.125 227.388 347.131 227.33 347.125 227.273C347.119 227.215 347.102 227.16 347.075 227.109C347.047 227.058 347.01 227.013 346.965 226.976Z" fill="#292A2E"/>
<path d="M350.982 221.348C350.933 221.317 350.878 221.296 350.821 221.286C350.764 221.275 350.706 221.277 350.65 221.289C350.593 221.302 350.54 221.325 350.492 221.359C350.445 221.392 350.405 221.434 350.374 221.483C349.886 222.246 349.371 223.013 348.842 223.761C348.807 223.808 348.782 223.862 348.769 223.919C348.755 223.976 348.753 224.035 348.762 224.092C348.771 224.15 348.792 224.205 348.823 224.255C348.854 224.305 348.895 224.348 348.942 224.381C348.99 224.415 349.044 224.439 349.101 224.452C349.158 224.464 349.217 224.466 349.275 224.455C349.332 224.445 349.387 224.423 349.436 224.392C349.485 224.36 349.528 224.319 349.561 224.27C350.098 223.51 350.622 222.731 351.116 221.956C351.179 221.858 351.2 221.738 351.175 221.624C351.149 221.51 351.08 221.411 350.982 221.348Z" fill="#292A2E"/>
<path d="M299.63 254.684C298.735 254.925 297.835 255.156 296.953 255.37C296.897 255.383 296.844 255.408 296.797 255.442C296.75 255.476 296.711 255.519 296.681 255.568C296.651 255.618 296.631 255.673 296.622 255.73C296.613 255.787 296.615 255.845 296.629 255.901C296.643 255.958 296.667 256.01 296.701 256.057C296.736 256.104 296.779 256.143 296.828 256.173C296.877 256.203 296.932 256.224 296.989 256.232C297.046 256.241 297.105 256.239 297.161 256.225C298.049 256.01 298.958 255.777 299.859 255.534C299.915 255.519 299.967 255.493 300.013 255.458C300.059 255.423 300.097 255.379 300.126 255.328C300.155 255.278 300.174 255.223 300.181 255.166C300.189 255.108 300.185 255.05 300.17 254.994C300.155 254.939 300.129 254.886 300.093 254.84C300.058 254.795 300.014 254.756 299.964 254.727C299.914 254.699 299.859 254.68 299.801 254.672C299.744 254.665 299.686 254.669 299.63 254.684Z" fill="#292A2E"/>
<path d="M332.673 139.321C332.774 139.346 332.881 139.335 332.975 139.288C333.068 139.242 333.142 139.165 333.184 139.069C333.225 138.974 333.231 138.866 333.201 138.767C333.171 138.667 333.107 138.581 333.02 138.524C332.254 138.028 331.46 137.531 330.663 137.046C330.563 136.985 330.443 136.967 330.33 136.994C330.216 137.022 330.118 137.094 330.058 137.193C329.997 137.293 329.979 137.413 330.006 137.527C330.034 137.64 330.106 137.738 330.205 137.799C330.997 138.279 331.782 138.773 332.541 139.263C332.581 139.29 332.626 139.309 332.673 139.321Z" fill="#292A2E"/>
<path d="M306.239 252.691C305.373 252.98 304.488 253.264 303.609 253.536C303.553 253.553 303.502 253.581 303.457 253.618C303.413 253.654 303.376 253.7 303.349 253.751C303.322 253.802 303.305 253.858 303.3 253.915C303.295 253.973 303.301 254.031 303.318 254.086C303.335 254.142 303.363 254.193 303.4 254.237C303.436 254.282 303.482 254.319 303.533 254.346C303.584 254.373 303.64 254.389 303.698 254.395C303.755 254.4 303.813 254.394 303.868 254.377C304.754 254.105 305.646 253.819 306.518 253.527C306.629 253.49 306.721 253.411 306.773 253.307C306.825 253.202 306.834 253.081 306.797 252.97C306.76 252.86 306.68 252.768 306.576 252.716C306.471 252.664 306.35 252.655 306.24 252.692L306.239 252.691Z" fill="#292A2E"/>
<path d="M319.042 247.549C318.217 247.942 317.374 248.331 316.535 248.704C316.433 248.754 316.353 248.842 316.314 248.949C316.275 249.056 316.279 249.174 316.326 249.278C316.372 249.383 316.457 249.465 316.563 249.508C316.668 249.551 316.787 249.551 316.892 249.508C317.737 249.132 318.588 248.74 319.42 248.344C319.525 248.294 319.606 248.204 319.645 248.094C319.684 247.984 319.678 247.863 319.628 247.757C319.578 247.652 319.488 247.571 319.378 247.532C319.268 247.493 319.147 247.499 319.041 247.549H319.042Z" fill="#292A2E"/>
<path d="M325.162 244.373C324.371 244.82 323.556 245.265 322.741 245.695C322.638 245.749 322.561 245.842 322.526 245.954C322.491 246.066 322.503 246.186 322.557 246.29C322.611 246.393 322.705 246.471 322.816 246.505C322.928 246.54 323.049 246.529 323.152 246.474C323.975 246.041 324.797 245.592 325.595 245.141C325.697 245.083 325.771 244.988 325.803 244.875C325.834 244.763 325.819 244.642 325.762 244.541C325.704 244.439 325.609 244.365 325.496 244.333C325.384 244.302 325.263 244.317 325.162 244.374V244.373Z" fill="#292A2E"/>
<path d="M348.274 152.885C348.363 152.908 348.457 152.902 348.543 152.867C348.629 152.833 348.702 152.773 348.751 152.695C348.801 152.618 348.825 152.526 348.82 152.434C348.815 152.342 348.781 152.254 348.723 152.182C348.149 151.472 347.538 150.759 346.909 150.062C346.83 149.979 346.721 149.93 346.606 149.926C346.492 149.921 346.38 149.962 346.295 150.039C346.21 150.116 346.158 150.223 346.15 150.337C346.143 150.452 346.181 150.565 346.255 150.652C346.874 151.337 347.474 152.038 348.038 152.735C348.098 152.81 348.181 152.863 348.274 152.885Z" fill="#292A2E"/>
<path d="M312.72 250.315C311.878 250.652 311.012 250.988 310.145 251.311C310.038 251.354 309.953 251.437 309.906 251.542C309.86 251.647 309.856 251.766 309.897 251.874C309.937 251.981 310.017 252.069 310.121 252.118C310.225 252.167 310.344 252.174 310.453 252.136C311.326 251.811 312.199 251.472 313.048 251.132C313.103 251.111 313.153 251.08 313.196 251.04C313.239 250.999 313.273 250.951 313.297 250.897C313.32 250.843 313.333 250.786 313.334 250.727C313.335 250.668 313.325 250.61 313.303 250.555C313.281 250.501 313.248 250.451 313.207 250.409C313.165 250.367 313.116 250.334 313.062 250.312C313.007 250.29 312.949 250.278 312.89 250.279C312.832 250.279 312.774 250.291 312.72 250.315Z" fill="#292A2E"/>
<path d="M343.579 147.813C343.674 147.837 343.774 147.829 343.863 147.79C343.953 147.751 344.027 147.684 344.074 147.599C344.121 147.513 344.138 147.414 344.123 147.318C344.108 147.222 344.061 147.133 343.991 147.066C343.332 146.438 342.64 145.806 341.932 145.187C341.844 145.11 341.729 145.072 341.613 145.08C341.496 145.087 341.387 145.141 341.311 145.229C341.234 145.317 341.195 145.432 341.203 145.549C341.211 145.665 341.265 145.774 341.353 145.85C342.051 146.46 342.733 147.083 343.382 147.702C343.437 147.755 343.505 147.794 343.579 147.813Z" fill="#292A2E"/>
<path d="M338.327 143.313C338.425 143.337 338.528 143.327 338.619 143.284C338.711 143.242 338.785 143.169 338.829 143.078C338.873 142.987 338.885 142.884 338.862 142.785C338.839 142.687 338.783 142.599 338.703 142.537C337.984 141.981 337.232 141.421 336.47 140.874C336.423 140.837 336.369 140.81 336.312 140.795C336.254 140.779 336.194 140.775 336.135 140.784C336.076 140.792 336.02 140.812 335.969 140.843C335.918 140.874 335.874 140.914 335.839 140.963C335.804 141.011 335.78 141.066 335.767 141.124C335.754 141.182 335.753 141.242 335.764 141.301C335.775 141.359 335.797 141.415 335.83 141.464C335.863 141.514 335.906 141.556 335.956 141.589C336.71 142.13 337.453 142.683 338.165 143.233C338.213 143.27 338.268 143.298 338.327 143.313Z" fill="#292A2E"/>
<path d="M96.6042 13.3524L96.8176 27.5502L149.066 0.378056L96.6042 13.3524Z" fill="#0CBC8B"/>
<path opacity="0.2" d="M96.6042 13.3524L96.8176 27.5502L149.066 0.378056L96.6042 13.3524Z" fill="#0A0A0A"/>
<path d="M99.3173 17.5459L96.8176 27.5502L136.792 5.97801L99.3173 17.5459Z" fill="#0CBC8B"/>
<path opacity="0.1" d="M99.3173 17.5459L96.8176 27.5502L136.792 5.97801L99.3173 17.5459Z" fill="#0A0A0A"/>
<path d="M91.7357 5.6766L149.066 0.378071L108.824 34.8015L99.3173 17.5459L149.066 0.378071L96.6042 13.3524L91.7357 5.6766Z" fill="#0CBC8B"/>
<path d="M88.3318 115.944L213.749 195.744L339.167 115.944L213.706 0L88.3318 115.944Z" fill="#292A2E"/>
<path d="M314.863 16.9343H112.636V237.953H314.863V16.9343Z" fill="white"/>
<path d="M315.188 238.278H112.311V16.6095H315.188V238.278ZM112.961 237.629H314.539V17.2591H112.961L112.961 237.629Z" fill="#292A2E"/>
<path d="M173.584 36.7542H132.097V78.2421H173.584V36.7542Z" fill="white"/>
<path d="M173.909 78.5669H131.771V36.4291H173.909V78.5669ZM132.421 77.9173H173.259V37.0787H132.421L132.421 77.9173Z" fill="#292A2E"/>
<path d="M296.176 94.5044H132.097V95.154H296.176V94.5044Z" fill="#292A2E"/>
<path d="M296.176 110.069H132.097V110.718H296.176V110.069Z" fill="#292A2E"/>
<path d="M296.176 125.633H132.097V126.283H296.176V125.633Z" fill="#292A2E"/>
<path d="M296.176 141.198H132.097V141.848H296.176V141.198Z" fill="#292A2E"/>
<path d="M296.176 156.763H132.097V157.412H296.176V156.763Z" fill="#292A2E"/>
<path d="M296.176 172.327H132.097V172.977H296.176V172.327Z" fill="#292A2E"/>
<path d="M339.167 272.237H88.3317V115.944L213.749 192.496L339.167 115.944V272.237Z" fill="#367CFF"/>
<path opacity="0.83" d="M339.167 272.237H88.3317V115.944L213.749 192.496L339.167 115.944V272.237Z" fill="white"/>
<path d="M21.7501 266.829L21.0479 271.279C20.9718 271.76 20.7273 272.2 20.3579 272.519C19.9885 272.837 19.5181 273.015 19.0302 273.019L1.14291 273.193C0.885986 273.195 0.635884 273.11 0.433683 272.952C0.231483 272.793 0.0892093 272.571 0.0302333 272.321C-0.0287427 272.071 -0.000913872 271.808 0.109148 271.576C0.219211 271.344 0.404961 271.156 0.635887 271.043L11.3749 265.811L21.7501 266.829Z" fill="#E98862"/>
<path d="M42.6737 244.147C42.6737 244.147 42.5528 270.397 61.549 272.827L79.4331 256.459L90.5209 234.343L49.019 238.923L42.6737 244.147Z" fill="#262626"/>
<path d="M42.1621 242.717L42.1056 242.732C42.1056 242.732 41.9208 241.619 42.1621 242.717Z" fill="#333333"/>
<path d="M114.132 166.69C114.128 166.679 114.116 166.672 114.109 166.663L114.289 166.301C114.414 166.059 114.452 165.78 114.396 165.513C114.34 165.246 114.194 165.006 113.981 164.835C113.846 164.73 113.689 164.657 113.522 164.62C113.354 164.583 113.181 164.584 113.014 164.622C112.847 164.66 112.691 164.735 112.557 164.841C112.422 164.947 112.313 165.082 112.237 165.235L111.822 166.071C111.818 166.068 111.818 166.062 111.813 166.059C111.809 166.057 111.8 166.059 111.795 166.059C111.856 165.805 111.83 165.537 111.719 165.3C111.609 165.062 111.421 164.869 111.186 164.753C110.602 164.412 109.926 164.904 109.66 165.444L107.166 170.257L107.241 168.698C107.261 168.395 107.166 168.095 106.974 167.859C106.782 167.623 106.508 167.469 106.206 167.428C106.05 167.412 105.892 167.428 105.742 167.475C105.593 167.522 105.454 167.599 105.335 167.702C105.216 167.804 105.119 167.93 105.05 168.071C104.981 168.212 104.942 168.366 104.934 168.523L104.529 177.037C104.481 178.036 104.825 179.014 105.487 179.763C106.149 180.513 107.077 180.974 108.074 181.05C109.231 181.139 110.387 180.879 111.395 180.306C112.403 179.733 113.217 178.872 113.732 177.833C113.732 177.833 114.495 166.247 114.132 166.69Z" fill="#E98862"/>
<path d="M106.929 152.679L104.663 153.063C103.797 153.209 103.214 154.029 103.361 154.895L106.59 173.981C106.737 174.846 107.557 175.429 108.423 175.282L110.689 174.899C111.554 174.752 112.137 173.932 111.991 173.067L108.761 153.981C108.615 153.116 107.795 152.533 106.929 152.679Z" fill="#292A2E"/>
<path d="M100.701 144.652L100.008 144.769C95.7188 145.495 92.8298 149.561 93.5557 153.85C94.2815 158.14 98.3473 161.029 102.637 160.303L103.329 160.186C107.619 159.46 110.508 155.394 109.782 151.105C109.056 146.815 104.99 143.926 100.701 144.652Z" fill="#0CBC8B"/>
<path d="M127.146 153.039L125.668 153.748L123.987 143.817L125.565 143.872C125.695 145.286 125.886 146.773 126.145 148.303C126.427 149.967 126.766 151.559 127.146 153.039Z" fill="#367CFF"/>
<path d="M131.518 147.396C131.848 149.345 131.708 150.996 131.207 151.08C131.148 151.085 131.089 151.075 131.034 151.053C130.979 151.03 130.931 150.995 130.892 150.951C130.451 150.546 129.966 149.265 129.702 147.704C129.457 146.255 129.471 144.971 129.702 144.373C129.782 144.167 129.886 144.043 130.015 144.021C130.514 143.934 131.188 145.445 131.518 147.396Z" fill="#367CFF"/>
<path d="M126.152 148.336C126.15 148.325 126.148 148.314 126.147 148.303C125.075 141.969 125.926 135.108 126.93 132.496C122.996 136.483 117.271 140.549 111.893 142.199C109.724 142.865 107.069 143.472 103.037 144.148L105.701 159.894C109.731 159.207 112.437 158.907 114.705 158.822C120.324 158.611 127.069 160.567 132.095 163.038C130.287 160.903 127.225 154.701 126.154 148.369L126.152 148.336Z" fill="#0CBC8B"/>
<path d="M108.317 142.409L99.9729 143.821C99.6583 143.875 99.4464 144.173 99.4996 144.488L102.238 160.674C102.292 160.988 102.59 161.2 102.905 161.147L111.249 159.735C111.564 159.682 111.776 159.384 111.722 159.069L108.984 142.883C108.93 142.568 108.632 142.356 108.317 142.409Z" fill="#292A2E"/>
<path opacity="0.1" d="M108.317 142.409L99.9729 143.821C99.6583 143.875 99.4464 144.173 99.4996 144.488L102.238 160.674C102.292 160.988 102.59 161.2 102.905 161.147L111.249 159.735C111.564 159.682 111.776 159.384 111.722 159.069L108.984 142.883C108.93 142.568 108.632 142.356 108.317 142.409Z" fill="white"/>
<path d="M134.082 146.96C135.523 155.477 134.913 162.681 132.722 163.051C132.286 163.125 131.821 162.923 131.346 162.483C131.343 162.483 131.343 162.481 131.34 162.483C129.416 160.716 127.299 155.123 126.144 148.305C125.072 141.971 125.134 136.367 126.139 133.756C126.484 132.856 126.94 132.311 127.503 132.216C129.695 131.844 132.641 138.446 134.082 146.96Z" fill="#0CBC8B"/>
<path opacity="0.3" d="M134.082 146.96C135.523 155.477 134.913 162.681 132.722 163.051C132.286 163.125 131.821 162.923 131.346 162.483C131.343 162.483 131.343 162.481 131.34 162.483C129.416 160.716 127.299 155.123 126.144 148.305C125.072 141.971 125.134 136.367 126.139 133.756C126.484 132.856 126.94 132.311 127.503 132.216C129.695 131.844 132.641 138.446 134.082 146.96Z" fill="#0C0C0C"/>
<path opacity="0.6" d="M130.014 144.028L131.209 151.089L127.146 153.037C126.766 151.557 126.427 149.966 126.146 148.302C125.886 146.771 125.694 145.284 125.565 143.87L130.014 144.028Z" fill="white"/>
<path d="M131.518 147.396C131.848 149.345 131.708 150.996 131.207 151.08C131.148 151.085 131.089 151.075 131.034 151.053C130.979 151.03 130.931 150.995 130.892 150.951C130.451 150.546 129.966 149.265 129.702 147.704C129.457 146.255 129.471 144.971 129.702 144.373C129.782 144.167 129.886 144.043 130.015 144.021C130.514 143.934 131.188 145.445 131.518 147.396Z" fill="white"/>
<path d="M107.661 169.729C107.757 169.511 107.918 169.327 108.123 169.204C108.327 169.08 108.565 169.024 108.803 169.041C108.8 169.027 108.801 169.012 108.805 168.999C108.809 168.985 108.817 168.972 108.827 168.962C108.837 168.952 108.849 168.944 108.863 168.939C108.876 168.935 108.891 168.934 108.905 168.936L108.075 168.408C107.828 168.258 107.642 168.024 107.554 167.748C107.466 167.472 107.481 167.173 107.596 166.907C107.717 166.648 107.931 166.444 108.195 166.334C108.459 166.223 108.755 166.215 109.025 166.31C109.022 166.299 109.029 166.287 109.03 166.276L108.689 166.059C108.456 165.917 108.28 165.698 108.189 165.441C108.099 165.183 108.101 164.902 108.194 164.645C108.255 164.486 108.352 164.341 108.476 164.223C108.6 164.105 108.748 164.016 108.911 163.963C109.074 163.909 109.246 163.892 109.416 163.914C109.586 163.935 109.749 163.993 109.894 164.085L110.68 164.585C110.682 164.581 110.68 164.576 110.683 164.571C110.685 164.567 110.694 164.565 110.697 164.56C110.513 164.374 110.397 164.131 110.369 163.871C110.34 163.611 110.401 163.348 110.542 163.127C110.866 162.533 111.698 162.604 112.207 162.928L113.73 164.071C113.965 164.248 114.153 164.479 114.277 164.746C114.4 165.013 114.456 165.306 114.44 165.599C114.296 168.139 113.761 174.763 112.138 173.731L108.14 171.189C107.907 171.036 107.734 170.808 107.647 170.543C107.56 170.278 107.565 169.991 107.661 169.729Z" fill="#E98862"/>
<path d="M101.46 174.719L96.1621 203.387L82.6197 182.516L72.2737 194.67L93.8515 224.144L94.0347 224.314C95.1456 225.324 96.4955 226.035 97.9571 226.38C99.4188 226.724 100.944 226.691 102.389 226.283C103.834 225.875 105.152 225.106 106.218 224.048C107.283 222.99 108.062 221.678 108.481 220.236L117.368 177.271L101.46 174.719Z" fill="#068FFF"/>
<path d="M95.4274 206.207C95.4127 206.207 95.398 206.205 95.3839 206.201C95.3425 206.189 95.3074 206.162 95.2862 206.124C95.265 206.087 95.2595 206.043 95.2709 206.001L96.0056 203.344C96.017 203.302 96.0445 203.267 96.082 203.246C96.1194 203.224 96.1638 203.219 96.2053 203.23C96.2468 203.242 96.2821 203.269 96.3034 203.307C96.3246 203.344 96.3301 203.389 96.3187 203.43L95.5836 206.087C95.5743 206.122 95.5539 206.152 95.5257 206.174C95.4975 206.195 95.463 206.207 95.4274 206.207Z" fill="#0C0C0C"/>
<path d="M36.6034 158.69C36.6034 158.69 36.7821 166.366 35.3149 169.288C31.0905 177.703 30.4659 186.795 35.8346 191.035C41.2033 195.275 72.7762 192.497 74.1976 181.508C75.3941 172.257 70.9862 171.671 69.2605 164.283C68.481 160.941 66.5322 153.96 66.5322 153.96" fill="#0A0A0A"/>
<path d="M66.9268 179.097C66.8719 179.101 68.2991 189.091 56.6591 190.58C48.6007 191.612 44.0453 183.771 43.8618 183.809C44.6803 183.451 46.0292 182.839 46.4057 182.611C47.83 181.75 48.9206 180.668 48.8261 178.158C48.7719 176.712 46.9098 169.637 46.7428 168.197L59.4823 168.419C59.9247 171.443 60.153 178.616 64.5801 178.987C65.3181 179.047 66.1047 179.08 66.9268 179.097Z" fill="#E98862"/>
<path opacity="0.52" d="M61.3581 176.696C61.0414 176.121 60.7886 175.512 60.6042 174.881C60.1704 173.444 59.8949 171.964 59.7828 170.467C57.2384 170.64 54.6962 170.097 52.4452 168.898C52.3903 169.78 51.893 173.685 52.4013 174.409C53.3601 175.775 56.9232 177.605 61.3581 176.696Z" fill="#0C0C0C"/>
<path d="M58.7391 174.673C53.8996 175.585 47.4035 174.201 45.5105 167.816L43.8011 162.055C41.9068 155.67 43.7247 149.499 49.7365 147.715C55.7483 145.932 61.7774 149.775 63.6706 156.16L64.4274 158.711C65.1553 161.16 67.3757 173.046 58.7391 174.673Z" fill="#E98862"/>
<path opacity="0.52" d="M59.76 165.449L59.7717 165.446C60.0151 165.372 60.2542 165.285 60.4879 165.184C60.8364 165.032 61.2892 164.792 61.1944 164.473C61.0869 164.109 58.9256 160.478 58.6794 160.067C58.6579 160.03 58.6229 160.004 58.5822 159.994C58.5414 159.984 58.4983 159.99 58.4623 160.012C58.4262 160.033 58.4002 160.068 58.3899 160.109C58.3797 160.15 58.386 160.193 58.4075 160.229C59.329 161.775 60.8186 164.318 60.891 164.563C60.8621 164.683 60.2862 164.964 59.6817 165.143C59.6433 165.156 59.6109 165.182 59.5913 165.217C59.5718 165.253 59.5664 165.294 59.5764 165.333C59.5864 165.373 59.611 165.406 59.6451 165.428C59.6792 165.45 59.7203 165.457 59.76 165.45V165.449Z" fill="#0C0C0C"/>
<path opacity="0.52" d="M59.1381 168.353C60.1248 168.121 61.0433 167.661 61.8196 167.009C61.8358 166.996 61.8492 166.98 61.8592 166.962C61.8691 166.944 61.8754 166.924 61.8776 166.903C61.8798 166.882 61.8779 166.861 61.872 166.841C61.8661 166.821 61.8564 166.803 61.8434 166.787C61.8303 166.771 61.8142 166.757 61.7959 166.747C61.7777 166.737 61.7577 166.731 61.737 166.729C61.7164 166.727 61.6955 166.728 61.6755 166.734C61.6556 166.74 61.637 166.75 61.6209 166.763C59.9358 168.122 58.162 168.495 56.4915 167.84C56.4577 167.826 56.4231 167.814 56.3879 167.803C56.3472 167.793 56.3041 167.8 56.2681 167.821C56.2321 167.843 56.2062 167.878 56.196 167.918C56.1858 167.959 56.1922 168.002 56.2137 168.038C56.2353 168.074 56.2703 168.1 56.311 168.11C56.3239 168.114 56.3457 168.123 56.3759 168.135C57.2545 168.481 58.2162 168.557 59.1381 168.353Z" fill="#0C0C0C"/>
<path d="M39.1044 164.601L44.4961 163.035C48.4864 160.927 49.0109 153.595 49.0109 153.595C49.0109 153.595 54.5651 158.008 66.5315 153.96C66.5315 153.96 62.3376 137.126 44.7456 143.934C39.0732 146.129 35.4831 152.436 36.8044 160.242C37.7334 165.712 39.1044 164.601 39.1044 164.601Z" fill="#0A0A0A"/>
<path d="M46.4609 169.651C44.6339 170.193 42.573 168.676 42.0309 166.85C41.4888 165.025 42.6711 163.577 44.4994 163.035L45.8038 163.979L48.033 169.184L46.4609 169.651Z" fill="#E98862"/>
<path d="M59.4852 156.839C59.9928 156.433 60.6005 156.171 61.2443 156.08C61.561 156.034 61.8829 156.035 62.1993 156.084C62.512 156.132 62.8175 156.218 63.1087 156.342C63.1496 156.357 63.1828 156.388 63.2011 156.427C63.2195 156.467 63.2214 156.512 63.2065 156.553C63.1917 156.594 63.1612 156.627 63.1218 156.646C63.0823 156.665 63.0371 156.667 62.996 156.652L62.9837 156.648C62.7157 156.549 62.4364 156.483 62.1522 156.453C61.871 156.423 61.5869 156.434 61.3093 156.488C60.7584 156.591 60.2444 156.838 59.8194 157.203L59.8058 157.215C59.7817 157.238 59.7532 157.256 59.722 157.268C59.6908 157.28 59.6575 157.285 59.6242 157.284C59.5909 157.283 59.5582 157.275 59.5281 157.26C59.4979 157.246 59.4709 157.226 59.4487 157.201C59.4266 157.176 59.4096 157.147 59.3989 157.116C59.3882 157.084 59.3839 157.051 59.3864 157.017C59.3888 156.984 59.3979 156.952 59.4132 156.922C59.4284 156.892 59.4495 156.866 59.4751 156.845L59.4852 156.839Z" fill="#0C0C0C"/>
<path d="M54.9081 158.562C54.3529 158.484 53.787 158.555 53.2679 158.767C53.0053 158.872 52.76 159.016 52.5403 159.194C52.3176 159.373 52.1183 159.58 51.9469 159.808L51.9391 159.818C51.9119 159.851 51.8731 159.872 51.8307 159.877C51.7884 159.881 51.7459 159.87 51.712 159.844C51.678 159.818 51.6554 159.78 51.6487 159.738C51.642 159.696 51.6518 159.653 51.676 159.618C51.8539 159.356 52.0642 159.118 52.3019 158.908C52.5413 158.696 52.8112 158.521 53.1025 158.389C53.6928 158.116 54.3455 158.007 54.9922 158.074C55.0562 158.083 55.114 158.116 55.1536 158.167C55.1932 158.218 55.2113 158.283 55.2042 158.347C55.1971 158.411 55.1654 158.47 55.1156 158.511C55.0658 158.552 55.002 158.572 54.9377 158.567H54.9273L54.9081 158.562Z" fill="#0C0C0C"/>
<path opacity="0.52" d="M59.5021 169.808C59.6811 169.769 59.8565 169.714 60.0263 169.645C60.0473 169.639 60.0667 169.628 60.0833 169.614C60.0999 169.6 60.1133 169.582 60.1227 169.562C60.1321 169.542 60.1373 169.521 60.138 169.499C60.1387 169.477 60.1348 169.455 60.1266 169.435C60.1184 169.415 60.1061 169.396 60.0904 169.381C60.0747 169.366 60.056 169.354 60.0355 169.346C60.015 169.338 59.9931 169.335 59.9713 169.336C59.9494 169.337 59.928 169.343 59.9084 169.353C58.886 169.763 58.2458 169.422 58.2195 169.408C58.1829 169.387 58.1396 169.382 58.0992 169.394C58.0588 169.405 58.0246 169.432 58.0041 169.469C57.9836 169.505 57.9785 169.548 57.9899 169.589C58.0013 169.629 58.0282 169.663 58.0649 169.684C58.5153 169.89 59.0231 169.934 59.5021 169.808Z" fill="#0C0C0C"/>
<path d="M44.503 162.964L44.4329 162.817C51.144 159.609 48.7437 152.95 48.7187 152.885L48.8707 152.828C48.8963 152.895 51.347 159.692 44.503 162.964Z" fill="#0C0C0C"/>
<path opacity="0.1" d="M54.8682 166.431C55.6632 166.263 56.2077 165.654 56.0842 165.071C55.9608 164.488 55.2163 164.151 54.4213 164.32C53.6263 164.488 53.0819 165.097 53.2053 165.68C53.3287 166.263 54.0732 166.6 54.8682 166.431Z" fill="#0C0C0C"/>
<path opacity="0.1" d="M63.1471 163.312C63.2722 163.894 64.0163 164.23 64.8114 164.063C64.9488 164.033 65.0828 163.99 65.2113 163.933C65.1853 163.228 65.1268 162.552 65.0489 161.929C64.8206 161.893 64.5878 161.9 64.3622 161.95C63.5684 162.117 63.024 162.727 63.1471 163.312Z" fill="#0C0C0C"/>
<path d="M62.8252 158.825C63.2518 158.825 63.5976 158.479 63.5976 158.052C63.5976 157.626 63.2518 157.28 62.8252 157.28C62.3986 157.28 62.0528 157.626 62.0528 158.052C62.0528 158.479 62.3986 158.825 62.8252 158.825Z" fill="#0C0C0C"/>
<path d="M55.2131 160.92C55.6397 160.92 55.9855 160.575 55.9855 160.148C55.9855 159.721 55.6397 159.376 55.2131 159.376C54.7865 159.376 54.4407 159.721 54.4407 160.148C54.4407 160.575 54.7865 160.92 55.2131 160.92Z" fill="#0C0C0C"/>
<path d="M85.6223 197.903C86.1303 202.219 89.7973 229.046 90.521 234.342L42.6737 244.147C41.4375 239.489 36.0009 219.131 33.0874 210.125C30.3071 201.531 27.6795 197.159 28.3528 192.988C29.1391 188.12 35.5677 186.17 39.7329 184.712C42.2765 183.822 46.1592 182.764 46.1592 182.764C46.1592 182.764 47.8735 189.435 55.8942 188.182C66.8125 186.476 64.5279 178.999 64.5815 178.988C66.3334 178.631 75.0726 178.035 77.8185 178.985C85.3001 181.567 84.5465 188.756 85.6223 197.903Z" fill="#068FFF"/>
<path d="M86.1074 200.815L85.7858 200.861L88.2102 217.529L88.5317 217.482L86.1074 200.815Z" fill="#0C0C0C"/>
<path d="M24.2657 269.643L8.61987 265.288C15.8581 239.279 27.6092 196.501 28.3267 192.438C28.2669 192.823 28.241 193.212 28.2494 193.601L44.488 193.371C44.5108 194.971 44.5244 195.937 34.2499 233.469C29.3167 251.489 24.3154 269.463 24.2657 269.643Z" fill="#068FFF"/>
<path d="M40.2195 209.004L36.9398 223.777L37.2569 223.848L40.5366 209.075L40.2195 209.004Z" fill="#0C0C0C"/>
<path d="M75.0788 238.72C75.0788 238.72 117.742 216.679 129.56 212.602C132.621 211.546 138.215 210.574 143.01 213.377C157.312 221.74 195.083 255.793 195.083 255.793L185.908 269.503L136.011 233.769C136.011 233.769 112.104 250.826 90.5209 258.328L68.7357 255.754L75.0788 238.72Z" fill="#262626"/>
<path d="M200.692 259.759C200.692 259.759 208.333 258.517 208.966 251.415C209.599 244.313 215.222 246.023 215.222 246.023L214.42 273.209L200.837 272.81L200.692 259.759Z" fill="#068FFF"/>
<path d="M61.5484 272.826C61.5484 272.826 59.2667 272.673 64.4476 272.844C83.7735 273.48 205.12 273.162 205.12 273.162L205.182 254.959L61.5897 244.77L61.5484 272.826Z" fill="#262626"/>
<path d="M113.167 248.532C113.16 248.532 113.153 248.532 113.146 248.532L98.9931 246.748C98.9719 246.745 98.9514 246.738 98.9329 246.728C98.9143 246.717 98.898 246.703 98.8849 246.686C98.8719 246.669 98.8622 246.65 98.8566 246.629C98.851 246.609 98.8494 246.587 98.8521 246.566C98.8545 246.545 98.8611 246.524 98.8716 246.506C98.882 246.487 98.8962 246.47 98.9131 246.457C98.93 246.444 98.9494 246.435 98.9702 246.429C98.9909 246.424 99.0125 246.422 99.0337 246.426L113.187 248.209C113.23 248.212 113.27 248.232 113.299 248.264C113.327 248.296 113.342 248.339 113.339 248.382C113.337 248.425 113.317 248.465 113.285 248.494C113.252 248.522 113.21 248.537 113.167 248.534V248.532Z" fill="white"/>
<path d="M193.841 254.192H193.83L159.823 251.783C159.779 251.779 159.739 251.759 159.711 251.727C159.683 251.694 159.668 251.652 159.671 251.609C159.674 251.566 159.694 251.526 159.727 251.497C159.76 251.469 159.802 251.455 159.845 251.458L193.852 253.867C193.895 253.869 193.936 253.887 193.965 253.919C193.995 253.95 194.011 253.992 194.009 254.035C194.008 254.078 193.989 254.119 193.958 254.148C193.926 254.178 193.884 254.193 193.841 254.192Z" fill="white"/>
</svg>
