<svg width="408" height="293" viewBox="0 0 408 293" fill="none" xmlns="http://www.w3.org/2000/svg">
<path d="M165.457 16.5448H22.1378V159.864H165.457V16.5448Z" fill="#F4F4F4"/>
<path d="M22.1373 16.5448H20.4948V159.864H22.1373V16.5448Z" fill="#F4F4F4"/>
<path opacity="0.05" d="M22.1373 16.5448H20.4948V159.864H22.1373V16.5448Z" fill="#292A2E"/>
<path opacity="0.05" d="M56.8573 115.304V77.8069H87.5729V99.5918H135.152V138.165H155.373V159.864H135.152H131.256H29.0319V115.304H56.8573Z" fill="#292A2E"/>
<path opacity="0.34" d="M83.6305 81.8777H61.2631V85.9492H83.6305V81.8777Z" fill="#FFFFFA"/>
<path opacity="0.34" d="M83.6305 90.3145H61.2631V94.3859H83.6305V90.3145Z" fill="#FFFFFA"/>
<path opacity="0.34" d="M83.6305 98.7511H61.2631V102.823H83.6305V98.7511Z" fill="#FFFFFA"/>
<path opacity="0.34" d="M37.1213 119.256H32.9985V123.327H37.1213V119.256Z" fill="#FFFFFA"/>
<path opacity="0.34" d="M37.1213 127.692H32.9985V131.764H37.1213V127.692Z" fill="#FFFFFA"/>
<path opacity="0.34" d="M37.1213 136.129H32.9985V140.201H37.1213V136.129Z" fill="#FFFFFA"/>
<path opacity="0.34" d="M44.7477 119.256H40.6249V123.327H44.7477V119.256Z" fill="#FFFFFA"/>
<path opacity="0.34" d="M44.7477 127.692H40.6249V131.764H44.7477V127.692Z" fill="#FFFFFA"/>
<path opacity="0.34" d="M44.7477 136.129H40.6249V140.201H44.7477V136.129Z" fill="#FFFFFA"/>
<path opacity="0.34" d="M52.1684 119.256H48.0456V123.327H52.1684V119.256Z" fill="#FFFFFA"/>
<path opacity="0.34" d="M52.1684 127.692H48.0456V131.764H52.1684V127.692Z" fill="#FFFFFA"/>
<path opacity="0.34" d="M52.1684 136.129H48.0456V140.201H52.1684V136.129Z" fill="#FFFFFA"/>
<path d="M22.1378 87.4006H50.9759V16.5448H53.3609V87.4006H131.256V16.5448H133.641V87.4006H165.457V89.7856H133.641V159.864H131.256V89.7856H53.3609V159.864H50.9759V89.7856H22.1378V87.4006Z" fill="white"/>
<path d="M171.167 159.691H16.4284V164.457H171.167V159.691Z" fill="#F4F4F4"/>
<path opacity="0.1" d="M171.167 159.691H16.4284V164.457H171.167V159.691Z" fill="#292A2E"/>
<path opacity="0.1" d="M16.4279 159.691H14.1939V164.457H16.4279V159.691Z" fill="#292A2E"/>
<path opacity="0.1" d="M16.4279 159.691H14.1939V164.457H16.4279V159.691Z" fill="#292A2E"/>
<path d="M20.4948 22.6472L165.457 22.6472V19.1035L20.4948 19.1035V22.6472Z" fill="white"/>
<path d="M20.4948 29.2661L165.457 29.2661V25.7224L20.4948 25.7224V29.2661Z" fill="white"/>
<path d="M20.4948 35.8844L165.457 35.8844V32.3407L20.4948 32.3407V35.8844Z" fill="white"/>
<path d="M20.4948 42.5033L165.457 42.5033V38.9596L20.4948 38.9596V42.5033Z" fill="white"/>
<path d="M20.4948 49.1227L165.457 49.1227V45.579L20.4948 45.579V49.1227Z" fill="white"/>
<path d="M35.8915 53.1192H38.064L38.064 16.5442H35.8915L35.8915 53.1192Z" fill="white"/>
<path d="M36.7937 58.3719C38.4419 58.3719 39.7781 57.0358 39.7781 55.3875C39.7781 53.7393 38.4419 52.4031 36.7937 52.4031C35.1454 52.4031 33.8093 53.7393 33.8093 55.3875C33.8093 57.0358 35.1454 58.3719 36.7937 58.3719Z" fill="white"/>
<path d="M349.903 15.7441H289.6V94.2354H349.903V15.7441Z" fill="#F4F4F4"/>
<path d="M349.902 94.2354H351.858V15.7441H349.902V94.2354Z" fill="#F4F4F4"/>
<path opacity="0.05" d="M349.902 94.2354H351.858V15.7441H349.902V94.2354Z" fill="#292A2E"/>
<path opacity="0.05" d="M338.918 30.0419H300.584V79.937H338.918V30.0419Z" fill="#292A2E"/>
<path opacity="0.03" d="M338.917 30.0419H336.92V79.937H338.917V30.0419Z" fill="#292A2E"/>
<path d="M399.22 113.538H349.903V163.309H399.22V113.538Z" fill="#F4F4F4"/>
<path opacity="0.05" d="M390.236 122.604H358.886V154.242H390.236V122.604Z" fill="#292A2E"/>
<path d="M399.221 163.308H401.176V113.537H399.221V163.308Z" fill="#F4F4F4"/>
<path opacity="0.05" d="M399.221 163.308H401.176V113.537H399.221V163.308Z" fill="#292A2E"/>
<path opacity="0.03" d="M390.236 122.604H388.239V154.242H390.236V122.604Z" fill="#292A2E"/>
<path d="M235.673 197.843C235.608 197.843 235.544 197.828 235.485 197.799L138.386 149.807C138.323 149.776 138.268 149.729 138.228 149.671C138.187 149.614 138.161 149.547 138.153 149.476C138.145 149.406 138.155 149.335 138.182 149.269C138.208 149.204 138.251 149.146 138.306 149.101L235.374 69.4575C235.45 69.3954 235.545 69.3614 235.642 69.3614C235.74 69.3614 235.835 69.3954 235.911 69.4575L333.041 149.101C333.095 149.146 333.138 149.204 333.164 149.269C333.19 149.335 333.2 149.406 333.192 149.476C333.184 149.546 333.159 149.613 333.118 149.671C333.078 149.729 333.023 149.776 332.96 149.807L235.86 197.802C235.802 197.83 235.738 197.844 235.673 197.843ZM139.348 149.34L235.673 196.951L331.998 149.34L235.642 70.3298L139.348 149.34Z" fill="#292A2E"/>
<path d="M340.306 0.528412L320.979 26.4305V246.841C320.979 248.924 320.151 250.922 318.678 252.395C317.205 253.868 315.207 254.696 313.124 254.696H158.16C157.129 254.696 156.107 254.492 155.154 254.098C154.201 253.703 153.336 253.124 152.606 252.395C151.877 251.666 151.298 250.8 150.904 249.847C150.509 248.894 150.306 247.872 150.306 246.841V21.7501C150.306 16.1219 152.542 10.7241 156.521 6.74431C160.501 2.76448 165.899 0.528561 171.527 0.528412H340.306Z" fill="white"/>
<path d="M313.124 255.116H158.16C155.966 255.113 153.863 254.24 152.311 252.689C150.759 251.138 149.886 249.035 149.883 246.841V21.7501C149.889 16.0116 152.172 10.5101 156.229 6.45234C160.287 2.39461 165.789 0.112096 171.527 0.10553L340.306 0.10553C340.384 0.105738 340.461 0.127734 340.528 0.169065C340.594 0.210396 340.648 0.269436 340.683 0.339601C340.718 0.409766 340.733 0.488298 340.726 0.566438C340.719 0.644577 340.691 0.719252 340.644 0.782135L321.402 26.5709V246.841C321.398 249.035 320.525 251.138 318.973 252.689C317.422 254.24 315.318 255.113 313.124 255.116ZM171.527 0.951286C166.013 0.957554 160.726 3.15087 156.827 7.05005C152.928 10.9492 150.735 16.2359 150.728 21.7501V246.841C150.731 248.811 151.515 250.7 152.908 252.093C154.301 253.486 156.19 254.27 158.16 254.273H313.124C315.094 254.27 316.983 253.486 318.376 252.093C319.769 250.7 320.553 248.811 320.556 246.841V26.4305C320.556 26.3393 320.586 26.2505 320.64 26.1774L339.462 0.951286H171.527Z" fill="#292A2E"/>
<path opacity="0.3" d="M289.411 28.647H181.936C181.588 28.647 181.306 28.929 181.306 29.2768V30.3064C181.306 30.6542 181.588 30.9362 181.936 30.9362H289.411C289.759 30.9362 290.041 30.6542 290.041 30.3064V29.2768C290.041 28.929 289.759 28.647 289.411 28.647Z" fill="#262626"/>
<path d="M320.979 19.8551C320.979 14.7293 323.015 9.81351 326.64 6.18906C330.264 2.56461 335.18 0.528412 340.306 0.528412C345.431 0.528412 350.347 2.56461 353.972 6.18906C357.596 9.81351 359.632 14.7293 359.632 19.8551V36.172H320.979V19.8551Z" fill="white"/>
<path d="M359.632 36.5948H320.979C320.867 36.5948 320.759 36.5503 320.68 36.471C320.601 36.3917 320.556 36.2841 320.556 36.1719V19.8551C320.542 17.2527 321.043 14.6732 322.029 12.2649C323.015 9.8566 324.468 7.66697 326.303 5.82186C328.138 3.97676 330.32 2.51257 332.723 1.51346C335.126 0.51434 337.703 0 340.305 0C342.908 0 345.485 0.51434 347.888 1.51346C350.291 2.51257 352.472 3.97676 354.308 5.82186C356.143 7.66697 357.595 9.8566 358.582 12.2649C359.568 14.6732 360.069 17.2527 360.055 19.8551V36.1719C360.055 36.2841 360.01 36.3917 359.931 36.471C359.851 36.5503 359.744 36.5948 359.632 36.5948ZM321.404 35.7491H359.211V19.8551C359.224 17.3639 358.745 14.8947 357.801 12.5893C356.857 10.2838 355.467 8.1877 353.711 6.42138C351.954 4.65506 349.865 3.25337 347.565 2.2969C345.265 1.34043 342.798 0.84804 340.307 0.84804C337.816 0.84804 335.349 1.34043 333.049 2.2969C330.749 3.25337 328.66 4.65506 326.904 6.42138C325.147 8.1877 323.757 10.2838 322.813 12.5893C321.869 14.8947 321.39 17.3639 321.404 19.8551V35.7491Z" fill="#292A2E"/>
<path opacity="0.3" d="M306.611 76.7051H233.723C233.433 76.7051 233.198 76.9403 233.198 77.2306V77.2311C233.198 77.5214 233.433 77.7566 233.723 77.7566H306.611C306.902 77.7566 307.137 77.5214 307.137 77.2311V77.2306C307.137 76.9403 306.902 76.7051 306.611 76.7051Z" fill="#262626"/>
<path opacity="0.3" d="M306.611 69.2388H233.723C233.433 69.2388 233.198 69.474 233.198 69.7643V69.7648C233.198 70.0551 233.433 70.2903 233.723 70.2903H306.611C306.902 70.2903 307.137 70.0551 307.137 69.7648V69.7643C307.137 69.474 306.902 69.2388 306.611 69.2388Z" fill="#262626"/>
<path opacity="0.3" d="M306.611 61.7719H233.723C233.433 61.7719 233.198 62.0072 233.198 62.2974V62.2979C233.198 62.5882 233.433 62.8234 233.723 62.8234H306.611C306.902 62.8234 307.137 62.5882 307.137 62.2979V62.2974C307.137 62.0072 306.902 61.7719 306.611 61.7719Z" fill="#262626"/>
<path opacity="0.3" d="M306.611 54.3055H233.723C233.433 54.3055 233.198 54.5408 233.198 54.831V54.8316C233.198 55.1218 233.433 55.3571 233.723 55.3571H306.611C306.902 55.3571 307.137 55.1218 307.137 54.8316V54.831C307.137 54.5408 306.902 54.3055 306.611 54.3055Z" fill="#262626"/>
<path opacity="0.3" d="M306.611 46.8059H233.723C233.433 46.8059 233.198 47.0412 233.198 47.3314V47.332C233.198 47.6222 233.433 47.8575 233.723 47.8575H306.611C306.902 47.8575 307.137 47.6222 307.137 47.332V47.3314C307.137 47.0412 306.902 46.8059 306.611 46.8059Z" fill="#262626"/>
<path opacity="0.3" d="M276.476 84.1714H233.723C233.433 84.1714 233.198 84.4067 233.198 84.6969V84.6975C233.198 84.9877 233.433 85.223 233.723 85.223H276.476C276.766 85.223 277.001 84.9877 277.001 84.6975V84.6969C277.001 84.4067 276.766 84.1714 276.476 84.1714Z" fill="#262626"/>
<path opacity="0.9" d="M221.865 40.805H165.934C164.982 40.805 164.21 41.5772 164.21 42.5298V88.3765C164.21 89.3291 164.982 90.1013 165.934 90.1013H221.865C222.817 90.1013 223.59 89.3291 223.59 88.3765V42.5298C223.59 41.5772 222.817 40.805 221.865 40.805Z" fill="#0CBC8B"/>
<path opacity="0.8" d="M184.919 60.3718C187.292 60.3718 189.216 58.4483 189.216 56.0754C189.216 53.7025 187.292 51.779 184.919 51.779C182.547 51.779 180.623 53.7025 180.623 56.0754C180.623 58.4483 182.547 60.3718 184.919 60.3718Z" fill="white"/>
<path opacity="0.5" d="M190.836 76.1638L203.291 62.2686C204.069 61.4014 205.157 60.8756 206.32 60.8053C207.483 60.735 208.627 61.1259 209.503 61.8931L223.59 74.2265V90.1007H206.562" fill="white"/>
<path opacity="0.8" d="M206.562 90.1007L179.554 66.1658C178.756 65.4587 177.729 65.0636 176.663 65.0532C175.597 65.0429 174.562 65.4179 173.75 66.1095L164.21 74.2287V90.103" fill="white"/>
<path opacity="0.3" d="M306.561 126.037H164.786C164.496 126.037 164.26 126.272 164.26 126.562V126.563C164.26 126.853 164.496 127.088 164.786 127.088H306.561C306.851 127.088 307.087 126.853 307.087 126.563V126.562C307.087 126.272 306.851 126.037 306.561 126.037Z" fill="#262626"/>
<path opacity="0.3" d="M306.561 118.571H164.786C164.496 118.571 164.26 118.806 164.26 119.096V119.097C164.26 119.387 164.496 119.622 164.786 119.622H306.561C306.851 119.622 307.087 119.387 307.087 119.097V119.096C307.087 118.806 306.851 118.571 306.561 118.571Z" fill="#262626"/>
<path opacity="0.3" d="M306.561 111.104H164.786C164.496 111.104 164.26 111.339 164.26 111.629V111.63C164.26 111.92 164.496 112.155 164.786 112.155H306.561C306.851 112.155 307.087 111.92 307.087 111.63V111.629C307.087 111.339 306.851 111.104 306.561 111.104Z" fill="#262626"/>
<path opacity="0.3" d="M306.561 103.637H164.786C164.496 103.637 164.26 103.873 164.26 104.163V104.163C164.26 104.454 164.496 104.689 164.786 104.689H306.561C306.851 104.689 307.087 104.454 307.087 104.163V104.163C307.087 103.873 306.851 103.637 306.561 103.637Z" fill="#262626"/>
<path opacity="0.3" d="M207.538 133.504H164.786C164.496 133.504 164.26 133.739 164.26 134.029V134.03C164.26 134.32 164.496 134.555 164.786 134.555H207.538C207.829 134.555 208.064 134.32 208.064 134.03V134.029C208.064 133.739 207.829 133.504 207.538 133.504Z" fill="#262626"/>
<path opacity="0.3" d="M306.561 169.094H164.786C164.496 169.094 164.26 169.33 164.26 169.62V169.62C164.26 169.911 164.496 170.146 164.786 170.146H306.561C306.851 170.146 307.087 169.911 307.087 169.62V169.62C307.087 169.33 306.851 169.094 306.561 169.094Z" fill="#262626"/>
<path opacity="0.3" d="M306.561 161.628H164.786C164.496 161.628 164.26 161.863 164.26 162.154V162.154C164.26 162.444 164.496 162.68 164.786 162.68H306.561C306.851 162.68 307.087 162.444 307.087 162.154V162.154C307.087 161.863 306.851 161.628 306.561 161.628Z" fill="#262626"/>
<path opacity="0.3" d="M306.561 154.161H164.786C164.496 154.161 164.26 154.396 164.26 154.687V154.687C164.26 154.977 164.496 155.213 164.786 155.213H306.561C306.851 155.213 307.087 154.977 307.087 154.687V154.687C307.087 154.396 306.851 154.161 306.561 154.161Z" fill="#262626"/>
<path opacity="0.3" d="M306.561 146.695H164.786C164.496 146.695 164.26 146.93 164.26 147.22V147.221C164.26 147.511 164.496 147.746 164.786 147.746H306.561C306.851 147.746 307.087 147.511 307.087 147.221V147.22C307.087 146.93 306.851 146.695 306.561 146.695Z" fill="#262626"/>
<path opacity="0.3" d="M207.538 176.561H164.786C164.496 176.561 164.26 176.796 164.26 177.086V177.087C164.26 177.377 164.496 177.612 164.786 177.612H207.538C207.829 177.612 208.064 177.377 208.064 177.087V177.086C208.064 176.796 207.829 176.561 207.538 176.561Z" fill="#262626"/>
<path d="M323.291 261.708H148.055C145.54 261.708 143.129 260.709 141.351 258.931C139.573 257.153 138.574 254.742 138.574 252.227V149.428L235.673 197.423L332.772 149.428V252.227C332.772 253.472 332.527 254.705 332.051 255.855C331.574 257.006 330.876 258.051 329.995 258.931C329.115 259.812 328.07 260.51 326.919 260.986C325.769 261.463 324.536 261.708 323.291 261.708Z" fill="#367CFF"/>
<path opacity="0.78" d="M323.291 261.708H148.055C145.54 261.708 143.129 260.709 141.351 258.931C139.573 257.153 138.574 254.742 138.574 252.227V149.428L235.673 197.423L332.772 149.428V252.227C332.772 253.472 332.527 254.705 332.051 255.855C331.574 257.006 330.876 258.051 329.995 258.931C329.115 259.812 328.07 260.51 326.919 260.986C325.769 261.463 324.536 261.708 323.291 261.708Z" fill="white"/>
<path d="M323.291 262.131H148.055C145.429 262.128 142.912 261.084 141.055 259.227C139.198 257.37 138.154 254.853 138.151 252.227V149.428C138.151 149.356 138.169 149.286 138.204 149.223C138.239 149.16 138.29 149.107 138.351 149.069C138.412 149.031 138.482 149.009 138.554 149.006C138.625 149.002 138.697 149.017 138.761 149.049L235.673 196.951L332.585 149.049C332.649 149.017 332.721 149.002 332.793 149.006C332.865 149.009 332.935 149.031 332.996 149.069C333.057 149.107 333.107 149.16 333.142 149.223C333.177 149.286 333.195 149.356 333.195 149.428V252.227C333.192 254.853 332.148 257.37 330.291 259.227C328.434 261.084 325.917 262.128 323.291 262.131ZM138.997 150.109V252.227C138.999 254.629 139.955 256.931 141.653 258.629C143.351 260.327 145.653 261.282 148.055 261.285H323.291C325.693 261.282 327.995 260.327 329.693 258.629C331.392 256.931 332.347 254.629 332.349 252.227V150.109L235.86 197.802C235.802 197.83 235.738 197.845 235.673 197.845C235.608 197.845 235.544 197.83 235.485 197.802L138.997 150.109Z" fill="#292A2E"/>
<path d="M377.079 285.111C377.148 285.111 377.215 285.091 377.273 285.055C377.331 285.019 377.378 284.967 377.408 284.905L387.05 265.125C387.089 265.038 387.093 264.94 387.061 264.85C387.028 264.761 386.963 264.687 386.877 264.645C386.792 264.604 386.693 264.597 386.603 264.627C386.512 264.656 386.437 264.72 386.393 264.804L376.751 284.585C376.724 284.64 376.711 284.702 376.715 284.764C376.718 284.826 376.737 284.886 376.77 284.938C376.802 284.991 376.848 285.034 376.902 285.065C376.956 285.095 377.017 285.111 377.079 285.111Z" fill="#292A2E"/>
<path d="M360.777 283.963C360.858 283.963 360.936 283.936 361 283.886C361.064 283.837 361.11 283.768 361.13 283.69L372.29 241.083C372.302 241.037 372.305 240.989 372.299 240.941C372.292 240.894 372.276 240.848 372.252 240.806C372.228 240.765 372.196 240.729 372.157 240.7C372.119 240.671 372.076 240.649 372.029 240.637C371.983 240.625 371.934 240.622 371.887 240.629C371.839 240.635 371.793 240.651 371.752 240.675C371.711 240.699 371.674 240.731 371.645 240.77C371.616 240.808 371.595 240.852 371.583 240.898L360.423 283.504C360.398 283.598 360.412 283.698 360.461 283.782C360.51 283.865 360.59 283.926 360.684 283.951C360.714 283.959 360.746 283.963 360.777 283.963Z" fill="#292A2E"/>
<path d="M339.488 285.849C339.548 285.849 339.607 285.834 339.661 285.806C339.714 285.777 339.759 285.736 339.793 285.686C339.826 285.636 339.847 285.578 339.853 285.518C339.858 285.458 339.849 285.397 339.826 285.341L328.289 258.174C328.251 258.085 328.179 258.014 328.089 257.978C327.999 257.941 327.899 257.942 327.809 257.98C327.72 258.018 327.65 258.09 327.613 258.179C327.577 258.269 327.578 258.37 327.615 258.459L339.152 285.628C339.18 285.694 339.227 285.75 339.287 285.789C339.346 285.828 339.416 285.849 339.488 285.849Z" fill="#292A2E"/>
<path d="M360.363 292.143C360.393 292.143 360.423 292.14 360.452 292.133C360.546 292.109 360.627 292.049 360.677 291.966C360.727 291.883 360.742 291.783 360.718 291.689L347.313 238.062C347.301 238.016 347.281 237.972 347.252 237.933C347.223 237.895 347.188 237.862 347.146 237.838C347.105 237.813 347.06 237.797 347.012 237.79C346.965 237.783 346.916 237.785 346.87 237.797C346.823 237.808 346.779 237.829 346.741 237.858C346.702 237.886 346.67 237.922 346.645 237.963C346.62 238.004 346.604 238.05 346.597 238.098C346.59 238.145 346.592 238.193 346.604 238.24L360.008 291.867C360.028 291.946 360.074 292.016 360.138 292.066C360.202 292.116 360.282 292.143 360.363 292.143Z" fill="#292A2E"/>
<path d="M355.61 249.052C359.247 241.406 356.874 232.677 350.309 229.554C343.744 226.431 335.474 230.097 331.837 237.743C328.2 245.389 330.574 254.118 337.138 257.241C343.703 260.364 351.973 256.697 355.61 249.052Z" fill="#0CBC8B"/>
<path opacity="0.4" d="M355.61 249.052C359.247 241.406 356.874 232.677 350.309 229.554C343.744 226.431 335.474 230.097 331.837 237.743C328.2 245.389 330.574 254.118 337.138 257.241C343.703 260.364 351.973 256.697 355.61 249.052Z" fill="white"/>
<path d="M333.049 266.703C334.946 261.993 333.284 256.886 329.337 255.296C325.39 253.706 320.652 256.236 318.755 260.947C316.858 265.657 318.52 270.764 322.467 272.354C326.414 273.943 331.152 271.414 333.049 266.703Z" fill="#0CBC8B"/>
<path d="M379.56 260.659C385.423 258.881 388.407 251.606 386.224 244.41C384.041 237.214 377.519 232.822 371.656 234.6C365.792 236.379 362.809 243.654 364.991 250.85C367.174 258.046 373.696 262.438 379.56 260.659Z" fill="#0CBC8B"/>
<path d="M389.49 275.972C392.763 275.425 394.79 271.247 394.02 266.641C393.249 262.036 389.972 258.746 386.699 259.294C383.427 259.841 381.4 264.019 382.17 268.624C382.941 273.23 386.218 276.52 389.49 275.972Z" fill="#0CBC8B"/>
<path d="M328.728 292.646H385.671V278.456H328.728V292.646Z" fill="#292A2E"/>
<path opacity="0.3" d="M328.728 292.646H385.671V278.456H328.728V292.646Z" fill="white"/>
<path d="M355.719 274.891C358.033 269.145 355.988 262.907 351.15 260.959C346.313 259.011 340.515 262.09 338.201 267.836C335.887 273.582 337.932 279.82 342.77 281.768C347.607 283.716 353.405 280.637 355.719 274.891Z" fill="#0CBC8B"/>
<path d="M368.356 280.343C373.174 280.343 377.08 276.437 377.08 271.619C377.08 266.801 373.174 262.895 368.356 262.895C363.538 262.895 359.632 266.801 359.632 271.619C359.632 276.437 363.538 280.343 368.356 280.343Z" fill="#0CBC8B"/>
<path opacity="0.68" d="M333.049 266.703C334.946 261.993 333.284 256.886 329.337 255.296C325.39 253.706 320.652 256.236 318.755 260.947C316.858 265.657 318.52 270.764 322.467 272.354C326.414 273.943 331.152 271.414 333.049 266.703Z" fill="white"/>
<path opacity="0.68" d="M379.56 260.659C385.423 258.881 388.407 251.606 386.224 244.41C384.041 237.214 377.519 232.822 371.656 234.6C365.792 236.379 362.809 243.654 364.991 250.85C367.174 258.046 373.696 262.438 379.56 260.659Z" fill="white"/>
<path opacity="0.68" d="M389.49 275.972C392.763 275.425 394.79 271.247 394.02 266.641C393.249 262.036 389.972 258.746 386.699 259.294C383.427 259.841 381.4 264.019 382.17 268.624C382.941 273.23 386.218 276.52 389.49 275.972Z" fill="white"/>
<path opacity="0.68" d="M355.719 274.891C358.033 269.145 355.988 262.907 351.15 260.959C346.313 259.011 340.515 262.09 338.201 267.836C335.887 273.582 337.932 279.82 342.77 281.768C347.607 283.716 353.405 280.637 355.719 274.891Z" fill="white"/>
<path opacity="0.4" d="M368.356 280.343C373.174 280.343 377.08 276.437 377.08 271.619C377.08 266.801 373.174 262.895 368.356 262.895C363.538 262.895 359.632 266.801 359.632 271.619C359.632 276.437 363.538 280.343 368.356 280.343Z" fill="white"/>
<path d="M340.333 264.275C346.955 266.125 350.44 260.714 350.44 260.714L350.436 260.707C346.905 259.653 342.99 261.135 340.333 264.275Z" fill="#292A2E"/>
<path d="M382.159 266.491C385.419 265.243 388.12 262.862 389.768 259.785C388.875 259.308 387.851 259.135 386.85 259.292C384.093 259.753 382.221 262.791 382.159 266.491Z" fill="#292A2E"/>
<path d="M366.799 263.036C369.339 265.323 372.511 266.788 375.9 267.237C374.998 265.687 373.64 264.452 372.012 263.701C370.384 262.949 368.564 262.717 366.799 263.036Z" fill="#292A2E"/>
<path d="M406.644 292.516H15.312C15.1625 292.516 15.0191 292.456 14.9133 292.35C14.8076 292.245 14.7482 292.101 14.7482 291.952C14.7482 291.802 14.8076 291.659 14.9133 291.553C15.0191 291.447 15.1625 291.388 15.312 291.388H406.644C406.794 291.388 406.937 291.447 407.043 291.553C407.148 291.659 407.208 291.802 407.208 291.952C407.208 292.101 407.148 292.245 407.043 292.35C406.937 292.456 406.794 292.516 406.644 292.516Z" fill="#292A2E"/>
<path d="M224.183 113.397L217.016 127.871L217.133 125.681C217.157 124.972 216.912 124.282 216.446 123.748C215.98 123.214 215.329 122.877 214.624 122.805C214.259 122.78 213.893 122.831 213.548 122.952C213.203 123.074 212.887 123.264 212.618 123.512C212.349 123.76 212.134 124.061 211.985 124.395C211.836 124.729 211.757 125.089 211.752 125.455L211.301 152.571L219.987 152.934C222.685 153.047 225.356 152.352 227.656 150.938C229.957 149.523 231.782 147.454 232.899 144.995L237.937 133.849C238.21 133.275 238.276 132.624 238.124 132.006C237.973 131.389 237.612 130.843 237.104 130.461C236.638 130.126 236.078 129.948 235.504 129.954C234.93 129.96 234.373 130.149 233.914 130.494C233.892 130.456 233.861 130.424 233.823 130.402C233.786 130.383 233.745 130.374 233.704 130.375C233.663 130.375 233.623 130.386 233.587 130.407L234.52 128.353C234.826 127.714 234.878 126.983 234.665 126.307C234.453 125.632 233.992 125.062 233.376 124.713C232.814 124.421 232.167 124.336 231.549 124.474C230.931 124.611 230.381 124.962 229.996 125.465C229.985 125.439 229.97 125.414 229.951 125.393L230.335 124.547C230.608 123.973 230.674 123.322 230.522 122.705C230.37 122.088 230.01 121.542 229.502 121.16C228.937 120.752 228.236 120.58 227.546 120.678C226.857 120.777 226.232 121.139 225.803 121.688C225.786 121.681 225.768 121.676 225.75 121.673L228.734 115.645C229.033 115.042 229.08 114.344 228.865 113.706C228.65 113.068 228.19 112.541 227.586 112.242C226.983 111.943 226.285 111.896 225.647 112.111C225.008 112.327 224.482 112.787 224.183 113.39V113.397Z" fill="#E98862"/>
<path opacity="0.2" d="M225.964 121.957C225.96 121.986 225.952 122.015 225.939 122.041L222.972 127.862C222.957 127.892 222.936 127.918 222.911 127.94C222.886 127.961 222.857 127.978 222.825 127.988C222.793 127.998 222.76 128.002 222.727 128C222.694 127.997 222.662 127.988 222.632 127.973C222.602 127.958 222.576 127.937 222.554 127.912C222.533 127.887 222.516 127.857 222.506 127.826C222.496 127.794 222.492 127.761 222.494 127.728C222.497 127.695 222.506 127.662 222.521 127.633L225.487 121.811C225.515 121.758 225.56 121.717 225.614 121.694C225.669 121.671 225.73 121.667 225.787 121.685C225.844 121.702 225.892 121.739 225.925 121.789C225.957 121.839 225.971 121.898 225.964 121.957H225.964Z" fill="#0A0A0A"/>
<path opacity="0.2" d="M230.016 125.583C230.012 125.612 230.004 125.64 229.991 125.665L227.695 130.259C227.681 130.291 227.661 130.319 227.637 130.343C227.612 130.367 227.582 130.385 227.55 130.397C227.517 130.409 227.483 130.414 227.449 130.412C227.414 130.41 227.381 130.401 227.35 130.385C227.319 130.37 227.292 130.349 227.269 130.322C227.247 130.296 227.231 130.265 227.221 130.232C227.211 130.199 227.208 130.165 227.212 130.13C227.216 130.096 227.227 130.063 227.244 130.033L229.54 125.44C229.566 125.386 229.611 125.344 229.666 125.32C229.72 125.296 229.782 125.293 229.839 125.31C229.896 125.327 229.946 125.364 229.978 125.414C230.011 125.464 230.024 125.524 230.017 125.584L230.016 125.583Z" fill="#0A0A0A"/>
<path opacity="0.2" d="M233.955 130.66C233.951 130.69 233.941 130.72 233.927 130.747L232.792 132.89C232.777 132.921 232.756 132.948 232.731 132.97C232.705 132.993 232.675 133.01 232.643 133.02C232.611 133.031 232.576 133.035 232.542 133.032C232.509 133.029 232.476 133.02 232.445 133.004C232.415 132.988 232.389 132.966 232.367 132.939C232.346 132.913 232.33 132.882 232.321 132.85C232.311 132.817 232.309 132.783 232.313 132.749C232.317 132.715 232.328 132.682 232.345 132.653L233.48 130.51C233.508 130.458 233.553 130.418 233.607 130.395C233.662 130.373 233.723 130.37 233.779 130.388C233.836 130.406 233.884 130.443 233.916 130.492C233.948 130.542 233.962 130.601 233.955 130.66Z" fill="#0A0A0A"/>
<path d="M206.974 134.555L185.724 195.506L151.188 150.342L118.873 177.342L178.575 241.096C180.698 243.522 183.426 245.342 186.48 246.371C189.535 247.401 192.808 247.603 195.967 246.957C199.125 246.31 202.056 244.839 204.461 242.693C206.866 240.547 208.66 237.802 209.66 234.737L238.759 144.986L206.974 134.555Z" fill="#068FFF"/>
<path d="M18.3821 265.403C15.4203 265.403 12.5023 264.687 9.87661 263.317C7.25089 261.947 4.9952 259.962 3.30159 257.532C1.60798 255.103 0.526612 252.299 0.149559 249.362C-0.227493 246.424 0.110935 243.439 1.13603 240.66C2.17631 237.841 26.6638 171.429 31.3064 159.463L65.5838 172.762C62.9738 179.489 53.5177 204.991 45.9171 225.537L58.5403 224.165L62.5142 260.716L20.3713 265.295C19.7107 265.367 19.0467 265.403 18.3821 265.403Z" fill="#068FFF"/>
<path d="M40.4124 263.525L34.8067 291.428H143.685L137.414 262.995L40.4124 263.525Z" fill="#262626"/>
<path d="M63.9537 138.831C54.8568 139.508 45.5811 142.462 38.7502 148.508C28.4483 157.627 29.3651 163.327 34.5079 188.581C38.9329 210.31 37.1771 219.805 40.1372 259.901C40.2246 261.085 40.4113 263.525 40.4113 263.525L137.722 263.364C137.722 263.364 146.839 210.167 151.874 185.63C155.702 166.977 165.757 144.332 123.361 139.768C123.249 139.756 89.2458 136.954 63.9537 138.831Z" fill="#068FFF"/>
<path d="M123.361 139.768C123.248 139.753 120.159 151.377 96.0552 149.568C79.3656 148.318 75.2993 136.96 74.917 136.96C76.7162 136.577 79.6374 136.18 80.4369 135.754C83.0644 134.344 84.9787 132.623 85.9417 128.934C86.6955 126.05 87.0795 114.946 87.0795 109.374L112.757 115.144C112.399 121.429 109.894 135.998 118.674 138.577C120.135 139.005 121.709 139.398 123.361 139.768Z" fill="#E98862"/>
<path d="M111.866 127.502C101.744 128.301 88.74 124.026 86.2681 110.521L84.0393 98.3345C81.5697 84.8289 86.6606 72.5829 99.3757 70.2554C112.092 67.9296 123.599 77.1398 126.069 90.6454L127.056 96.0408C128.008 101.225 129.93 126.077 111.866 127.502Z" fill="#E98862"/>
<path d="M121.255 115.102C119.438 105.972 118.605 99.8782 118.701 93.4544C121.26 88.9652 120.588 83.8128 120.006 81.5862C122.514 82.9547 123.563 83.1041 125.926 83.1041C125.926 83.1041 121.693 66.1174 107.307 61.5463C104.662 60.5168 97.908 59.2165 88.9396 60.4463C81.3115 61.4928 62.5086 67.196 59.8225 88.3647V88.3765C59.7334 89.0785 57.928 108.583 54.329 117.94C49.4902 130.52 42.697 134.429 42.8696 148.943C43.0912 167.613 77.4136 170.098 98.1155 168.701C118.817 167.305 130.374 160.498 130.524 147.043C130.688 131.968 124.891 133.368 121.255 115.102Z" fill="#0A0A0A"/>
<path d="M121.26 107.449C117.396 108.155 113.508 104.594 112.803 100.73C112.098 96.8651 114.839 94.1615 118.703 93.4561L121.26 107.449Z" fill="#E98862"/>
<path d="M147.372 210.172C147.356 210.172 147.341 210.171 147.326 210.168C147.294 210.162 147.264 210.15 147.237 210.132C147.21 210.115 147.187 210.092 147.169 210.065C147.151 210.039 147.138 210.009 147.131 209.977C147.125 209.946 147.124 209.913 147.13 209.882L151.211 184.321C151.225 184.26 151.263 184.206 151.316 184.172C151.369 184.137 151.433 184.124 151.495 184.136C151.558 184.148 151.613 184.183 151.65 184.235C151.686 184.286 151.702 184.35 151.692 184.413L147.614 209.973C147.603 210.029 147.573 210.08 147.529 210.116C147.485 210.153 147.429 210.173 147.372 210.172Z" fill="#0C0C0C"/>
<path d="M40.4124 263.771C40.3491 263.771 40.2882 263.746 40.2426 263.703C40.197 263.659 40.1702 263.599 40.1677 263.535L37.1184 184.377C37.1159 184.312 37.1392 184.248 37.1832 184.201C37.2273 184.153 37.2886 184.124 37.3536 184.122C37.4177 184.122 37.4794 184.147 37.5264 184.19C37.5735 184.234 37.6025 184.294 37.6079 184.357L40.6577 263.516C40.6601 263.581 40.6367 263.645 40.5925 263.692C40.5483 263.74 40.487 263.768 40.422 263.771H40.4124Z" fill="#0C0C0C"/>
</svg>
