<svg width="20" height="24" viewBox="0 0 20 24" fill="none" xmlns="http://www.w3.org/2000/svg">
<path fill-rule="evenodd" clip-rule="evenodd" d="M10 20.3334C14.6024 20.3334 18.3333 16.6024 18.3333 12.0001C18.3333 7.39769 14.6024 3.66673 10 3.66673C5.39763 3.66673 1.66667 7.39769 1.66667 12.0001C1.66667 16.6024 5.39763 20.3334 10 20.3334ZM10 22.0001C4.47715 22.0001 0 17.5229 0 12.0001C0 6.47721 4.47715 2.00006 10 2.00006C15.5228 2.00006 20 6.47721 20 12.0001C20 17.5229 15.5228 22.0001 10 22.0001ZM8.8058 14.2011L5.58908 10.9864L4.41092 12.1652L8.80746 16.5591L15.8733 9.47755L14.6935 8.30035L8.8058 14.2011Z" fill="#BFBFBF"/>
</svg>
