<svg width="16" height="16" viewBox="0 0 16 16" fill="none" xmlns="http://www.w3.org/2000/svg">
<g clip-path="url(#clip0_87_1012)">
<path fill-rule="evenodd" clip-rule="evenodd" d="M13.6348 13.1345H11.262V9.42084C11.262 8.5357 11.2466 7.39648 10.029 7.39648C8.79378 7.39648 8.60529 8.3613 8.60529 9.3578V13.1345H6.235V5.49852H8.50961V6.5427H8.54257C8.85938 5.94205 9.63347 5.30908 10.7877 5.30908C13.191 5.30908 13.6348 6.88991 13.6348 8.94659V13.1345ZM3.55943 4.4553C3.37861 4.45547 3.19953 4.41999 3.03243 4.35089C2.86533 4.28179 2.7135 4.18042 2.5856 4.05259C2.45771 3.92476 2.35628 3.77297 2.2871 3.6059C2.21792 3.43884 2.18236 3.25977 2.18244 3.07895C2.18244 2.71401 2.32742 2.36401 2.58547 2.10595C2.84353 1.8479 3.19353 1.70292 3.55847 1.70292C3.92342 1.70292 4.27341 1.8479 4.53147 2.10595C4.78952 2.36401 4.9345 2.71401 4.9345 3.07895C4.93458 3.44379 4.78978 3.79372 4.53192 4.05182C4.27407 4.30991 3.92427 4.45504 3.55943 4.4553ZM2.37093 13.1345H4.74634V5.49852H2.37125L2.37093 13.1345ZM14.8163 -0.5H1.18018C0.528971 -0.5 0 0.0164903 0 0.653943V14.3461C0 14.9835 0.528971 15.5006 1.18018 15.5006H14.8163C15.4691 15.5006 16 14.9835 16 14.3461V0.653943C16.0003 0.0164903 15.4688 -0.5 14.8163 -0.5Z" fill="#068FFF"/>
</g>
<defs>
<clipPath id="clip0_87_1012">
<rect width="16" height="16" fill="white"/>
</clipPath>
</defs>
</svg>
