<svg width="370" height="50" viewBox="0 0 370 50" fill="none" xmlns="http://www.w3.org/2000/svg">
<path d="M1.07889 0.574624H7.54048C12.6183 0.574624 15.6087 3.6002 15.6087 8.97117C15.6087 14.3421 12.6183 17.4967 7.54048 17.4967H1.07889V0.574624ZM4.62045 3.49465V14.565H7.1183C10.2846 14.565 11.9967 12.6417 11.9967 8.9829C11.9967 5.44134 10.2377 3.49465 7.1183 3.49465H4.62045ZM17.5608 17.4967V4.92535H20.9851V17.4967H17.5608ZM19.273 3.54156C18.241 3.54156 17.4436 2.75585 17.4436 1.77078C17.4436 0.773983 18.241 0 19.273 0C20.3049 0 21.1024 0.773983 21.1024 1.77078C21.1024 2.75585 20.3049 3.54156 19.273 3.54156ZM22.9607 8.61936C22.9607 6.22705 25.0364 4.65563 28.2613 4.65563C31.4159 4.65563 33.4681 6.2505 33.515 8.68972H30.3605C30.2901 7.6812 29.481 7.05967 28.2144 7.05967C27.03 7.05967 26.256 7.59911 26.256 8.40827C26.256 9.02981 26.7955 9.45198 27.8978 9.70997L30.3018 10.226C32.8232 10.7889 33.8434 11.7857 33.8434 13.662C33.8434 16.1364 31.5684 17.7664 28.2496 17.7664C24.8957 17.7664 22.8317 16.1481 22.6441 13.6972H25.9863C26.1505 14.7526 26.9831 15.3624 28.3434 15.3624C29.6451 15.3624 30.4308 14.8464 30.4308 14.0255C30.4308 13.3923 30.0087 13.0404 28.8829 12.7707L26.5609 12.2547C24.1803 11.7153 22.9607 10.4722 22.9607 8.61936ZM46.8776 9.60443H43.6996C43.5002 8.27928 42.6207 7.34112 41.2134 7.34112C39.5248 7.34112 38.4693 8.77181 38.4693 11.1993C38.4693 13.6737 39.5248 15.081 41.2252 15.081C42.5972 15.081 43.4885 14.2601 43.6996 12.888H46.8893C46.7134 15.8549 44.497 17.7664 41.19 17.7664C37.4022 17.7664 34.9981 15.3038 34.9981 11.1993C34.9981 7.16521 37.4022 4.65563 41.1665 4.65563C44.5674 4.65563 46.7251 6.75476 46.8776 9.60443ZM54.2125 17.7664C50.4129 17.7664 47.9854 15.3272 47.9854 11.1993C47.9854 7.13003 50.4481 4.65563 54.2125 4.65563C57.9768 4.65563 60.4395 7.1183 60.4395 11.1993C60.4395 15.3389 58.012 17.7664 54.2125 17.7664ZM54.2125 15.1513C55.8894 15.1513 56.9566 13.7323 56.9566 11.211C56.9566 8.71318 55.8777 7.27075 54.2125 7.27075C52.5472 7.27075 51.4566 8.71318 51.4566 11.211C51.4566 13.7323 52.5238 15.1513 54.2125 15.1513ZM73.2978 4.92535L68.9823 17.4967H65.1123L60.7616 4.92535H64.4322L67.0473 14.4711H67.1177L69.7211 4.92535H73.2978ZM79.6828 7.18866C78.1817 7.18866 77.1028 8.32619 76.9856 9.89761H82.3213C82.251 8.291 81.2073 7.18866 79.6828 7.18866ZM82.3683 13.6503H85.5111C85.1358 16.1129 82.8842 17.7664 79.7766 17.7664C75.9067 17.7664 73.5847 15.292 73.5847 11.2697C73.5847 7.25903 75.9301 4.65563 79.6476 4.65563C83.3064 4.65563 85.6166 7.13003 85.6166 10.953V11.9967H76.9504V12.2078C76.9504 14.0021 78.0879 15.2334 79.8352 15.2334C81.09 15.2334 82.0516 14.6119 82.3683 13.6503ZM87.2874 17.4967V4.92535H90.5944V7.18866H90.6647C91.1104 5.59379 92.1775 4.72599 93.6551 4.72599C94.0538 4.72599 94.3939 4.78462 94.6285 4.85499V7.86883C94.347 7.75156 93.8779 7.66947 93.3854 7.66947C91.6967 7.66947 90.7116 8.70145 90.7116 10.4722V17.4967H87.2874ZM101.511 2.02877H104.936V4.92535H107.258V7.50529H104.936V13.5213C104.936 14.4829 105.405 14.9402 106.413 14.9402C106.718 14.9402 107.035 14.9168 107.246 14.8816V17.4029C106.894 17.485 106.308 17.5436 105.616 17.5436C102.661 17.5436 101.511 16.5586 101.511 14.1076V7.50529H99.7407V4.92535H101.511V2.02877ZM109.116 17.4967V0.574624H112.482V7.16521H112.552C113.22 5.58206 114.593 4.69081 116.504 4.69081C119.295 4.69081 120.89 6.49677 120.89 9.40507V17.4967H117.466V10.1321C117.466 8.51382 116.668 7.52875 115.109 7.52875C113.49 7.52875 112.54 8.66627 112.54 10.3198V17.4967H109.116ZM128.624 7.18866C127.122 7.18866 126.044 8.32619 125.926 9.89761H131.262C131.192 8.291 130.148 7.18866 128.624 7.18866ZM131.309 13.6503H134.452C134.077 16.1129 131.825 17.7664 128.717 17.7664C124.847 17.7664 122.525 15.292 122.525 11.2697C122.525 7.25903 124.871 4.65563 128.588 4.65563C132.247 4.65563 134.557 7.13003 134.557 10.953V11.9967H125.891V12.2078C125.891 14.0021 127.029 15.2334 128.776 15.2334C130.031 15.2334 130.992 14.6119 131.309 13.6503ZM144.724 17.4967H141.182V0.574624H152.264V3.49465H144.724V8.03301H151.608V10.8358H144.724V17.4967ZM165.58 4.92535V17.4967H162.273V15.2334H162.203C161.581 16.8165 160.338 17.7313 158.438 17.7313C155.718 17.7313 153.912 15.9605 153.912 13.0287V4.92535H157.336V12.3134C157.336 13.9903 158.169 14.8816 159.681 14.8816C161.206 14.8816 162.156 13.791 162.156 12.1257V4.92535H165.58ZM168.623 2.02877H172.047V4.92535H174.369V7.50529H172.047V13.5213C172.047 14.4829 172.516 14.9402 173.525 14.9402C173.83 14.9402 174.146 14.9168 174.357 14.8816V17.4029C174.006 17.485 173.419 17.5436 172.727 17.5436C169.772 17.5436 168.623 16.5586 168.623 14.1076V7.50529H166.852V4.92535H168.623V2.02877ZM187.755 4.92535V17.4967H184.448V15.2334H184.378C183.756 16.8165 182.513 17.7313 180.613 17.7313C177.893 17.7313 176.087 15.9605 176.087 13.0287V4.92535H179.511V12.3134C179.511 13.9903 180.344 14.8816 181.856 14.8816C183.381 14.8816 184.331 13.791 184.331 12.1257V4.92535H187.755ZM189.883 17.4967V4.92535H193.19V7.18866H193.261C193.706 5.59379 194.773 4.72599 196.251 4.72599C196.65 4.72599 196.99 4.78462 197.224 4.85499V7.86883C196.943 7.75156 196.474 7.66947 195.981 7.66947C194.293 7.66947 193.307 8.70145 193.307 10.4722V17.4967H189.883ZM203.75 7.18866C202.249 7.18866 201.17 8.32619 201.053 9.89761H206.389C206.318 8.291 205.274 7.18866 203.75 7.18866ZM206.435 13.6503H209.578C209.203 16.1129 206.951 17.7664 203.844 17.7664C199.974 17.7664 197.652 15.292 197.652 11.2697C197.652 7.25903 199.997 4.65563 203.715 4.65563C207.374 4.65563 209.684 7.13003 209.684 10.953V11.9967H201.018V12.2078C201.018 14.0021 202.155 15.2334 203.902 15.2334C205.157 15.2334 206.119 14.6119 206.435 13.6503ZM221.785 17.7664C217.986 17.7664 215.558 15.3272 215.558 11.1993C215.558 7.13003 218.021 4.65563 221.785 4.65563C225.55 4.65563 228.012 7.1183 228.012 11.1993C228.012 15.3389 225.585 17.7664 221.785 17.7664ZM221.785 15.1513C223.462 15.1513 224.529 13.7323 224.529 11.211C224.529 8.71318 223.451 7.27075 221.785 7.27075C220.12 7.27075 219.029 8.71318 219.029 11.211C219.029 13.7323 220.097 15.1513 221.785 15.1513ZM230.598 17.4967V7.50529H228.886V4.98398H230.598V4.0341C230.598 1.57142 231.759 0.422173 234.737 0.422173C235.371 0.422173 236.086 0.492535 236.485 0.574624V2.83794C236.239 2.79103 235.898 2.76758 235.558 2.76758C234.433 2.76758 233.94 3.26011 233.94 4.15137V4.98398H236.438V7.50529H234.022V17.4967H230.598ZM250.58 17.7899C245.655 17.7899 242.57 14.4946 242.57 9.02981C242.57 3.57674 245.678 0.281449 250.58 0.281449C254.649 0.281449 257.745 2.86139 258.015 6.64922H254.567C254.239 4.57354 252.644 3.2132 250.58 3.2132C247.906 3.2132 246.182 5.45307 246.182 9.01808C246.182 12.63 247.883 14.8581 250.592 14.8581C252.691 14.8581 254.204 13.6268 254.579 11.6215H258.027C257.628 15.3976 254.731 17.7899 250.58 17.7899ZM264.611 15.2217C266.1 15.2217 267.332 14.2483 267.332 12.888V11.9733L264.681 12.1375C263.403 12.2313 262.676 12.8059 262.676 13.6972C262.676 14.6353 263.45 15.2217 264.611 15.2217ZM263.485 17.6961C261.093 17.6961 259.275 16.1481 259.275 13.8848C259.275 11.598 261.034 10.2729 264.165 10.0852L267.332 9.89761V9.06499C267.332 7.89229 266.511 7.21212 265.221 7.21212C263.942 7.21212 263.133 7.84538 262.969 8.77181H259.838C259.967 6.33259 262.043 4.65563 265.373 4.65563C268.598 4.65563 270.697 6.32086 270.697 8.8539V17.4967H267.39V15.5735H267.32C266.616 16.9104 265.056 17.6961 263.485 17.6961ZM272.814 17.4967V4.92535H276.121V7.18866H276.191C276.637 5.59379 277.704 4.72599 279.181 4.72599C279.58 4.72599 279.92 4.78462 280.155 4.85499V7.86883C279.873 7.75156 279.404 7.66947 278.912 7.66947C277.223 7.66947 276.238 8.70145 276.238 10.4722V17.4967H272.814ZM286.68 7.18866C285.179 7.18866 284.1 8.32619 283.983 9.89761H289.319C289.249 8.291 288.205 7.18866 286.68 7.18866ZM289.366 13.6503H292.509C292.133 16.1129 289.882 17.7664 286.774 17.7664C282.904 17.7664 280.582 15.292 280.582 11.2697C280.582 7.25903 282.928 4.65563 286.645 4.65563C290.304 4.65563 292.614 7.13003 292.614 10.953V11.9967H283.948V12.2078C283.948 14.0021 285.085 15.2334 286.833 15.2334C288.088 15.2334 289.049 14.6119 289.366 13.6503ZM299.926 7.18866C298.425 7.18866 297.346 8.32619 297.228 9.89761H302.564C302.494 8.291 301.45 7.18866 299.926 7.18866ZM302.611 13.6503H305.754C305.379 16.1129 303.127 17.7664 300.019 17.7664C296.15 17.7664 293.828 15.292 293.828 11.2697C293.828 7.25903 296.173 4.65563 299.89 4.65563C303.549 4.65563 305.859 7.13003 305.859 10.953V11.9967H297.193V12.2078C297.193 14.0021 298.331 15.2334 300.078 15.2334C301.333 15.2334 302.294 14.6119 302.611 13.6503ZM307.53 17.4967V4.92535H310.837V7.18866H310.908C311.353 5.59379 312.42 4.72599 313.898 4.72599C314.297 4.72599 314.637 4.78462 314.871 4.85499V7.86883C314.59 7.75156 314.121 7.66947 313.628 7.66947C311.94 7.66947 310.955 8.70145 310.955 10.4722V17.4967H307.53ZM12.1609 49.5193L10.8709 45.4148H4.92535L3.63538 49.5193H0L5.87524 32.5972H10.0383L15.9253 49.5193H12.1609ZM7.8571 35.8339L5.68761 42.7645H10.1087L7.93919 35.8339H7.8571ZM21.4659 49.7187C18.3231 49.7187 16.3412 47.2325 16.3412 43.2102C16.3412 39.223 18.3348 36.7486 21.4894 36.7486C23.3071 36.7486 24.7143 37.7102 25.3241 39.1057H25.3945V32.5972H28.8188V49.5193H25.4414V47.3615H25.3827C24.7729 48.7453 23.3188 49.7187 21.4659 49.7187ZM22.6269 39.4927C20.903 39.4927 19.8476 40.9351 19.8476 43.2336C19.8476 45.5438 20.903 46.9628 22.6269 46.9628C24.3273 46.9628 25.4179 45.5321 25.4179 43.2336C25.4179 40.9469 24.3273 39.4927 22.6269 39.4927ZM42.4979 36.9479L38.1824 49.5193H34.3125L29.9618 36.9479H33.6323L36.2474 46.4937H36.3178L38.9212 36.9479H42.4979ZM48.1441 47.2443C49.6334 47.2443 50.8648 46.2709 50.8648 44.9106V43.9959L48.2145 44.1601C46.9362 44.2539 46.2092 44.8285 46.2092 45.7197C46.2092 46.6579 46.9831 47.2443 48.1441 47.2443ZM47.0183 49.7187C44.626 49.7187 42.8083 48.1707 42.8083 45.9074C42.8083 43.6206 44.5674 42.2955 47.6985 42.1078L50.8648 41.9202V41.0876C50.8648 39.9149 50.0439 39.2347 48.7539 39.2347C47.4757 39.2347 46.6665 39.868 46.5023 40.7944H43.3712C43.5002 38.3552 45.5759 36.6782 48.9064 36.6782C52.1313 36.6782 54.2304 38.3435 54.2304 40.8765V49.5193H50.9234V47.5961H50.8531C50.1494 48.933 48.5897 49.7187 47.0183 49.7187ZM56.3468 49.5193V36.9479H59.6538V39.1878H59.7242C60.3926 37.6281 61.7178 36.7134 63.6527 36.7134C66.4437 36.7134 68.0152 38.4724 68.0152 41.4159V49.5193H64.5909V42.1313C64.5909 40.4895 63.8169 39.5513 62.2806 39.5513C60.7444 39.5513 59.7711 40.6771 59.7711 42.3072V49.5193H56.3468ZM81.5067 41.627H78.3287C78.1293 40.3019 77.2498 39.3637 75.8426 39.3637C74.1539 39.3637 73.0984 40.7944 73.0984 43.2219C73.0984 45.6963 74.1539 47.1035 75.8543 47.1035C77.2263 47.1035 78.1176 46.2826 78.3287 44.9106H81.5184C81.3425 47.8775 79.1261 49.789 75.8191 49.789C72.0313 49.789 69.6272 47.3264 69.6272 43.2219C69.6272 39.1878 72.0313 36.6782 75.7957 36.6782C79.1965 36.6782 81.3543 38.7774 81.5067 41.627ZM88.7126 39.2113C87.2115 39.2113 86.1326 40.3488 86.0154 41.9202H91.3512C91.2808 40.3136 90.2371 39.2113 88.7126 39.2113ZM91.3981 45.6728H94.5409C94.1656 48.1355 91.9141 49.789 88.8064 49.789C84.9365 49.789 82.6145 47.3146 82.6145 43.2923C82.6145 39.2816 84.9599 36.6782 88.6774 36.6782C92.3362 36.6782 94.6464 39.1526 94.6464 42.9756V44.0193H85.9802V44.2304C85.9802 46.0247 87.1177 47.256 88.865 47.256C90.1198 47.256 91.0814 46.6345 91.3981 45.6728ZM96.3172 49.5193V36.9479H99.6242V39.223H99.6945C100.222 37.7102 101.571 36.7134 103.283 36.7134C105.101 36.7134 106.367 37.6516 106.789 39.2933H106.86C107.423 37.7102 108.924 36.7134 110.765 36.7134C113.228 36.7134 114.881 38.4021 114.881 40.9351V49.5193H111.457V41.7912C111.457 40.337 110.73 39.5396 109.405 39.5396C108.103 39.5396 107.247 40.4895 107.247 41.885V49.5193H103.951V41.6857C103.951 40.337 103.189 39.5396 101.923 39.5396C100.621 39.5396 99.7415 40.5247 99.7415 41.9319V49.5193H96.3172ZM122.591 39.2113C121.09 39.2113 120.011 40.3488 119.894 41.9202H125.23C125.159 40.3136 124.116 39.2113 122.591 39.2113ZM125.277 45.6728H128.419C128.044 48.1355 125.793 49.789 122.685 49.789C118.815 49.789 116.493 47.3146 116.493 43.2923C116.493 39.2816 118.839 36.6782 122.556 36.6782C126.215 36.6782 128.525 39.1526 128.525 42.9756V44.0193H119.859V44.2304C119.859 46.0247 120.996 47.256 122.744 47.256C123.998 47.256 124.96 46.6345 125.277 45.6728ZM130.196 49.5193V36.9479H133.503V39.1878H133.573C134.242 37.6281 135.567 36.7134 137.502 36.7134C140.293 36.7134 141.864 38.4724 141.864 41.4159V49.5193H138.44V42.1313C138.44 40.4895 137.666 39.5513 136.13 39.5513C134.593 39.5513 133.62 40.6771 133.62 42.3072V49.5193H130.196ZM144.848 34.0514H148.273V36.9479H150.595V39.5279H148.273V45.5438C148.273 46.5055 148.742 46.9628 149.75 46.9628C150.055 46.9628 150.372 46.9394 150.583 46.9042V49.4255C150.231 49.5076 149.645 49.5662 148.953 49.5662C145.998 49.5662 144.848 48.5811 144.848 46.1302V39.5279H143.077V36.9479H144.848V34.0514ZM174.669 36.9479L171.339 49.5193H167.692L165.417 40.6302H165.346L163.083 49.5193H159.483L156.141 36.9479H159.588L161.488 46.2709H161.558L163.787 36.9479H167.07L169.31 46.2709H169.38L171.292 36.9479H174.669ZM175.965 49.5193V36.9479H179.389V49.5193H175.965ZM177.677 35.5641C176.645 35.5641 175.847 34.7784 175.847 33.7934C175.847 32.7966 176.645 32.0226 177.677 32.0226C178.709 32.0226 179.506 32.7966 179.506 33.7934C179.506 34.7784 178.709 35.5641 177.677 35.5641ZM182.49 34.0514H185.915V36.9479H188.237V39.5279H185.915V45.5438C185.915 46.5055 186.384 46.9628 187.392 46.9628C187.697 46.9628 188.014 46.9394 188.225 46.9042V49.4255C187.873 49.5076 187.287 49.5662 186.595 49.5662C183.64 49.5662 182.49 48.5811 182.49 46.1302V39.5279H180.72V36.9479H182.49V34.0514ZM190.095 49.5193V32.5972H193.461V39.1878H193.531C194.199 37.6047 195.572 36.7134 197.483 36.7134C200.274 36.7134 201.869 38.5194 201.869 41.4277V49.5193H198.445V42.1547C198.445 40.5364 197.647 39.5513 196.088 39.5513C194.469 39.5513 193.519 40.6889 193.519 42.3424V49.5193H190.095Z" fill="white"/>
<path d="M212.458 35.3648V40.7592H215.507C217.289 40.7592 218.333 39.739 218.333 38.062C218.333 36.4202 217.231 35.3648 215.472 35.3648H212.458ZM212.458 43.3274V49.5193H208.916V32.5972H215.847C219.74 32.5972 221.968 34.6494 221.968 37.9916C221.968 40.1611 220.842 42.0375 218.896 42.7997L222.461 49.5193H218.45L215.296 43.3274H212.458ZM229.432 39.2113C227.931 39.2113 226.852 40.3488 226.735 41.9202H232.071C232 40.3136 230.957 39.2113 229.432 39.2113ZM232.118 45.6728H235.26C234.885 48.1355 232.634 49.789 229.526 49.789C225.656 49.789 223.334 47.3146 223.334 43.2923C223.334 39.2816 225.679 36.6782 229.397 36.6782C233.056 36.6782 235.366 39.1526 235.366 42.9756V44.0193H226.7V44.2304C226.7 46.0247 227.837 47.256 229.585 47.256C230.839 47.256 231.801 46.6345 232.118 45.6728ZM236.826 40.6419C236.826 38.2496 238.901 36.6782 242.126 36.6782C245.281 36.6782 247.333 38.2731 247.38 40.7123H244.225C244.155 39.7038 243.346 39.0823 242.079 39.0823C240.895 39.0823 240.121 39.6217 240.121 40.4309C240.121 41.0524 240.66 41.4746 241.763 41.7326L244.167 42.2486C246.688 42.8114 247.708 43.8082 247.708 45.6846C247.708 48.159 245.433 49.789 242.115 49.789C238.761 49.789 236.697 48.1707 236.509 45.7197H239.851C240.015 46.7752 240.848 47.385 242.208 47.385C243.51 47.385 244.296 46.869 244.296 46.0481C244.296 45.4148 243.874 45.063 242.748 44.7933L240.426 44.2773C238.045 43.7379 236.826 42.4948 236.826 40.6419ZM260.93 36.9479V49.5193H257.623V47.256H257.553C256.931 48.8391 255.688 49.7538 253.788 49.7538C251.068 49.7538 249.262 47.9831 249.262 45.0513V36.9479H252.686V44.336C252.686 46.0129 253.519 46.9042 255.031 46.9042C256.556 46.9042 257.506 45.8136 257.506 44.1483V36.9479H260.93ZM263.058 49.5193V36.9479H266.365V39.223H266.436C266.963 37.7102 268.312 36.7134 270.024 36.7134C271.842 36.7134 273.108 37.6516 273.53 39.2933H273.601C274.164 37.7102 275.665 36.7134 277.506 36.7134C279.969 36.7134 281.622 38.4021 281.622 40.9351V49.5193H278.198V41.7912C278.198 40.337 277.471 39.5396 276.146 39.5396C274.844 39.5396 273.988 40.4895 273.988 41.885V49.5193H270.692V41.6857C270.692 40.337 269.93 39.5396 268.664 39.5396C267.362 39.5396 266.482 40.5247 266.482 41.9319V49.5193H263.058ZM289.332 39.2113C287.831 39.2113 286.752 40.3488 286.635 41.9202H291.971C291.9 40.3136 290.857 39.2113 289.332 39.2113ZM292.018 45.6728H295.161C294.785 48.1355 292.534 49.789 289.426 49.789C285.556 49.789 283.234 47.3146 283.234 43.2923C283.234 39.2816 285.58 36.6782 289.297 36.6782C292.956 36.6782 295.266 39.1526 295.266 42.9756V44.0193H286.6V44.2304C286.6 46.0247 287.737 47.256 289.485 47.256C290.739 47.256 291.701 46.6345 292.018 45.6728ZM306.307 37.9565L303.093 49.5193H299.751L295.272 32.5972H298.942L301.604 44.8519H301.698L304.864 32.5972H307.855L311.021 44.8519H311.115L313.789 32.5972H317.459L312.968 49.5193H309.625L306.412 37.9565H306.307ZM319.036 49.5193V36.9479H322.46V49.5193H319.036ZM320.748 35.5641C319.716 35.5641 318.919 34.7784 318.919 33.7934C318.919 32.7966 319.716 32.0226 320.748 32.0226C321.78 32.0226 322.578 32.7966 322.578 33.7934C322.578 34.7784 321.78 35.5641 320.748 35.5641ZM324.412 49.5193V47.5726L330.675 39.6334V39.5631H324.506V36.9479H334.65V39.1174L328.763 46.8338V46.8925H334.791V49.5193H324.412ZM341.551 47.2443C343.04 47.2443 344.272 46.2709 344.272 44.9106V43.9959L341.621 44.1601C340.343 44.2539 339.616 44.8285 339.616 45.7197C339.616 46.6579 340.39 47.2443 341.551 47.2443ZM340.425 49.7187C338.033 49.7187 336.215 48.1707 336.215 45.9074C336.215 43.6206 337.974 42.2955 341.105 42.1078L344.272 41.9202V41.0876C344.272 39.9149 343.451 39.2347 342.161 39.2347C340.883 39.2347 340.073 39.868 339.909 40.7944H336.778C336.907 38.3552 338.983 36.6782 342.313 36.6782C345.538 36.6782 347.637 38.3435 347.637 40.8765V49.5193H344.33V47.5961H344.26C343.556 48.933 341.997 49.7187 340.425 49.7187ZM349.754 49.5193V36.9479H353.061V39.2113H353.131C353.577 37.6164 354.644 36.7486 356.121 36.7486C356.52 36.7486 356.86 36.8072 357.095 36.8776V39.8914C356.813 39.7741 356.344 39.6921 355.852 39.6921C354.163 39.6921 353.178 40.724 353.178 42.4948V49.5193H349.754ZM362.647 49.7187C359.504 49.7187 357.523 47.2325 357.523 43.2102C357.523 39.223 359.516 36.7486 362.671 36.7486C364.488 36.7486 365.896 37.7102 366.505 39.1057H366.576V32.5972H370V49.5193H366.623V47.3615H366.564C365.954 48.7453 364.5 49.7187 362.647 49.7187ZM363.808 39.4927C362.084 39.4927 361.029 40.9351 361.029 43.2336C361.029 45.5438 362.084 46.9628 363.808 46.9628C365.509 46.9628 366.599 45.5321 366.599 43.2336C366.599 40.9469 365.509 39.4927 363.808 39.4927Z" fill="url(#paint0_linear_87_855)"/>
<defs>
<linearGradient id="paint0_linear_87_855" x1="222.329" y1="-5.51952" x2="222.329" y2="58.5257" gradientUnits="userSpaceOnUse">
<stop offset="0.749162" stop-color="#068FFF"/>
<stop offset="1" stop-color="white"/>
</linearGradient>
</defs>
</svg>
