<svg width="385" height="274" viewBox="0 0 385 274" fill="none" xmlns="http://www.w3.org/2000/svg">
<path d="M358.436 4.82411H292.073C290.45 4.82411 289.135 6.13948 289.135 7.76207V46.8978C289.135 48.5204 290.45 49.8358 292.073 49.8358H358.436C360.058 49.8358 361.374 48.5204 361.374 46.8978V7.76207C361.374 6.13948 360.058 4.82411 358.436 4.82411Z" fill="#F4F4F4"/>
<path d="M358.436 4.82411L292.071 4.82411C291.295 4.82402 290.549 5.13148 289.999 5.67929C289.448 6.2271 289.137 6.97067 289.133 7.74745L325.252 32.3972L361.372 7.74745C361.368 6.97113 361.057 6.22789 360.507 5.68013C359.957 5.13237 359.212 4.82462 358.436 4.82411Z" fill="#292A2E"/>
<path d="M381.291 182.456H297.518C295.47 182.456 293.81 184.117 293.81 186.165V235.568C293.81 237.616 295.47 239.276 297.518 239.276H381.291C383.34 239.276 385 237.616 385 235.568V186.165C385 184.117 383.34 182.456 381.291 182.456Z" fill="#F4F4F4"/>
<path d="M381.293 182.456L297.518 182.456C296.538 182.456 295.597 182.844 294.902 183.535C294.207 184.227 293.814 185.165 293.809 186.146L339.404 217.262L384.998 186.146C384.993 185.166 384.601 184.228 383.906 183.537C383.212 182.845 382.272 182.457 381.293 182.456Z" fill="#292A2E"/>
<path d="M97.9747 75.7496H32.5399C30.9401 75.7496 29.6432 77.0465 29.6432 78.6463V117.234C29.6432 118.834 30.9401 120.131 32.5399 120.131H97.9747C99.5745 120.131 100.871 118.834 100.871 117.234V78.6463C100.871 77.0465 99.5745 75.7496 97.9747 75.7496Z" fill="#F4F4F4"/>
<path d="M97.9747 75.7496H32.5399C31.774 75.7495 31.0395 76.0527 30.4965 76.5928C29.9535 77.1329 29.6464 77.8661 29.6425 78.632L65.2565 102.938L100.871 78.633C100.867 77.8671 100.56 77.1339 100.018 76.5935C99.475 76.0532 98.7405 75.7498 97.9747 75.7496Z" fill="#292A2E"/>
<path d="M97.5341 102.787C96.6923 102.394 95.8589 101.988 95.058 101.58C94.9539 101.527 94.833 101.518 94.7219 101.554C94.6108 101.59 94.5186 101.669 94.4656 101.773C94.4126 101.877 94.4031 101.998 94.4392 102.109C94.4753 102.22 94.5541 102.312 94.6582 102.365C95.4679 102.778 96.31 103.188 97.1609 103.586C97.2665 103.633 97.3862 103.636 97.4944 103.596C97.6026 103.555 97.6905 103.474 97.7394 103.369C97.7882 103.265 97.7941 103.145 97.7556 103.036C97.7172 102.927 97.6378 102.838 97.5341 102.787Z" fill="#292A2E"/>
<path d="M110.411 107.683L110.348 107.664C109.483 107.399 108.62 107.124 107.783 106.845C107.672 106.808 107.551 106.817 107.447 106.869C107.342 106.921 107.263 107.013 107.226 107.124C107.189 107.235 107.198 107.356 107.25 107.46C107.303 107.565 107.394 107.644 107.505 107.681C108.35 107.962 109.219 108.239 110.087 108.505L110.156 108.526L110.177 108.532C110.289 108.561 110.408 108.545 110.508 108.487C110.608 108.429 110.681 108.334 110.712 108.223C110.743 108.111 110.729 107.992 110.672 107.891C110.616 107.79 110.522 107.715 110.411 107.683Z" fill="#292A2E"/>
<path d="M91.4271 99.6108C90.6275 99.1483 89.8344 98.6682 89.0716 98.1869C89.0227 98.1542 88.9677 98.1316 88.9099 98.1204C88.8521 98.1093 88.7927 98.1099 88.7351 98.1221C88.6776 98.1343 88.623 98.1579 88.5747 98.1915C88.5264 98.2251 88.4854 98.2681 88.4539 98.3178C88.4225 98.3676 88.4014 98.4231 88.3918 98.4812C88.3821 98.5392 88.3842 98.5986 88.3979 98.6558C88.4116 98.7131 88.4366 98.767 88.4715 98.8144C88.5064 98.8618 88.5504 98.9017 88.6009 98.9318C89.3739 99.4194 90.1764 99.9069 90.9857 100.374C91.0215 100.394 91.0598 100.41 91.0998 100.42C91.2028 100.445 91.3116 100.433 91.4061 100.385C91.5007 100.336 91.5747 100.256 91.6145 100.157C91.6543 100.059 91.6572 99.9495 91.6228 99.8491C91.5884 99.7487 91.5189 99.6641 91.4271 99.6108Z" fill="#292A2E"/>
<path d="M117.049 109.652C116.152 109.392 115.266 109.133 114.39 108.876C114.334 108.858 114.276 108.852 114.218 108.857C114.16 108.863 114.104 108.88 114.053 108.908C114.002 108.936 113.957 108.974 113.92 109.019C113.884 109.065 113.858 109.117 113.842 109.173C113.809 109.285 113.822 109.406 113.878 109.509C113.934 109.611 114.028 109.687 114.14 109.721C115.017 109.979 115.905 110.238 116.804 110.498L116.82 110.502C116.931 110.529 117.049 110.511 117.148 110.452C117.246 110.393 117.318 110.299 117.348 110.188C117.377 110.077 117.362 109.959 117.306 109.859C117.25 109.759 117.157 109.684 117.047 109.652H117.049Z" fill="#292A2E"/>
<path d="M85.6545 95.8752C84.9069 95.3341 84.1717 94.7747 83.4658 94.2114C83.3744 94.1386 83.2579 94.105 83.1418 94.1181C83.0257 94.1312 82.9196 94.1898 82.8467 94.2811C82.7739 94.3725 82.7403 94.489 82.7534 94.6051C82.7665 94.7212 82.8251 94.8273 82.9164 94.9002C83.6331 95.4719 84.3791 96.0397 85.1374 96.5887C85.183 96.6217 85.2346 96.6457 85.2892 96.6596C85.3884 96.6842 85.4932 96.6736 85.5854 96.6295C85.6777 96.5854 85.7518 96.5106 85.795 96.4179C85.8381 96.3252 85.8478 96.2204 85.8221 96.1214C85.7965 96.0224 85.7372 95.9354 85.6545 95.8752Z" fill="#292A2E"/>
<path d="M103.884 105.46C103.025 105.135 102.162 104.795 101.319 104.448C101.266 104.426 101.209 104.415 101.151 104.415C101.093 104.415 101.036 104.427 100.982 104.449C100.929 104.471 100.88 104.504 100.84 104.545C100.799 104.586 100.766 104.634 100.744 104.688C100.722 104.741 100.711 104.799 100.711 104.857C100.711 104.914 100.723 104.972 100.745 105.025C100.768 105.078 100.8 105.127 100.841 105.168C100.882 105.208 100.931 105.241 100.984 105.263C101.835 105.613 102.707 105.957 103.573 106.284C103.589 106.291 103.605 106.296 103.622 106.3C103.731 106.327 103.846 106.311 103.944 106.256C104.042 106.201 104.115 106.111 104.148 106.004C104.182 105.896 104.173 105.781 104.124 105.68C104.075 105.579 103.989 105.5 103.884 105.46Z" fill="#292A2E"/>
<path d="M80.3425 91.5253C79.6681 90.8987 79.0099 90.2522 78.3826 89.6038C78.3424 89.5621 78.2944 89.5288 78.2413 89.5058C78.1883 89.4827 78.1312 89.4703 78.0734 89.4693C78.0155 89.4683 77.958 89.4787 77.9042 89.4999C77.8504 89.5211 77.8013 89.5527 77.7596 89.5929C77.718 89.6331 77.6847 89.681 77.6617 89.7341C77.6386 89.7871 77.6262 89.8442 77.6252 89.9021C77.6242 89.9599 77.6346 90.0174 77.6558 90.0712C77.677 90.125 77.7086 90.1742 77.7487 90.2158C78.3855 90.8756 79.0567 91.5335 79.7428 92.1709C79.7852 92.2102 79.8349 92.2409 79.8892 92.261C79.9434 92.2812 80.001 92.2905 80.0589 92.2883C80.1167 92.2862 80.1735 92.2727 80.2261 92.2486C80.2787 92.2245 80.326 92.1903 80.3654 92.1479C80.4048 92.1055 80.4354 92.0558 80.4556 92.0016C80.4757 91.9474 80.485 91.8897 80.4829 91.8319C80.4808 91.7741 80.4673 91.7173 80.4432 91.6647C80.4191 91.6121 80.3849 91.5647 80.3425 91.5253Z" fill="#292A2E"/>
<path d="M80.3162 37.4833C80.9728 36.8618 81.6605 36.244 82.3597 35.6472C82.4037 35.6096 82.4398 35.5638 82.4661 35.5122C82.4924 35.4607 82.5083 35.4045 82.5128 35.3468C82.5174 35.2891 82.5106 35.2311 82.4927 35.1761C82.4748 35.121 82.4463 35.0701 82.4087 35.0261C82.3712 34.9821 82.3253 34.9459 82.2738 34.9196C82.2222 34.8933 82.166 34.8774 82.1083 34.8729C82.0507 34.8683 81.9927 34.8752 81.9376 34.893C81.8826 34.9109 81.8316 34.9394 81.7876 34.977C81.0771 35.5835 80.3783 36.2121 79.7103 36.8436C79.6683 36.8834 79.6346 36.9311 79.611 36.9839C79.5874 37.0367 79.5745 37.0937 79.5729 37.1515C79.5713 37.2094 79.5812 37.2669 79.6019 37.3209C79.6225 37.375 79.6536 37.4244 79.6934 37.4664C79.7332 37.5084 79.7809 37.5422 79.8337 37.5657C79.8865 37.5893 79.9435 37.6023 80.0013 37.6038C80.0591 37.6054 80.1167 37.5956 80.1707 37.5749C80.2248 37.5542 80.2742 37.5231 80.3162 37.4833Z" fill="#292A2E"/>
<path d="M68.5582 54.7539C68.5686 54.7574 68.579 54.7604 68.5907 54.763C68.6985 54.7899 68.8126 54.775 68.9099 54.7212C69.0072 54.6675 69.0806 54.579 69.1153 54.4734C69.3971 53.6189 69.7189 52.7565 70.0722 51.9108C70.1173 51.8031 70.1177 51.6818 70.0734 51.5737C70.0291 51.4657 69.9436 51.3796 69.8359 51.3345C69.7281 51.2894 69.6069 51.289 69.4988 51.3333C69.3907 51.3776 69.3047 51.4631 69.2596 51.5708C68.8975 52.4377 68.5676 53.3215 68.2786 54.1977C68.242 54.3086 68.2509 54.4294 68.3033 54.5336C68.3558 54.6379 68.4474 54.7171 68.5582 54.7539Z" fill="#292A2E"/>
<path d="M67.6526 61.1352C67.7524 60.2397 67.8928 59.3323 68.07 58.4374C68.0812 58.3807 68.0812 58.3223 68.0698 58.2656C68.0585 58.2088 68.0361 58.1549 68.004 58.1068C67.9718 58.0587 67.9304 58.0174 67.8823 57.9853C67.8342 57.9532 67.7802 57.9309 67.7235 57.9197C67.6667 57.9084 67.6083 57.9085 67.5516 57.9198C67.4949 57.9311 67.4409 57.9535 67.3928 57.9857C67.3447 58.0178 67.3035 58.0592 67.2714 58.1073C67.2393 58.1554 67.2169 58.2094 67.2057 58.2662C67.0237 59.186 66.8807 60.1188 66.777 61.0383C66.7652 61.1442 66.7921 61.2508 66.8528 61.3383C66.9136 61.4259 67.0039 61.4885 67.1072 61.5145C67.1265 61.5195 67.1462 61.523 67.1661 61.5249C67.2236 61.5314 67.2819 61.5264 67.3375 61.5103C67.3931 61.4942 67.445 61.4673 67.4902 61.4311C67.5354 61.3949 67.5731 61.3501 67.6009 61.2993C67.6288 61.2486 67.6464 61.1928 67.6526 61.1352Z" fill="#292A2E"/>
<path d="M73.143 45.2594C73.045 45.196 72.9258 45.1741 72.8116 45.1985C72.6974 45.2229 72.5976 45.2915 72.5339 45.3894C72.0233 46.1782 71.5384 46.9856 71.0924 47.7901C71.0359 47.8923 71.0222 48.0128 71.0545 48.1251C71.0867 48.2375 71.1622 48.3324 71.2644 48.3891C71.2981 48.4075 71.3341 48.4217 71.3713 48.4314C71.4655 48.4547 71.5647 48.4464 71.6537 48.4077C71.7426 48.369 71.8164 48.302 71.8634 48.2172C72.2993 47.4303 72.7735 46.6401 73.2731 45.8681C73.3364 45.7701 73.3583 45.651 73.3339 45.5369C73.3095 45.4228 73.2409 45.323 73.143 45.2594Z" fill="#292A2E"/>
<path d="M67.4625 65.2244C67.458 65.1092 67.4086 65.0002 67.3247 64.921C67.2409 64.8417 67.1293 64.7986 67.0139 64.8007C66.8986 64.8028 66.7887 64.8501 66.7078 64.9323C66.6269 65.0146 66.5815 65.1253 66.5813 65.2407C66.5985 66.1716 66.6574 67.1142 66.7555 68.0428C66.7616 68.1003 66.779 68.1561 66.8066 68.2069C66.8342 68.2577 66.8716 68.3025 66.9166 68.3389C66.9615 68.3753 67.0132 68.4024 67.0687 68.4188C67.1242 68.4352 67.1823 68.4405 67.2398 68.4344C67.2974 68.4284 67.3531 68.411 67.4039 68.3834C67.4547 68.3557 67.4996 68.3184 67.536 68.2734C67.5723 68.2284 67.5995 68.1768 67.6159 68.1213C67.6323 68.0658 67.6376 68.0077 67.6315 67.9502C67.5363 67.0469 67.4791 66.13 67.4625 65.2244Z" fill="#292A2E"/>
<path d="M75.0552 42.6019C75.1041 42.6412 75.1608 42.6693 75.2216 42.6845C75.3038 42.705 75.3901 42.7014 75.4703 42.6741C75.5505 42.6469 75.6211 42.5971 75.6738 42.5307C76.2331 41.8264 76.8283 41.1204 77.4432 40.433C77.5175 40.3453 77.5546 40.2322 77.5466 40.1176C77.5387 40.003 77.4863 39.8961 77.4007 39.8195C77.3151 39.743 77.203 39.7029 77.0882 39.7077C76.9735 39.7126 76.8652 39.7621 76.7863 39.8456C76.16 40.5461 75.5535 41.265 74.9837 41.9834C74.9477 42.0287 74.921 42.0806 74.9052 42.1362C74.8893 42.1918 74.8845 42.25 74.8912 42.3075C74.8978 42.3649 74.9157 42.4205 74.9439 42.471C74.972 42.5216 75.0099 42.566 75.0552 42.6019Z" fill="#292A2E"/>
<path d="M70.572 78.4269C70.5228 78.3209 70.4336 78.2388 70.3239 78.1986C70.2141 78.1585 70.093 78.1635 69.987 78.2127C69.881 78.2619 69.7989 78.3512 69.7587 78.4609C69.7185 78.5706 69.7236 78.6918 69.7728 78.7978C70.1609 79.6328 70.5899 80.4717 71.0482 81.2921C71.1067 81.3912 71.2017 81.4634 71.3129 81.4934C71.424 81.5234 71.5425 81.5087 71.6429 81.4525C71.7434 81.3963 71.8178 81.303 71.8504 81.1926C71.883 81.0822 71.8711 80.9635 71.8172 80.8617C71.3697 80.0612 70.9523 79.2427 70.572 78.4269Z" fill="#292A2E"/>
<path d="M87.9619 30.892C87.8967 30.795 87.7957 30.7278 87.6811 30.7053C87.5665 30.6827 87.4475 30.7066 87.3505 30.7717C86.5734 31.2918 85.8056 31.8326 85.0681 32.3761C85.0216 32.4104 84.9822 32.4536 84.9523 32.5031C84.9224 32.5526 84.9026 32.6075 84.8939 32.6647C84.8853 32.7219 84.8879 32.7803 84.9018 32.8364C84.9157 32.8926 84.9405 32.9454 84.9748 32.992C85.0092 33.0386 85.0523 33.0779 85.1019 33.1078C85.1514 33.1377 85.2063 33.1576 85.2635 33.1662C85.3207 33.1749 85.379 33.1722 85.4352 33.1583C85.4913 33.1444 85.5442 33.1196 85.5908 33.0853C86.3179 32.5496 87.0752 32.0172 87.8413 31.503C87.9383 31.438 88.0055 31.3371 88.0281 31.2225C88.0508 31.1079 88.0269 30.989 87.9619 30.892Z" fill="#292A2E"/>
<path d="M75.6585 86.5215C75.0819 85.8064 74.5264 85.0705 74.008 84.3347C73.9753 84.2858 73.9332 84.2439 73.8841 84.2116C73.835 84.1793 73.7799 84.1571 73.7221 84.1463C73.6643 84.1356 73.6049 84.1365 73.5475 84.1491C73.4901 84.1616 73.4357 84.1855 73.3877 84.2194C73.3396 84.2533 73.2988 84.2964 73.2677 84.3463C73.2366 84.3962 73.2157 84.4518 73.2064 84.5098C73.1971 84.5679 73.1995 84.6272 73.2135 84.6843C73.2274 84.7414 73.2527 84.7952 73.2877 84.8424C73.8168 85.5935 74.3837 86.3447 74.973 87.075C75.0086 87.1219 75.0533 87.1612 75.1044 87.1906C75.1555 87.2199 75.2119 87.2387 75.2704 87.2459C75.3289 87.253 75.3882 87.2483 75.4448 87.2321C75.5015 87.216 75.5543 87.1886 75.6002 87.1516C75.646 87.1146 75.684 87.0688 75.7119 87.0169C75.7397 86.965 75.7569 86.908 75.7623 86.8494C75.7678 86.7907 75.7614 86.7315 75.7435 86.6754C75.7257 86.6192 75.6968 86.5662 75.6585 86.5215Z" fill="#292A2E"/>
<path d="M68.3229 71.9864C68.2958 71.8727 68.2247 71.7745 68.1252 71.7133C68.0257 71.652 67.9059 71.6328 67.7923 71.6599C67.6786 71.687 67.5803 71.7581 67.5191 71.8576C67.4579 71.9571 67.4387 72.0769 67.4658 72.1905C67.6806 73.0928 67.937 74.0006 68.228 74.8883C68.2643 74.9993 68.3433 75.0913 68.4476 75.1441C68.5518 75.1969 68.6727 75.2061 68.7838 75.1698C68.8948 75.1334 68.9868 75.0544 69.0396 74.9502C69.0924 74.8459 69.1016 74.725 69.0652 74.614C68.7818 73.7497 68.5322 72.865 68.3229 71.9864Z" fill="#292A2E"/>
<path d="M93.9249 27.3748C93.8699 27.2718 93.7762 27.1948 93.6644 27.1607C93.5527 27.1267 93.4319 27.1385 93.3288 27.1935C92.5068 27.6319 91.6877 28.0892 90.895 28.5524C90.8451 28.5816 90.8013 28.6204 90.7664 28.6664C90.7314 28.7125 90.7059 28.765 90.6912 28.821C90.6765 28.877 90.673 28.9353 90.6809 28.9926C90.6888 29.0499 90.7078 29.1051 90.737 29.155C90.7662 29.205 90.805 29.2487 90.8511 29.2836C90.8971 29.3186 90.9497 29.3441 91.0056 29.3588C91.0616 29.3735 91.1199 29.377 91.1772 29.3691C91.2345 29.3613 91.2897 29.3422 91.3396 29.313C92.1226 28.8557 92.9323 28.4029 93.7449 27.9709C93.8477 27.9157 93.9244 27.8219 93.9582 27.7101C93.992 27.5984 93.98 27.4778 93.9249 27.3748Z" fill="#292A2E"/>
<path d="M98.3785 24.7323C97.949 24.9234 97.5235 25.1169 97.1018 25.3128C97.0493 25.3372 97.0021 25.3716 96.963 25.4142C96.9238 25.4568 96.8934 25.5067 96.8735 25.561C96.8536 25.6153 96.8446 25.673 96.847 25.7308C96.8495 25.7886 96.8632 25.8454 96.8876 25.8979C96.9119 25.9504 96.9464 25.9975 96.989 26.0367C97.0315 26.0759 97.0814 26.1063 97.1358 26.1261C97.1901 26.146 97.2478 26.155 97.3056 26.1526C97.3634 26.1502 97.4202 26.1364 97.4726 26.1121C97.8904 25.917 98.3118 25.7255 98.7367 25.5374C98.8393 25.4874 98.9185 25.3995 98.9576 25.2922C98.9967 25.185 98.9927 25.0667 98.9463 24.9624C98.9 24.858 98.815 24.7758 98.7092 24.7328C98.6034 24.6899 98.4844 24.6897 98.3785 24.7323Z" fill="#292A2E"/>
<path d="M293.121 256.437C292.254 256.605 291.77 256.68 291.765 256.681C291.708 256.69 291.653 256.71 291.604 256.741C291.555 256.771 291.512 256.81 291.477 256.857C291.409 256.951 291.38 257.069 291.398 257.185C291.416 257.3 291.479 257.404 291.573 257.472C291.668 257.541 291.786 257.57 291.901 257.552C291.921 257.549 292.404 257.473 293.289 257.301C293.346 257.291 293.401 257.269 293.45 257.237C293.499 257.206 293.541 257.165 293.574 257.117C293.607 257.068 293.63 257.014 293.642 256.957C293.654 256.9 293.654 256.841 293.643 256.784C293.632 256.727 293.609 256.672 293.577 256.624C293.545 256.575 293.503 256.534 293.454 256.501C293.406 256.469 293.351 256.447 293.294 256.435C293.237 256.424 293.178 256.425 293.121 256.437Z" fill="#292A2E"/>
<path d="M359.19 195.82C359.115 196.733 359.019 197.653 358.903 198.555C358.89 198.662 358.916 198.771 358.976 198.86C359.037 198.949 359.128 199.012 359.233 199.039C359.25 199.043 359.267 199.046 359.284 199.048C359.342 199.056 359.4 199.052 359.456 199.036C359.512 199.021 359.564 198.995 359.61 198.96C359.656 198.924 359.694 198.88 359.723 198.83C359.752 198.78 359.77 198.725 359.777 198.667C359.895 197.752 359.992 196.818 360.07 195.892C360.074 195.779 360.035 195.668 359.959 195.584C359.884 195.499 359.779 195.446 359.666 195.437C359.553 195.428 359.441 195.462 359.352 195.533C359.264 195.605 359.207 195.707 359.192 195.82H359.19Z" fill="#292A2E"/>
<path d="M359.4 191.698C359.398 191.797 359.43 191.895 359.491 191.974C359.551 192.053 359.637 192.109 359.733 192.134C359.765 192.142 359.798 192.146 359.831 192.147C359.889 192.148 359.946 192.138 360 192.117C360.054 192.095 360.103 192.064 360.145 192.024C360.187 191.984 360.22 191.936 360.243 191.883C360.266 191.83 360.279 191.773 360.28 191.715C360.298 190.8 360.297 189.862 360.278 188.927C360.275 188.81 360.227 188.699 360.142 188.618C360.058 188.538 359.945 188.493 359.828 188.496C359.712 188.498 359.601 188.547 359.52 188.631C359.439 188.715 359.395 188.828 359.397 188.945C359.418 189.868 359.418 190.794 359.4 191.698Z" fill="#292A2E"/>
<path d="M358.701 178.339C358.771 178.357 358.846 178.357 358.916 178.339C358.987 178.321 359.052 178.285 359.106 178.236C359.159 178.186 359.2 178.124 359.224 178.056C359.248 177.987 359.254 177.913 359.242 177.841C359.094 176.932 358.929 176.01 358.752 175.1C358.729 174.987 358.662 174.887 358.565 174.823C358.469 174.759 358.351 174.735 358.237 174.757C358.123 174.779 358.023 174.845 357.958 174.941C357.892 175.037 357.867 175.154 357.888 175.268C358.063 176.169 358.226 177.083 358.372 177.982C358.386 178.068 358.425 178.147 358.483 178.21C358.541 178.273 358.617 178.318 358.701 178.339Z" fill="#292A2E"/>
<path d="M342.573 232.277C342.533 232.235 342.485 232.202 342.431 232.18C342.378 232.157 342.321 232.145 342.263 232.144C342.205 232.144 342.148 232.155 342.094 232.176C342.041 232.198 341.992 232.23 341.95 232.271C341.3 232.91 340.625 233.546 339.948 234.16C339.861 234.238 339.809 234.348 339.804 234.465C339.798 234.582 339.839 234.696 339.917 234.782C339.996 234.869 340.105 234.921 340.222 234.926C340.339 234.932 340.453 234.891 340.54 234.813C341.225 234.191 341.908 233.547 342.567 232.9C342.609 232.859 342.642 232.811 342.664 232.758C342.687 232.704 342.699 232.647 342.699 232.589C342.7 232.531 342.689 232.474 342.667 232.421C342.646 232.367 342.614 232.318 342.573 232.277Z" fill="#292A2E"/>
<path d="M331.26 240.928C330.504 241.436 329.726 241.941 328.946 242.428C328.847 242.491 328.777 242.589 328.751 242.703C328.724 242.817 328.744 242.937 328.807 243.036C328.869 243.135 328.968 243.206 329.081 243.232C329.195 243.258 329.315 243.238 329.414 243.176C330.201 242.683 330.988 242.173 331.751 241.66C331.799 241.628 331.841 241.586 331.873 241.538C331.905 241.49 331.927 241.436 331.938 241.379C331.949 241.322 331.949 241.264 331.938 241.207C331.926 241.15 331.904 241.097 331.871 241.049C331.839 241.001 331.798 240.959 331.75 240.927C331.701 240.895 331.647 240.873 331.591 240.862C331.534 240.851 331.476 240.851 331.419 240.862C331.362 240.874 331.308 240.896 331.26 240.928Z" fill="#292A2E"/>
<path d="M357.011 171.227C357.023 171.284 357.047 171.339 357.08 171.387C357.114 171.435 357.157 171.476 357.207 171.507C357.256 171.539 357.312 171.56 357.37 171.569C357.428 171.579 357.487 171.577 357.544 171.563C357.601 171.55 357.655 171.525 357.703 171.49C357.75 171.455 357.79 171.411 357.82 171.361C357.85 171.31 357.87 171.254 357.878 171.196C357.887 171.138 357.883 171.079 357.868 171.022C357.654 170.13 357.424 169.223 357.185 168.324C357.155 168.212 357.081 168.116 356.98 168.058C356.879 168 356.759 167.984 356.647 168.015C356.534 168.045 356.438 168.118 356.38 168.219C356.321 168.319 356.305 168.439 356.334 168.552C356.571 169.442 356.799 170.342 357.011 171.227Z" fill="#292A2E"/>
<path d="M351.457 155.656C351.424 155.608 351.383 155.567 351.335 155.535C351.287 155.502 351.233 155.48 351.176 155.469C351.119 155.458 351.061 155.458 351.004 155.47C350.947 155.481 350.893 155.504 350.845 155.536C350.797 155.568 350.756 155.609 350.724 155.658C350.692 155.706 350.67 155.76 350.659 155.817C350.648 155.873 350.648 155.932 350.659 155.989C350.671 156.045 350.693 156.099 350.725 156.147C351.238 156.911 351.727 157.691 352.179 158.467C352.208 158.518 352.246 158.563 352.292 158.6C352.338 158.636 352.391 158.662 352.448 158.678C352.504 158.694 352.563 158.698 352.621 158.69C352.679 158.683 352.735 158.663 352.786 158.634C352.837 158.604 352.881 158.565 352.916 158.518C352.952 158.471 352.977 158.418 352.991 158.361C353.006 158.304 353.009 158.245 353 158.187C352.991 158.129 352.971 158.074 352.94 158.024C352.479 157.231 351.98 156.435 351.457 155.656Z" fill="#292A2E"/>
<path d="M337.427 236.91C337.353 236.819 337.247 236.762 337.131 236.75C337.015 236.737 336.898 236.772 336.808 236.845C336.102 237.415 335.371 237.983 334.632 238.535C334.542 238.607 334.484 238.71 334.469 238.824C334.454 238.938 334.484 239.053 334.553 239.145C334.622 239.237 334.724 239.298 334.838 239.316C334.951 239.334 335.067 239.307 335.161 239.241C335.908 238.681 336.647 238.106 337.361 237.53C337.406 237.494 337.444 237.449 337.471 237.398C337.499 237.347 337.516 237.291 337.522 237.234C337.529 237.176 337.523 237.118 337.507 237.062C337.491 237.007 337.463 236.955 337.427 236.91Z" fill="#292A2E"/>
<path d="M354.863 161.741C354.815 161.635 354.727 161.552 354.617 161.511C354.508 161.47 354.387 161.474 354.28 161.522C354.174 161.57 354.091 161.659 354.05 161.768C354.009 161.877 354.013 161.999 354.061 162.105C354.438 162.936 354.79 163.787 355.105 164.636C355.148 164.743 355.231 164.828 355.336 164.875C355.441 164.921 355.56 164.925 355.668 164.885C355.775 164.844 355.863 164.764 355.912 164.66C355.962 164.556 355.968 164.438 355.931 164.329C355.608 163.461 355.249 162.59 354.863 161.741Z" fill="#292A2E"/>
<path d="M357.053 208.987C356.998 208.969 356.941 208.962 356.883 208.966C356.825 208.97 356.769 208.986 356.717 209.012C356.666 209.038 356.62 209.074 356.582 209.118C356.544 209.162 356.515 209.212 356.497 209.267C356.211 210.136 355.9 211.005 355.573 211.853C355.531 211.962 355.534 212.083 355.581 212.19C355.628 212.297 355.716 212.38 355.825 212.423C355.842 212.429 355.86 212.434 355.877 212.439C355.982 212.465 356.092 212.452 356.187 212.402C356.282 212.353 356.356 212.27 356.395 212.17C356.727 211.309 357.043 210.425 357.334 209.543C357.352 209.488 357.359 209.43 357.355 209.372C357.351 209.315 357.335 209.259 357.309 209.207C357.283 209.155 357.247 209.109 357.203 209.071C357.159 209.034 357.108 209.005 357.053 208.987Z" fill="#292A2E"/>
<path d="M359.105 202.798C359.118 202.741 359.119 202.682 359.108 202.625C359.098 202.568 359.075 202.513 359.043 202.465C359.011 202.416 358.969 202.375 358.92 202.343C358.871 202.311 358.816 202.29 358.759 202.28C358.645 202.257 358.526 202.281 358.429 202.346C358.332 202.411 358.264 202.511 358.241 202.626C358.063 203.525 357.86 204.428 357.641 205.309C357.626 205.365 357.622 205.424 357.63 205.482C357.638 205.54 357.657 205.596 357.687 205.646C357.716 205.696 357.756 205.74 357.803 205.775C357.849 205.81 357.903 205.836 357.96 205.85C358.016 205.864 358.075 205.867 358.133 205.858C358.191 205.849 358.246 205.829 358.296 205.798C358.346 205.768 358.389 205.727 358.423 205.68C358.458 205.632 358.482 205.579 358.495 205.522C358.719 204.627 358.924 203.711 359.105 202.798Z" fill="#292A2E"/>
<path d="M354.534 215.427C354.482 215.402 354.425 215.388 354.367 215.385C354.309 215.381 354.251 215.39 354.197 215.409C354.142 215.429 354.092 215.459 354.049 215.497C354.006 215.536 353.971 215.583 353.947 215.635C353.557 216.456 353.139 217.281 352.706 218.085C352.678 218.136 352.661 218.192 352.655 218.25C352.65 218.307 352.655 218.365 352.672 218.421C352.688 218.476 352.716 218.528 352.752 218.573C352.789 218.617 352.834 218.655 352.885 218.682C352.936 218.709 352.992 218.727 353.049 218.732C353.107 218.738 353.165 218.733 353.22 218.716C353.276 218.699 353.327 218.672 353.372 218.635C353.417 218.599 353.454 218.554 353.482 218.503C353.922 217.685 354.346 216.848 354.743 216.014C354.793 215.908 354.799 215.787 354.76 215.677C354.721 215.567 354.639 215.477 354.534 215.427Z" fill="#292A2E"/>
<path d="M359.528 185.213C359.596 185.23 359.667 185.23 359.734 185.215C359.802 185.199 359.866 185.167 359.919 185.122C359.972 185.077 360.014 185.02 360.041 184.956C360.068 184.892 360.079 184.822 360.074 184.752C360.004 183.84 359.916 182.906 359.812 181.979C359.797 181.864 359.738 181.76 359.647 181.688C359.556 181.617 359.441 181.584 359.326 181.597C359.211 181.61 359.106 181.667 359.033 181.757C358.96 181.846 358.925 181.961 358.936 182.076C359.039 182.994 359.127 183.916 359.196 184.819C359.203 184.911 359.239 184.999 359.299 185.07C359.358 185.14 359.438 185.191 359.528 185.213Z" fill="#292A2E"/>
<path d="M347.208 227.135C347.163 227.098 347.112 227.071 347.057 227.054C347.001 227.038 346.943 227.032 346.885 227.038C346.828 227.043 346.772 227.061 346.721 227.088C346.67 227.115 346.625 227.152 346.588 227.197C346.013 227.901 345.411 228.604 344.801 229.286C344.762 229.33 344.732 229.38 344.713 229.434C344.694 229.489 344.686 229.547 344.689 229.605C344.692 229.662 344.707 229.719 344.732 229.771C344.757 229.823 344.792 229.87 344.835 229.909C344.878 229.947 344.929 229.977 344.983 229.996C345.038 230.015 345.096 230.023 345.153 230.02C345.211 230.017 345.268 230.002 345.32 229.977C345.372 229.952 345.419 229.917 345.457 229.874C346.077 229.181 346.687 228.469 347.271 227.755C347.308 227.71 347.335 227.658 347.352 227.603C347.368 227.548 347.374 227.489 347.368 227.432C347.362 227.374 347.345 227.319 347.318 227.268C347.29 227.217 347.253 227.172 347.208 227.135Z" fill="#292A2E"/>
<path d="M351.227 221.503C351.178 221.472 351.124 221.451 351.067 221.44C351.01 221.43 350.952 221.432 350.895 221.444C350.838 221.457 350.785 221.48 350.738 221.513C350.69 221.547 350.65 221.589 350.619 221.638C350.131 222.402 349.616 223.169 349.086 223.918C349.051 223.965 349.026 224.019 349.013 224.076C348.999 224.132 348.997 224.191 349.006 224.249C349.016 224.307 349.036 224.362 349.067 224.412C349.098 224.462 349.139 224.505 349.187 224.538C349.234 224.572 349.288 224.596 349.345 224.609C349.403 224.622 349.462 224.623 349.519 224.612C349.577 224.602 349.632 224.58 349.681 224.549C349.73 224.517 349.772 224.476 349.805 224.427C350.343 223.666 350.867 222.887 351.362 222.111C351.425 222.013 351.446 221.893 351.42 221.779C351.395 221.665 351.326 221.566 351.227 221.503Z" fill="#292A2E"/>
<path d="M299.84 254.862C298.945 255.103 298.043 255.334 297.161 255.548C297.105 255.562 297.052 255.587 297.005 255.621C296.958 255.655 296.919 255.698 296.889 255.747C296.858 255.797 296.838 255.852 296.83 255.909C296.821 255.966 296.823 256.024 296.837 256.08C296.85 256.137 296.875 256.19 296.909 256.236C296.943 256.283 296.986 256.323 297.036 256.353C297.085 256.383 297.14 256.403 297.197 256.412C297.254 256.421 297.313 256.418 297.369 256.405C298.258 256.189 299.167 255.956 300.069 255.713C300.125 255.698 300.177 255.672 300.223 255.637C300.269 255.601 300.307 255.557 300.336 255.507C300.365 255.457 300.384 255.402 300.391 255.344C300.399 255.287 300.395 255.229 300.38 255.173C300.365 255.117 300.339 255.065 300.303 255.019C300.268 254.973 300.224 254.935 300.174 254.906C300.124 254.877 300.069 254.858 300.011 254.851C299.954 254.843 299.896 254.847 299.84 254.862Z" fill="#292A2E"/>
<path d="M332.906 139.418C333.007 139.444 333.114 139.432 333.208 139.386C333.301 139.34 333.375 139.262 333.417 139.166C333.458 139.071 333.465 138.964 333.435 138.864C333.404 138.764 333.34 138.678 333.253 138.621C332.486 138.125 331.693 137.627 330.894 137.142C330.794 137.081 330.674 137.062 330.561 137.09C330.447 137.118 330.349 137.19 330.289 137.289C330.228 137.389 330.209 137.509 330.237 137.623C330.265 137.736 330.337 137.834 330.437 137.895C331.228 138.376 332.015 138.87 332.774 139.361C332.814 139.387 332.859 139.407 332.906 139.418Z" fill="#292A2E"/>
<path d="M306.454 252.868C305.587 253.157 304.702 253.441 303.821 253.713C303.766 253.73 303.714 253.758 303.67 253.795C303.625 253.832 303.589 253.877 303.561 253.928C303.534 253.98 303.518 254.036 303.512 254.093C303.507 254.151 303.513 254.209 303.53 254.264C303.547 254.319 303.575 254.371 303.612 254.415C303.649 254.46 303.694 254.497 303.745 254.524C303.797 254.551 303.852 254.567 303.91 254.573C303.968 254.578 304.026 254.572 304.081 254.555C304.968 254.282 305.86 253.996 306.733 253.705C306.844 253.668 306.935 253.588 306.988 253.484C307.04 253.379 307.048 253.258 307.011 253.148C306.974 253.037 306.895 252.945 306.79 252.893C306.686 252.841 306.565 252.832 306.454 252.869L306.454 252.868Z" fill="#292A2E"/>
<path d="M319.265 247.723C318.44 248.116 317.596 248.505 316.757 248.878C316.654 248.928 316.575 249.016 316.536 249.123C316.497 249.23 316.501 249.348 316.547 249.453C316.593 249.557 316.678 249.639 316.784 249.682C316.89 249.725 317.008 249.725 317.114 249.683C317.959 249.306 318.811 248.914 319.643 248.518C319.749 248.468 319.83 248.378 319.869 248.268C319.908 248.157 319.902 248.036 319.852 247.931C319.801 247.825 319.711 247.744 319.601 247.705C319.491 247.666 319.371 247.672 319.265 247.723Z" fill="#292A2E"/>
<path d="M325.389 244.544C324.598 244.991 323.783 245.437 322.967 245.867C322.864 245.921 322.786 246.014 322.752 246.126C322.717 246.238 322.728 246.359 322.783 246.462C322.837 246.566 322.931 246.643 323.042 246.678C323.154 246.712 323.275 246.701 323.378 246.647C324.201 246.213 325.024 245.764 325.823 245.312C325.925 245.255 325.999 245.159 326.031 245.047C326.062 244.934 326.047 244.814 325.99 244.712C325.932 244.61 325.837 244.536 325.724 244.504C325.612 244.473 325.491 244.487 325.389 244.544Z" fill="#292A2E"/>
<path d="M348.517 152.992C348.607 153.015 348.701 153.009 348.787 152.974C348.873 152.94 348.946 152.88 348.996 152.802C349.045 152.724 349.069 152.633 349.064 152.541C349.059 152.449 349.025 152.36 348.967 152.288C348.393 151.578 347.782 150.864 347.152 150.167C347.072 150.084 346.964 150.035 346.849 150.031C346.734 150.026 346.622 150.067 346.537 150.144C346.452 150.221 346.4 150.328 346.393 150.443C346.385 150.557 346.423 150.67 346.498 150.758C347.117 151.443 347.718 152.145 348.282 152.842C348.342 152.917 348.425 152.97 348.517 152.992Z" fill="#292A2E"/>
<path d="M312.939 250.49C312.096 250.828 311.229 251.163 310.362 251.487C310.255 251.53 310.17 251.613 310.123 251.718C310.077 251.823 310.073 251.942 310.114 252.05C310.154 252.158 310.234 252.246 310.338 252.295C310.442 252.344 310.561 252.35 310.67 252.313C311.544 251.988 312.418 251.648 313.267 251.308C313.322 251.287 313.372 251.256 313.415 251.215C313.458 251.175 313.492 251.127 313.516 251.073C313.54 251.019 313.553 250.961 313.554 250.902C313.555 250.843 313.544 250.785 313.522 250.73C313.5 250.676 313.467 250.626 313.426 250.584C313.385 250.543 313.335 250.51 313.281 250.487C313.227 250.465 313.168 250.453 313.109 250.454C313.051 250.454 312.993 250.467 312.939 250.49Z" fill="#292A2E"/>
<path d="M343.82 147.916C343.914 147.941 344.014 147.933 344.104 147.894C344.194 147.855 344.268 147.787 344.315 147.702C344.362 147.616 344.379 147.518 344.364 147.421C344.349 147.325 344.302 147.236 344.231 147.169C343.572 146.54 342.879 145.908 342.171 145.289C342.083 145.212 341.968 145.173 341.852 145.181C341.735 145.189 341.626 145.243 341.55 145.331C341.473 145.419 341.434 145.534 341.442 145.65C341.45 145.767 341.504 145.876 341.592 145.953C342.29 146.563 342.973 147.186 343.623 147.805C343.678 147.859 343.746 147.897 343.82 147.916Z" fill="#292A2E"/>
<path d="M338.563 143.413C338.661 143.438 338.765 143.427 338.857 143.385C338.948 143.342 339.022 143.269 339.066 143.178C339.11 143.087 339.122 142.984 339.099 142.885C339.076 142.787 339.02 142.699 338.94 142.637C338.22 142.08 337.468 141.52 336.705 140.973C336.658 140.936 336.605 140.909 336.547 140.893C336.49 140.878 336.43 140.874 336.371 140.882C336.312 140.89 336.255 140.91 336.204 140.941C336.153 140.972 336.109 141.013 336.074 141.061C336.039 141.11 336.015 141.165 336.002 141.223C335.989 141.281 335.988 141.341 335.999 141.4C336.01 141.458 336.032 141.514 336.065 141.563C336.099 141.613 336.141 141.655 336.191 141.688C336.946 142.229 337.69 142.783 338.401 143.333C338.449 143.371 338.504 143.398 338.563 143.413Z" fill="#292A2E"/>
<path d="M96.6718 13.3617L96.8853 27.5695L149.17 0.378319L96.6718 13.3617Z" fill="#0CBC8B"/>
<path d="M96.6718 13.3617L96.8853 27.5695L149.17 0.378319L96.6718 13.3617Z" fill="#0A0A0A"/>
<path d="M99.3868 17.5582L96.8853 27.5695L136.888 5.98219L99.3868 17.5582Z" fill="#0CBC8B"/>
<path d="M99.3868 17.5582L96.8853 27.5695L136.888 5.98219L99.3868 17.5582Z" fill="#0A0A0A"/>
<path d="M91.7999 5.68058L149.17 0.378319L108.9 34.8258L99.3868 17.5582L149.17 0.378319L96.6718 13.3617L91.7999 5.68058Z" fill="#0CBC8B"/>
<path d="M88.3936 116.025L213.899 195.881L339.404 116.025L213.856 0L88.3936 116.025Z" fill="#292A2E"/>
<path d="M315.083 16.9462H112.715V238.12H315.083V16.9462Z" fill="white"/>
<path d="M315.409 238.445H112.39V16.6211H315.409V238.445ZM113.04 237.795H314.759V17.2712H113.04L113.04 237.795Z" fill="#292A2E"/>
<path d="M173.706 36.7799H132.189V78.2969H173.706V36.7799Z" fill="white"/>
<path d="M174.031 78.6219H131.863V36.4546H174.031V78.6219ZM132.514 77.9719H173.381V37.1046H132.513L132.514 77.9719Z" fill="#292A2E"/>
<path d="M296.384 94.5706H132.189V95.2207H296.384V94.5706Z" fill="#292A2E"/>
<path d="M296.384 110.146H132.189V110.796H296.384V110.146Z" fill="#292A2E"/>
<path d="M296.384 125.721H132.189V126.371H296.384V125.721Z" fill="#292A2E"/>
<path d="M296.384 141.297H132.189V141.947H296.384V141.297Z" fill="#292A2E"/>
<path d="M296.384 156.872H132.189V157.522H296.384V156.872Z" fill="#292A2E"/>
<path d="M296.384 172.448H132.189V173.098H296.384V172.448Z" fill="#292A2E"/>
<path d="M339.404 272.427H88.3936L88.3936 116.025L213.899 192.63L339.404 116.025L339.404 272.427Z" fill="#367CFF"/>
<path d="M339.404 272.427H88.3936L88.3936 116.025L213.899 192.63L339.404 116.025L339.404 272.427Z" fill="white"/>
<path d="M21.7653 267.015L21.0626 271.468C20.9865 271.951 20.7418 272.39 20.3722 272.709C20.0025 273.028 19.5318 273.206 19.0435 273.211L1.14371 273.384C0.886606 273.387 0.636329 273.301 0.433987 273.143C0.231645 272.984 0.0892717 272.761 0.0302544 272.511C-0.0287628 272.261 -0.000914513 271.998 0.109225 271.766C0.219364 271.533 0.405245 271.345 0.636332 271.233L11.3829 265.997L21.7653 267.015Z" fill="#E98862"/>
<path d="M42.7036 244.318C42.7036 244.318 42.5826 270.586 61.5921 273.018L79.4887 256.639L90.5843 234.507L49.0534 239.09L42.7036 244.318Z" fill="#262626"/>
<path d="M42.1916 242.887L42.1351 242.902C42.1351 242.902 41.9501 241.788 42.1916 242.887Z" fill="#333333"/>
<path d="M114.212 166.806C114.208 166.795 114.196 166.789 114.189 166.78L114.369 166.418C114.495 166.175 114.533 165.896 114.477 165.629C114.42 165.362 114.274 165.122 114.061 164.95C113.926 164.845 113.768 164.772 113.601 164.735C113.434 164.698 113.26 164.699 113.093 164.737C112.926 164.776 112.77 164.851 112.635 164.957C112.501 165.063 112.392 165.197 112.315 165.351L111.901 166.187C111.897 166.184 111.896 166.178 111.891 166.176C111.887 166.173 111.879 166.176 111.873 166.176C111.935 165.921 111.908 165.653 111.798 165.415C111.687 165.178 111.499 164.985 111.264 164.868C110.679 164.527 110.003 165.019 109.736 165.559L107.242 170.376L107.316 168.816C107.336 168.513 107.241 168.213 107.049 167.977C106.857 167.741 106.582 167.586 106.281 167.545C106.124 167.529 105.966 167.545 105.816 167.592C105.667 167.639 105.528 167.717 105.409 167.819C105.29 167.922 105.193 168.047 105.124 168.189C105.055 168.33 105.015 168.484 105.008 168.641L104.602 177.161C104.554 178.16 104.898 179.139 105.561 179.889C106.223 180.639 107.152 181.101 108.15 181.177C109.307 181.265 110.464 181.006 111.473 180.432C112.482 179.859 113.296 178.997 113.812 177.957C113.812 177.957 114.575 166.363 114.212 166.806Z" fill="#E98862"/>
<path d="M107.004 152.786L104.736 153.17C103.87 153.316 103.287 154.137 103.433 155.003L106.665 174.102C106.812 174.968 107.632 175.552 108.498 175.405L110.766 175.021C111.632 174.875 112.216 174.054 112.069 173.188L108.837 154.089C108.691 153.223 107.87 152.639 107.004 152.786Z" fill="#292A2E"/>
<path d="M100.771 144.753L100.078 144.87C95.7858 145.597 92.8948 149.665 93.6211 153.958C94.3475 158.251 98.4162 161.142 102.709 160.415L103.402 160.298C107.694 159.572 110.585 155.503 109.859 151.21C109.133 146.918 105.064 144.027 100.771 144.753Z" fill="#0CBC8B"/>
<path d="M127.235 153.146L125.756 153.856L124.074 143.917L125.653 143.972C125.783 145.387 125.974 146.875 126.234 148.407C126.516 150.072 126.855 151.665 127.235 153.146Z" fill="#367CFF"/>
<path d="M131.61 147.499C131.94 149.45 131.801 151.101 131.299 151.186C131.24 151.19 131.181 151.181 131.126 151.158C131.071 151.136 131.022 151.101 130.984 151.056C130.543 150.652 130.057 149.37 129.793 147.808C129.548 146.357 129.562 145.073 129.793 144.474C129.873 144.268 129.977 144.143 130.106 144.122C130.605 144.035 131.28 145.547 131.61 147.499Z" fill="#367CFF"/>
<path d="M126.24 148.439C126.238 148.428 126.237 148.418 126.235 148.407C125.163 142.069 126.014 135.202 127.019 132.589C123.082 136.578 117.353 140.647 111.971 142.299C109.801 142.965 107.144 143.572 103.109 144.249L105.775 160.006C109.808 159.319 112.516 159.018 114.785 158.933C120.408 158.722 127.158 160.679 132.187 163.153C130.378 161.015 127.315 154.809 126.243 148.473L126.24 148.439Z" fill="#0CBC8B"/>
<path d="M108.393 142.509L100.043 143.922C99.728 143.975 99.516 144.274 99.5693 144.589L102.31 160.786C102.363 161.101 102.662 161.313 102.977 161.26L111.327 159.847C111.642 159.794 111.854 159.495 111.801 159.18L109.06 142.983C109.007 142.668 108.708 142.456 108.393 142.509Z" fill="#292A2E"/>
<path d="M108.393 142.509L100.043 143.922C99.728 143.975 99.516 144.274 99.5693 144.589L102.31 160.786C102.363 161.101 102.662 161.313 102.977 161.26L111.327 159.847C111.642 159.794 111.854 159.495 111.801 159.18L109.06 142.983C109.007 142.668 108.708 142.456 108.393 142.509Z" fill="white"/>
<path d="M134.176 147.063C135.618 155.586 135.007 162.794 132.815 163.165C132.379 163.239 131.913 163.037 131.438 162.597C131.435 162.597 131.435 162.595 131.432 162.597C129.507 160.829 127.388 155.232 126.232 148.408C125.159 142.07 125.222 136.463 126.227 133.849C126.572 132.949 127.029 132.404 127.592 132.309C129.786 131.936 132.734 138.542 134.176 147.063Z" fill="#0CBC8B"/>
<path d="M134.176 147.063C135.618 155.586 135.007 162.794 132.815 163.165C132.379 163.239 131.913 163.037 131.438 162.597C131.435 162.597 131.435 162.595 131.432 162.597C129.507 160.829 127.388 155.232 126.232 148.408C125.159 142.07 125.222 136.463 126.227 133.849C126.572 132.949 127.029 132.404 127.592 132.309C129.786 131.936 132.734 138.542 134.176 147.063Z" fill="#0C0C0C"/>
<path d="M130.105 144.129L131.3 151.194L127.235 153.145C126.855 151.663 126.516 150.071 126.234 148.406C125.974 146.874 125.782 145.386 125.653 143.971L130.105 144.129Z" fill="white"/>
<path d="M131.61 147.499C131.94 149.45 131.801 151.101 131.299 151.186C131.24 151.19 131.181 151.181 131.126 151.158C131.071 151.136 131.022 151.101 130.984 151.056C130.543 150.652 130.057 149.37 129.793 147.808C129.548 146.357 129.562 145.073 129.793 144.474C129.873 144.268 129.977 144.143 130.106 144.122C130.605 144.035 131.28 145.547 131.61 147.499Z" fill="white"/>
<path d="M107.737 169.848C107.832 169.629 107.994 169.445 108.198 169.322C108.403 169.199 108.641 169.142 108.879 169.159C108.877 169.145 108.877 169.131 108.881 169.117C108.885 169.103 108.893 169.09 108.903 169.08C108.913 169.07 108.925 169.062 108.939 169.058C108.953 169.053 108.967 169.052 108.981 169.055L108.151 168.526C107.903 168.376 107.718 168.141 107.629 167.865C107.541 167.589 107.556 167.29 107.671 167.024C107.793 166.765 108.007 166.56 108.271 166.45C108.535 166.34 108.831 166.331 109.101 166.427C109.098 166.415 109.106 166.404 109.107 166.392L108.765 166.175C108.532 166.033 108.356 165.814 108.265 165.556C108.175 165.299 108.176 165.017 108.269 164.761C108.331 164.601 108.427 164.456 108.552 164.338C108.676 164.22 108.824 164.131 108.987 164.078C109.15 164.024 109.323 164.007 109.493 164.028C109.663 164.049 109.826 164.108 109.97 164.2L110.758 164.7C110.76 164.696 110.758 164.691 110.76 164.686C110.762 164.682 110.771 164.68 110.775 164.675C110.59 164.489 110.474 164.246 110.446 163.986C110.418 163.725 110.479 163.463 110.619 163.241C110.944 162.647 111.776 162.718 112.285 163.042L113.81 164.186C114.045 164.363 114.233 164.595 114.357 164.861C114.48 165.128 114.536 165.421 114.52 165.715C114.376 168.257 113.841 174.886 112.216 173.853L108.216 171.309C107.983 171.155 107.809 170.927 107.722 170.662C107.635 170.397 107.64 170.11 107.737 169.848Z" fill="#E98862"/>
<path d="M101.531 174.841L96.2295 203.529L82.6776 182.643L72.3244 194.806L93.9172 224.3L94.1005 224.471C95.2122 225.482 96.5631 226.194 98.0257 226.538C99.4884 226.883 101.015 226.85 102.461 226.441C103.907 226.033 105.226 225.263 106.292 224.204C107.359 223.146 108.138 221.833 108.557 220.39L117.45 177.395L101.531 174.841Z" fill="#068FFF"/>
<path d="M95.4942 206.351C95.4795 206.351 95.4648 206.349 95.4507 206.345C95.4093 206.334 95.3741 206.306 95.3529 206.269C95.3317 206.231 95.3262 206.187 95.3376 206.146L96.0728 203.486C96.0842 203.445 96.1118 203.409 96.1492 203.388C96.1867 203.367 96.2311 203.361 96.2727 203.373C96.3142 203.384 96.3495 203.412 96.3708 203.449C96.3921 203.487 96.3976 203.531 96.3861 203.573L95.6506 206.232C95.6412 206.266 95.6208 206.296 95.5926 206.318C95.5643 206.339 95.5298 206.351 95.4942 206.351Z" fill="#0C0C0C"/>
<path d="M36.6291 158.801C36.6291 158.801 36.8078 166.482 35.3397 169.407C31.1123 177.827 30.4873 186.926 35.8597 191.169C41.2322 195.411 72.8272 192.631 74.2495 181.635C75.4469 172.377 71.0359 171.791 69.3091 164.398C68.529 161.053 66.5788 154.067 66.5788 154.067" fill="#0A0A0A"/>
<path d="M66.9737 179.222C66.9187 179.226 68.3469 189.223 56.6988 190.713C48.6347 191.746 44.0762 183.9 43.8925 183.937C44.7116 183.58 46.0615 182.967 46.4382 182.739C47.8634 181.877 48.9549 180.794 48.8603 178.283C48.806 176.836 46.9426 169.756 46.7756 168.314L59.524 168.537C59.9666 171.563 60.1951 178.741 64.6253 179.113C65.3638 179.172 66.151 179.206 66.9737 179.222Z" fill="#E98862"/>
<path d="M61.401 176.82C61.0841 176.244 60.8311 175.635 60.6467 175.003C60.2125 173.565 59.9369 172.084 59.8246 170.586C57.2784 170.76 54.7345 170.216 52.4819 169.017C52.4269 169.899 51.9293 173.807 52.438 174.531C53.3975 175.898 56.9631 177.73 61.401 176.82Z" fill="#0C0C0C"/>
<path d="M58.7803 174.796C53.9373 175.708 47.4367 174.323 45.5424 167.934L43.8318 162.168C41.9362 155.779 43.7554 149.604 49.7714 147.819C55.7874 146.034 61.8206 149.88 63.7153 156.27L64.4726 158.822C65.201 161.273 67.4229 173.167 58.7803 174.796Z" fill="#E98862"/>
<path d="M59.8019 165.565L59.8136 165.562C60.0572 165.488 60.2964 165.401 60.5303 165.3C60.879 165.147 61.3321 164.907 61.2372 164.588C61.1296 164.224 58.9669 160.59 58.7205 160.179C58.699 160.142 58.6639 160.116 58.6232 160.106C58.5824 160.096 58.5393 160.102 58.5032 160.124C58.4671 160.145 58.4411 160.18 58.4308 160.221C58.4206 160.262 58.4269 160.305 58.4484 160.341C59.3706 161.888 60.8612 164.433 60.9336 164.678C60.9047 164.798 60.3284 165.079 59.7235 165.259C59.685 165.271 59.6527 165.298 59.6331 165.333C59.6135 165.368 59.6082 165.41 59.6182 165.449C59.6282 165.488 59.6527 165.522 59.6869 165.544C59.721 165.565 59.7622 165.573 59.8019 165.565Z" fill="#0C0C0C"/>
<path d="M59.1794 168.47C60.1669 168.239 61.086 167.778 61.8629 167.126C61.8791 167.113 61.8925 167.097 61.9025 167.079C61.9124 167.06 61.9187 167.04 61.9209 167.02C61.9231 166.999 61.9212 166.978 61.9153 166.958C61.9094 166.938 61.8997 166.92 61.8866 166.903C61.8736 166.887 61.8574 166.874 61.8392 166.864C61.8209 166.854 61.8009 166.848 61.7802 166.845C61.7595 166.843 61.7386 166.845 61.7187 166.851C61.6987 166.857 61.6802 166.867 61.664 166.88C59.9777 168.24 58.2027 168.612 56.5311 167.958C56.4972 167.944 56.4626 167.931 56.4274 167.921C56.3867 167.911 56.3435 167.917 56.3075 167.939C56.2715 167.96 56.2455 167.995 56.2353 168.036C56.2251 168.077 56.2315 168.12 56.253 168.156C56.2746 168.192 56.3096 168.218 56.3504 168.228C56.3634 168.232 56.3851 168.241 56.4154 168.253C57.2945 168.599 58.257 168.675 59.1794 168.47Z" fill="#0C0C0C"/>
<path d="M39.1318 164.716L44.5273 163.149C48.5203 161.04 49.0452 153.703 49.0452 153.703C49.0452 153.703 54.604 158.118 66.5788 154.067C66.5788 154.067 62.3813 137.222 44.7769 144.035C39.1006 146.232 35.508 152.543 36.8302 160.354C37.7598 165.828 39.1318 164.716 39.1318 164.716Z" fill="#0A0A0A"/>
<path d="M46.4934 169.769C44.6651 170.312 42.6028 168.794 42.0603 166.967C41.5179 165.14 42.701 163.691 44.5306 163.149L45.8359 164.094L48.0666 169.303L46.4934 169.769Z" fill="#E98862"/>
<path d="M59.5269 156.949C60.0349 156.542 60.6429 156.28 61.2872 156.189C61.6042 156.143 61.9263 156.144 62.2428 156.193C62.5558 156.241 62.8615 156.327 63.1529 156.451C63.1938 156.466 63.2271 156.497 63.2454 156.537C63.2638 156.576 63.2657 156.622 63.2508 156.663C63.2359 156.704 63.2054 156.737 63.166 156.756C63.1265 156.774 63.0813 156.777 63.0401 156.762L63.0278 156.758C62.7596 156.658 62.4801 156.593 62.1957 156.563C61.9144 156.532 61.63 156.544 61.3522 156.598C60.8009 156.701 60.2866 156.947 59.8613 157.313L59.8477 157.325C59.8235 157.348 59.795 157.366 59.7638 157.378C59.7326 157.39 59.6993 157.395 59.666 157.394C59.6327 157.393 59.5999 157.385 59.5698 157.37C59.5396 157.356 59.5126 157.336 59.4904 157.311C59.4682 157.286 59.4512 157.257 59.4405 157.226C59.4298 157.194 59.4255 157.161 59.428 157.127C59.4304 157.094 59.4396 157.062 59.4548 157.032C59.4701 157.002 59.4912 156.976 59.5168 156.955L59.5269 156.949Z" fill="#0C0C0C"/>
<path d="M54.9466 158.673C54.3909 158.595 53.8246 158.666 53.3051 158.878C53.0424 158.983 52.7969 159.127 52.5771 159.306C52.3542 159.485 52.1547 159.691 51.9832 159.92L51.9754 159.93C51.9482 159.963 51.9094 159.984 51.867 159.989C51.8247 159.993 51.7821 159.982 51.7482 159.956C51.7142 159.93 51.6915 159.892 51.6848 159.85C51.6781 159.808 51.6879 159.765 51.7122 159.73C51.8902 159.468 52.1007 159.229 52.3385 159.02C52.578 158.807 52.8481 158.632 53.1397 158.499C53.7303 158.227 54.3835 158.118 55.0307 158.184C55.0947 158.193 55.1526 158.227 55.1922 158.278C55.2318 158.329 55.25 158.393 55.2429 158.458C55.2358 158.522 55.204 158.581 55.1542 158.622C55.1044 158.663 55.0405 158.683 54.9761 158.678H54.9657L54.9466 158.673Z" fill="#0C0C0C"/>
<path d="M59.5438 169.927C59.7229 169.887 59.8984 169.833 60.0684 169.764C60.0893 169.758 60.1087 169.747 60.1253 169.733C60.1419 169.718 60.1554 169.701 60.1648 169.681C60.1742 169.661 60.1794 169.64 60.1801 169.618C60.1808 169.596 60.1769 169.574 60.1687 169.554C60.1605 169.533 60.1482 169.515 60.1325 169.499C60.1168 169.484 60.0981 169.472 60.0776 169.465C60.057 169.457 60.0351 169.453 60.0132 169.455C59.9914 169.456 59.9699 169.462 59.9504 169.472C58.9272 169.882 58.2865 169.541 58.2602 169.526C58.2236 169.506 58.1803 169.501 58.1399 169.512C58.0995 169.524 58.0652 169.551 58.0447 169.587C58.0242 169.624 58.0191 169.667 58.0305 169.708C58.0419 169.748 58.0689 169.782 58.1055 169.803C58.5563 170.009 59.0644 170.052 59.5438 169.927Z" fill="#0C0C0C"/>
<path d="M44.5342 163.078L44.464 162.931C51.1798 159.721 48.7778 153.057 48.7528 152.992L48.9049 152.935C48.9306 153.003 51.3829 159.803 44.5342 163.078Z" fill="#0C0C0C"/>
<path d="M54.9066 166.548C55.7022 166.38 56.247 165.77 56.1235 165.186C56 164.603 55.255 164.266 54.4594 164.435C53.6638 164.603 53.119 165.212 53.2425 165.796C53.366 166.38 54.1111 166.716 54.9066 166.548Z" fill="#0C0C0C"/>
<path d="M63.1913 163.426C63.3165 164.008 64.0611 164.344 64.8568 164.177C64.9943 164.148 65.1283 164.104 65.2569 164.047C65.2309 163.342 65.1724 162.666 65.0944 162.042C64.866 162.007 64.633 162.014 64.4073 162.064C63.6129 162.23 63.0681 162.841 63.1913 163.426Z" fill="#0C0C0C"/>
<path d="M62.8692 158.936C63.296 158.936 63.6421 158.59 63.6421 158.163C63.6421 157.736 63.296 157.39 62.8692 157.39C62.4423 157.39 62.0962 157.736 62.0962 158.163C62.0962 158.59 62.4423 158.936 62.8692 158.936Z" fill="#0C0C0C"/>
<path d="M55.2518 161.033C55.6786 161.033 56.0247 160.687 56.0247 160.26C56.0247 159.833 55.6786 159.487 55.2518 159.487C54.8249 159.487 54.4788 159.833 54.4788 160.26C54.4788 160.687 54.8249 161.033 55.2518 161.033Z" fill="#0C0C0C"/>
<path d="M85.6822 198.042C86.1905 202.361 89.8601 229.207 90.5843 234.507L42.7036 244.318C41.4665 239.657 36.0261 219.284 33.1106 210.272C30.3283 201.672 27.6988 197.297 28.3726 193.123C29.1595 188.251 35.5925 186.3 39.7607 184.842C42.306 183.951 46.1915 182.891 46.1915 182.891C46.1915 182.891 47.907 189.567 55.9333 188.314C66.8593 186.607 64.573 179.125 64.6266 179.114C66.3798 178.756 75.1251 178.16 77.873 179.11C85.3597 181.694 84.6057 188.888 85.6822 198.042Z" fill="#068FFF"/>
<path d="M86.1677 200.955L85.8459 201.002L88.2719 217.681L88.5937 217.634L86.1677 200.955Z" fill="#0C0C0C"/>
<path d="M24.2827 269.831L8.62595 265.474C15.8693 239.446 27.6286 196.639 28.3466 192.573C28.2867 192.958 28.2608 193.347 28.2692 193.736L44.5192 193.506C44.542 195.107 44.5556 196.074 34.2739 233.632C29.3373 251.665 24.3325 269.651 24.2827 269.831Z" fill="#068FFF"/>
<path d="M40.2477 209.151L36.9657 223.934L37.283 224.004L40.565 209.221L40.2477 209.151Z" fill="#0C0C0C"/>
<path d="M75.1313 238.887C75.1313 238.887 117.825 216.83 129.651 212.751C132.714 211.694 138.311 210.721 143.11 213.527C157.423 221.895 195.219 255.972 195.219 255.972L186.038 269.692L136.107 233.933C136.107 233.933 112.182 251.001 90.5843 258.508L68.7838 255.933L75.1313 238.887Z" fill="#262626"/>
<path d="M200.832 259.941C200.832 259.941 208.479 258.698 209.113 251.591C209.746 244.484 215.372 246.195 215.372 246.195L214.571 273.4L200.978 273.001L200.832 259.941Z" fill="#068FFF"/>
<path d="M61.5915 273.017C61.5915 273.017 59.3081 272.864 64.4927 273.035C83.8321 273.672 205.264 273.353 205.264 273.353L205.325 255.137L61.6328 244.942L61.5915 273.017Z" fill="#262626"/>
<path d="M113.246 248.705C113.239 248.706 113.232 248.706 113.226 248.705L99.0624 246.92C99.0412 246.918 99.0207 246.911 99.0022 246.9C98.9836 246.89 98.9673 246.876 98.9542 246.859C98.9411 246.842 98.9315 246.823 98.9258 246.802C98.9202 246.781 98.9187 246.76 98.9213 246.739C98.9237 246.717 98.9303 246.697 98.9408 246.678C98.9513 246.659 98.9654 246.643 98.9824 246.63C98.9993 246.617 99.0187 246.607 99.0395 246.602C99.0602 246.596 99.0818 246.595 99.103 246.598L113.266 248.383C113.309 248.386 113.35 248.405 113.378 248.438C113.407 248.47 113.421 248.513 113.419 248.556C113.416 248.599 113.396 248.639 113.364 248.668C113.332 248.696 113.289 248.711 113.246 248.708V248.705Z" fill="white"/>
<path d="M193.977 254.37H193.965L159.934 251.959C159.891 251.956 159.851 251.936 159.823 251.903C159.794 251.87 159.78 251.828 159.783 251.785C159.786 251.742 159.806 251.702 159.839 251.673C159.872 251.645 159.914 251.631 159.957 251.634L193.988 254.045C194.031 254.046 194.072 254.065 194.101 254.096C194.131 254.128 194.146 254.17 194.145 254.213C194.143 254.256 194.125 254.297 194.093 254.326C194.062 254.356 194.02 254.371 193.977 254.37Z" fill="white"/>
</svg>
