<svg width="408" height="293" viewBox="0 0 408 293" fill="none" xmlns="http://www.w3.org/2000/svg">
<path d="M165.657 16.5648H22.1646V160.058H165.657V16.5648Z" fill="#F4F4F4"/>
<path d="M22.1646 16.5648H20.5196V160.058H22.1646V16.5648Z" fill="#F4F4F4"/>
<path d="M22.1646 16.5648H20.5196V160.058H22.1646V16.5648Z" fill="#292A2E"/>
<path d="M56.926 115.443V77.9009H87.6787V99.7122H135.315V138.331H155.561V160.058H131.415H29.067V115.443H56.926Z" fill="#292A2E"/>
<path d="M83.7316 81.9767H61.3371V86.0531H83.7316V81.9767Z" fill="#FFFFFA"/>
<path d="M83.7316 90.4236H61.3371V94.5H83.7316V90.4236Z" fill="#FFFFFA"/>
<path d="M83.7316 98.8705H61.3371V102.947H83.7316V98.8705Z" fill="#FFFFFA"/>
<path d="M37.1661 119.4H33.0383V123.476H37.1661V119.4Z" fill="#FFFFFA"/>
<path d="M37.1661 127.847H33.0384V131.923H37.1661V127.847Z" fill="#FFFFFA"/>
<path d="M37.1661 136.294H33.0384V140.37H37.1661V136.294Z" fill="#FFFFFA"/>
<path d="M44.8018 119.4H40.674V123.476H44.8018V119.4Z" fill="#FFFFFA"/>
<path d="M44.8018 127.847H40.674V131.923H44.8018V127.847Z" fill="#FFFFFA"/>
<path d="M44.8018 136.294H40.674V140.37H44.8018V136.294Z" fill="#FFFFFA"/>
<path d="M52.2314 119.4H48.1037V123.476H52.2314V119.4Z" fill="#FFFFFA"/>
<path d="M52.2314 127.847H48.1037V131.923H52.2314V127.847Z" fill="#FFFFFA"/>
<path d="M52.2314 136.294H48.1037V140.37H52.2314V136.294Z" fill="#FFFFFA"/>
<path d="M22.1646 87.5061H51.0375V16.5648H53.4254V87.5061H131.415V16.5648H133.803V87.5061H165.657V89.894H133.803V160.058L131.415 160.058L131.415 89.894H53.4254V160.058H51.0375V89.894H22.1646V87.5061Z" fill="white"/>
<path d="M171.374 159.884H16.4483V164.656H171.374V159.884Z" fill="#F4F4F4"/>
<path d="M171.374 159.884H16.4483V164.656H171.374V159.884Z" fill="#292A2E"/>
<path d="M16.4483 159.884H14.2111V164.656H16.4483V159.884Z" fill="#292A2E"/>
<path d="M16.4483 159.884H14.2111V164.656H16.4483V159.884Z" fill="#292A2E"/>
<path d="M20.5196 22.6745H165.657V19.1265H20.5196V22.6745Z" fill="white"/>
<path d="M20.5196 29.3014H165.657V25.7534H20.5196V29.3014Z" fill="white"/>
<path d="M20.5196 35.9277H165.657V32.3797H20.5196V35.9277Z" fill="white"/>
<path d="M20.5196 42.5546H165.657V39.0066H20.5196V42.5546Z" fill="white"/>
<path d="M20.5196 49.1821H165.657V45.6341H20.5196V49.1821Z" fill="white"/>
<path d="M35.9349 53.1834H38.11V16.5642H35.9349V53.1834Z" fill="white"/>
<path d="M36.8381 58.4424C38.4884 58.4424 39.8261 57.1047 39.8261 55.4544C39.8261 53.8042 38.4884 52.4665 36.8381 52.4665C35.1879 52.4665 33.8501 53.8042 33.8501 55.4544C33.8501 57.1047 35.1879 58.4424 36.8381 58.4424Z" fill="white"/>
<path d="M350.326 15.7631H289.95V94.3492H350.326V15.7631Z" fill="#F4F4F4"/>
<path d="M350.326 94.3492L352.283 94.3492V15.7631L350.326 15.7631V94.3492Z" fill="#F4F4F4"/>
<path d="M350.326 94.3492L352.283 94.3492V15.7631L350.326 15.7631V94.3492Z" fill="#292A2E"/>
<path d="M339.327 30.0782H300.948V80.0336H339.327V30.0782Z" fill="#292A2E"/>
<path d="M339.327 30.0782H337.327V80.0336H339.327V30.0782Z" fill="#292A2E"/>
<path d="M399.703 113.675H350.326V163.506H399.703V113.675Z" fill="#F4F4F4"/>
<path d="M390.708 122.752H359.32V154.429H390.708V122.752Z" fill="#292A2E"/>
<path d="M399.703 163.506L401.661 163.506V113.674L399.703 113.675V163.506Z" fill="#F4F4F4"/>
<path d="M399.703 163.506L401.661 163.506V113.674L399.703 113.675V163.506Z" fill="#292A2E"/>
<path d="M390.708 122.752H388.708V154.429H390.708V122.752Z" fill="#292A2E"/>
<path d="M235.958 198.082C235.893 198.082 235.828 198.067 235.77 198.038L138.554 149.988C138.49 149.957 138.436 149.91 138.395 149.852C138.354 149.794 138.328 149.727 138.32 149.657C138.312 149.587 138.322 149.515 138.349 149.45C138.375 149.384 138.418 149.326 138.473 149.281L235.659 69.5415C235.734 69.4792 235.829 69.4452 235.927 69.4452C236.025 69.4452 236.12 69.4792 236.196 69.5415L333.443 149.281C333.498 149.326 333.54 149.384 333.567 149.45C333.593 149.515 333.603 149.587 333.595 149.657C333.587 149.727 333.561 149.794 333.521 149.852C333.48 149.91 333.426 149.957 333.362 149.988L236.145 198.041C236.087 198.069 236.023 198.083 235.958 198.082ZM139.517 149.52L235.958 197.189L332.399 149.52L235.927 70.4148L139.517 149.52Z" fill="#292A2E"/>
<path d="M340.717 0.529058L321.367 26.4625V247.139C321.367 249.225 320.538 251.225 319.064 252.7C317.589 254.175 315.588 255.003 313.503 255.003H158.351C157.319 255.003 156.296 254.8 155.342 254.405C154.388 254.01 153.521 253.43 152.791 252.7C152.06 251.97 151.481 251.103 151.086 250.149C150.691 249.194 150.488 248.172 150.488 247.139V21.7764C150.488 16.1414 152.726 10.7371 156.711 6.75246C160.695 2.76783 166.099 0.529208 171.734 0.529058H340.717Z" fill="white"/>
<path d="M313.503 255.424H158.351C156.155 255.421 154.049 254.547 152.495 252.994C150.942 251.441 150.067 249.336 150.064 247.139V21.7764C150.07 16.031 152.356 10.5228 156.418 6.46013C160.481 2.3975 165.989 0.112232 171.734 0.105658H340.717C340.795 0.105866 340.872 0.127889 340.939 0.16927C341.006 0.21065 341.06 0.269762 341.095 0.340012C341.13 0.410262 341.145 0.488889 341.138 0.567122C341.131 0.645356 341.103 0.720122 341.056 0.78308L321.79 26.603V247.139C321.787 249.336 320.912 251.441 319.359 252.994C317.805 254.547 315.699 255.421 313.503 255.424ZM171.734 0.952436C166.213 0.958711 160.92 3.15467 157.017 7.05857C153.113 10.9625 150.917 16.2555 150.91 21.7764V247.139C150.913 249.112 151.698 251.003 153.093 252.397C154.488 253.792 156.379 254.577 158.351 254.58H313.503C315.475 254.577 317.366 253.792 318.761 252.397C320.156 251.003 320.941 249.112 320.943 247.139V26.4625C320.943 26.3711 320.973 26.2822 321.028 26.209L339.872 0.952436H171.734Z" fill="#292A2E"/>
<path d="M289.761 28.6816H182.155C181.807 28.6816 181.525 28.9639 181.525 29.3122V30.343C181.525 30.6912 181.807 30.9735 182.155 30.9735H289.761C290.109 30.9735 290.391 30.6912 290.391 30.343V29.3122C290.391 28.9639 290.109 28.6816 289.761 28.6816Z" fill="#262626"/>
<path d="M321.367 19.8791C321.367 14.7471 323.406 9.82538 327.034 6.19654C330.663 2.56771 335.585 0.529058 340.717 0.529058C345.849 0.529058 350.771 2.56771 354.399 6.19654C358.028 9.82538 360.067 14.7471 360.067 19.8791V36.2157H321.367V19.8791Z" fill="white"/>
<path d="M360.066 36.6391H321.367C321.255 36.6391 321.147 36.5944 321.068 36.515C320.988 36.4356 320.944 36.3279 320.944 36.2157V19.879C320.93 17.2735 321.431 14.6909 322.418 12.2797C323.406 9.86851 324.86 7.67623 326.697 5.8289C328.535 3.98157 330.719 2.51561 333.125 1.51528C335.531 0.514961 338.111 0 340.717 0C343.322 0 345.902 0.514961 348.308 1.51528C350.714 2.51561 352.898 3.98157 354.736 5.8289C356.573 7.67623 358.028 9.86851 359.015 12.2797C360.002 14.6909 360.504 17.2735 360.49 19.879V36.2157C360.49 36.3279 360.445 36.4356 360.366 36.515C360.286 36.5944 360.179 36.6391 360.066 36.6391ZM321.792 35.7923H359.645V19.879C359.658 17.3849 359.179 14.9127 358.234 12.6045C357.289 10.2963 355.897 8.1976 354.138 6.42914C352.379 4.66068 350.288 3.2573 347.985 2.29967C345.682 1.34205 343.213 0.849065 340.718 0.849065C338.224 0.849065 335.755 1.34205 333.452 2.29967C331.149 3.2573 329.058 4.66068 327.299 6.42914C325.54 8.1976 324.148 10.2963 323.203 12.6045C322.258 14.9127 321.778 17.3849 321.792 19.879V35.7923Z" fill="#292A2E"/>
<path d="M306.982 76.7978H234.006C233.715 76.7978 233.48 77.0339 233.48 77.3245C233.48 77.615 233.715 77.8506 234.006 77.8506H306.982C307.272 77.8506 307.508 77.6145 307.508 77.3239C307.508 77.0333 307.272 76.7978 306.982 76.7978Z" fill="#262626"/>
<path d="M306.982 69.3224H234.006C233.715 69.3224 233.48 69.5586 233.48 69.8491C233.48 70.1397 233.715 70.3753 234.006 70.3753H306.982C307.272 70.3753 307.508 70.1391 307.508 69.8486C307.508 69.558 307.272 69.3224 306.982 69.3224Z" fill="#262626"/>
<path d="M306.982 61.8465H234.006C233.715 61.8465 233.48 62.0826 233.48 62.3732C233.48 62.6638 233.715 62.8993 234.006 62.8993H306.982C307.272 62.8993 307.508 62.6632 307.508 62.3726C307.508 62.0821 307.272 61.8465 306.982 61.8465Z" fill="#262626"/>
<path d="M306.982 54.3711H234.006C233.715 54.3711 233.48 54.6073 233.48 54.8978C233.48 55.1884 233.715 55.424 234.006 55.424H306.982C307.272 55.424 307.508 55.1878 307.508 54.8973C307.508 54.6067 307.272 54.3711 306.982 54.3711Z" fill="#262626"/>
<path d="M306.982 46.8625H234.006C233.715 46.8625 233.48 47.0986 233.48 47.3892C233.48 47.6798 233.715 47.9153 234.006 47.9153H306.982C307.272 47.9153 307.508 47.6792 307.508 47.3886C307.508 47.098 307.272 46.8625 306.982 46.8625Z" fill="#262626"/>
<path d="M276.81 84.2731H234.006C233.715 84.2731 233.48 84.5093 233.48 84.7998C233.48 85.0904 233.715 85.326 234.006 85.326H276.81C277.101 85.326 277.336 85.0898 277.336 84.7993C277.336 84.5087 277.101 84.2731 276.81 84.2731Z" fill="#262626"/>
<path d="M222.133 40.8543H166.135C165.181 40.8543 164.408 41.6274 164.408 42.5812V88.4833C164.408 89.437 165.181 90.2102 166.135 90.2102H222.133C223.087 90.2102 223.86 89.437 223.86 88.4833V42.5812C223.86 41.6274 223.087 40.8543 222.133 40.8543Z" fill="#0CBC8B"/>
<path d="M185.143 60.4448C187.519 60.4448 189.445 58.5189 189.445 56.1432C189.445 53.7674 187.519 51.8415 185.143 51.8415C182.767 51.8415 180.841 53.7674 180.841 56.1432C180.841 58.5189 182.767 60.4448 185.143 60.4448Z" fill="white"/>
<path d="M191.066 76.2558L203.537 62.3438C204.316 61.4756 205.405 60.9492 206.57 60.8788C207.734 60.8084 208.879 61.1997 209.756 61.9679L223.86 74.3162V90.2096H206.811" fill="white"/>
<path d="M206.811 90.2096L179.771 66.2458C178.972 65.5378 177.944 65.1422 176.876 65.1318C175.809 65.1214 174.773 65.497 173.96 66.1893L164.409 74.3184V90.2119" fill="white"/>
<path d="M306.932 126.189H164.985C164.694 126.189 164.459 126.425 164.459 126.716C164.459 127.006 164.694 127.242 164.985 127.242H306.932C307.222 127.242 307.458 127.006 307.458 126.715C307.458 126.425 307.222 126.189 306.932 126.189Z" fill="#262626"/>
<path d="M306.932 118.714H164.985C164.694 118.714 164.459 118.95 164.459 119.241C164.459 119.531 164.694 119.767 164.985 119.767H306.932C307.222 119.767 307.458 119.531 307.458 119.24C307.458 118.949 307.222 118.714 306.932 118.714Z" fill="#262626"/>
<path d="M306.932 111.238H164.985C164.694 111.238 164.459 111.474 164.459 111.765C164.459 112.055 164.694 112.291 164.985 112.291H306.932C307.222 112.291 307.458 112.055 307.458 111.764C307.458 111.473 307.222 111.238 306.932 111.238Z" fill="#262626"/>
<path d="M306.932 103.763H164.985C164.694 103.763 164.459 103.999 164.459 104.289C164.459 104.58 164.694 104.815 164.985 104.815H306.932C307.222 104.815 307.458 104.579 307.458 104.289C307.458 103.998 307.222 103.763 306.932 103.763Z" fill="#262626"/>
<path d="M207.789 133.665H164.985C164.694 133.665 164.459 133.901 164.459 134.192C164.459 134.482 164.694 134.718 164.985 134.718H207.789C208.08 134.718 208.315 134.482 208.315 134.191C208.315 133.901 208.08 133.665 207.789 133.665Z" fill="#262626"/>
<path d="M306.932 169.299H164.985C164.694 169.299 164.459 169.535 164.459 169.825C164.459 170.116 164.694 170.352 164.985 170.352H306.932C307.222 170.352 307.458 170.115 307.458 169.825C307.458 169.534 307.222 169.299 306.932 169.299Z" fill="#262626"/>
<path d="M306.932 161.823H164.985C164.694 161.823 164.459 162.059 164.459 162.35C164.459 162.641 164.694 162.876 164.985 162.876H306.932C307.222 162.876 307.458 162.64 307.458 162.349C307.458 162.059 307.222 161.823 306.932 161.823Z" fill="#262626"/>
<path d="M306.932 154.347H164.985C164.694 154.347 164.459 154.584 164.459 154.874C164.459 155.165 164.694 155.4 164.985 155.4H306.932C307.222 155.4 307.458 155.164 307.458 154.874C307.458 154.583 307.222 154.347 306.932 154.347Z" fill="#262626"/>
<path d="M306.932 146.872H164.985C164.694 146.872 164.459 147.108 164.459 147.399C164.459 147.689 164.694 147.925 164.985 147.925H306.932C307.222 147.925 307.458 147.689 307.458 147.398C307.458 147.108 307.222 146.872 306.932 146.872Z" fill="#262626"/>
<path d="M207.789 176.774H164.985C164.694 176.774 164.459 177.01 164.459 177.301C164.459 177.591 164.694 177.827 164.985 177.827H207.789C208.08 177.827 208.315 177.591 208.315 177.3C208.315 177.01 208.08 176.774 207.789 176.774Z" fill="#262626"/>
<path d="M323.682 262.024H148.233C145.716 262.024 143.302 261.024 141.521 259.244C139.741 257.464 138.741 255.049 138.741 252.532V149.609L235.958 197.661L333.174 149.609V252.532C333.174 253.778 332.929 255.013 332.452 256.164C331.975 257.316 331.276 258.363 330.394 259.244C329.513 260.125 328.466 260.825 327.315 261.302C326.163 261.779 324.929 262.024 323.682 262.024Z" fill="#367CFF"/>
<path d="M323.682 262.024H148.233C145.716 262.024 143.302 261.024 141.521 259.244C139.741 257.464 138.741 255.049 138.741 252.532V149.609L235.958 197.661L333.174 149.609V252.532C333.174 253.778 332.929 255.013 332.452 256.164C331.975 257.316 331.276 258.363 330.394 259.244C329.513 260.125 328.466 260.825 327.315 261.302C326.163 261.779 324.929 262.024 323.682 262.024Z" fill="white"/>
<path d="M323.682 262.448H148.233C145.605 262.445 143.084 261.399 141.225 259.54C139.366 257.681 138.321 255.161 138.318 252.532V149.609C138.318 149.537 138.336 149.466 138.371 149.403C138.406 149.34 138.457 149.287 138.518 149.249C138.579 149.211 138.649 149.189 138.721 149.186C138.793 149.183 138.865 149.198 138.929 149.23L235.958 197.189L332.987 149.23C333.051 149.197 333.123 149.182 333.195 149.186C333.267 149.189 333.337 149.211 333.398 149.249C333.459 149.287 333.51 149.34 333.545 149.403C333.58 149.466 333.598 149.537 333.598 149.609V252.532C333.595 255.161 332.549 257.681 330.69 259.54C328.831 261.399 326.311 262.445 323.682 262.448ZM139.165 150.291V252.532C139.167 254.936 140.124 257.241 141.824 258.942C143.524 260.642 145.829 261.598 148.233 261.601H323.682C326.086 261.598 328.392 260.642 330.092 258.942C331.792 257.242 332.748 254.936 332.751 252.532V150.291L236.145 198.041C236.087 198.069 236.023 198.084 235.958 198.084C235.893 198.084 235.828 198.069 235.77 198.041L139.165 150.291Z" fill="#292A2E"/>
<path d="M377.535 285.455C377.603 285.455 377.671 285.436 377.729 285.4C377.787 285.363 377.834 285.311 377.864 285.25L387.518 265.445C387.557 265.358 387.561 265.26 387.528 265.17C387.496 265.08 387.43 265.007 387.345 264.965C387.259 264.923 387.16 264.917 387.07 264.946C386.979 264.976 386.904 265.04 386.86 265.124L377.206 284.929C377.179 284.984 377.167 285.046 377.17 285.108C377.173 285.17 377.192 285.23 377.225 285.283C377.258 285.335 377.303 285.379 377.358 285.409C377.412 285.439 377.473 285.455 377.535 285.455Z" fill="#292A2E"/>
<path d="M361.213 284.306C361.294 284.306 361.372 284.279 361.436 284.229C361.5 284.18 361.546 284.111 361.567 284.033L372.74 241.375C372.752 241.328 372.755 241.28 372.748 241.232C372.742 241.185 372.726 241.139 372.702 241.097C372.678 241.056 372.645 241.019 372.607 240.99C372.569 240.961 372.525 240.94 372.479 240.928C372.432 240.916 372.384 240.913 372.336 240.919C372.289 240.926 372.243 240.942 372.201 240.966C372.16 240.99 372.123 241.022 372.094 241.061C372.065 241.099 372.044 241.143 372.032 241.189L360.858 283.847C360.834 283.941 360.848 284.041 360.897 284.125C360.946 284.208 361.026 284.269 361.12 284.294C361.15 284.302 361.181 284.306 361.213 284.306Z" fill="#292A2E"/>
<path d="M339.898 286.194C339.958 286.194 340.018 286.179 340.071 286.151C340.125 286.123 340.17 286.081 340.203 286.031C340.237 285.981 340.258 285.923 340.263 285.863C340.269 285.803 340.26 285.742 340.237 285.686L328.685 258.486C328.647 258.397 328.576 258.326 328.486 258.289C328.396 258.253 328.295 258.254 328.205 258.292C328.116 258.33 328.045 258.401 328.009 258.491C327.973 258.581 327.973 258.682 328.011 258.772L339.561 285.973C339.59 286.039 339.637 286.095 339.697 286.134C339.756 286.173 339.826 286.194 339.898 286.194Z" fill="#292A2E"/>
<path d="M360.799 292.496C360.829 292.496 360.859 292.493 360.888 292.486C360.982 292.462 361.063 292.402 361.113 292.319C361.163 292.235 361.178 292.136 361.154 292.041L347.733 238.35C347.721 238.303 347.7 238.26 347.672 238.221C347.643 238.182 347.607 238.15 347.566 238.125C347.525 238.1 347.479 238.084 347.431 238.077C347.384 238.07 347.335 238.072 347.289 238.084C347.242 238.096 347.198 238.116 347.16 238.145C347.121 238.174 347.088 238.21 347.064 238.251C347.039 238.292 347.023 238.338 347.016 238.385C347.009 238.433 347.011 238.481 347.023 238.528L360.443 292.219C360.463 292.298 360.509 292.369 360.573 292.419C360.638 292.469 360.717 292.496 360.799 292.496Z" fill="#292A2E"/>
<path d="M356.04 249.353C359.681 241.698 357.305 232.958 350.732 229.831C344.16 226.705 335.88 230.376 332.238 238.03C328.597 245.685 330.973 254.425 337.546 257.552C344.118 260.679 352.399 257.008 356.04 249.353Z" fill="#0CBC8B"/>
<path d="M356.04 249.353C359.681 241.698 357.305 232.958 350.732 229.831C344.16 226.705 335.88 230.376 332.238 238.03C328.597 245.685 330.973 254.425 337.546 257.552C344.118 260.679 352.399 257.008 356.04 249.353Z" fill="white"/>
<path d="M333.451 267.026C335.351 262.31 333.687 257.196 329.735 255.605C325.783 254.013 321.04 256.546 319.14 261.262C317.241 265.978 318.905 271.091 322.857 272.683C326.809 274.274 331.552 271.742 333.451 267.026Z" fill="#0CBC8B"/>
<path d="M380.018 260.974C385.889 259.194 388.876 251.91 386.691 244.705C384.506 237.5 377.975 233.103 372.105 234.884C366.234 236.664 363.247 243.948 365.432 251.153C367.617 258.358 374.148 262.755 380.018 260.974Z" fill="#0CBC8B"/>
<path d="M389.961 276.306C393.237 275.757 395.267 271.575 394.496 266.964C393.724 262.353 390.443 259.059 387.167 259.607C383.891 260.155 381.86 264.338 382.632 268.949C383.404 273.56 386.685 276.854 389.961 276.306Z" fill="#0CBC8B"/>
<path d="M329.126 293H386.137V278.793H329.126V293Z" fill="#292A2E"/>
<path d="M329.126 293H386.137V278.793H329.126V293Z" fill="white"/>
<path d="M356.149 275.223C358.466 269.47 356.418 263.225 351.575 261.275C346.731 259.324 340.927 262.406 338.61 268.159C336.293 273.913 338.341 280.158 343.184 282.108C348.027 284.059 353.832 280.976 356.149 275.223Z" fill="#0CBC8B"/>
<path d="M368.801 280.682C373.625 280.682 377.535 276.771 377.535 271.947C377.535 267.124 373.625 263.213 368.801 263.213C363.977 263.213 360.067 267.124 360.067 271.947C360.067 276.771 363.977 280.682 368.801 280.682Z" fill="#0CBC8B"/>
<path d="M333.451 267.026C335.351 262.31 333.687 257.196 329.735 255.605C325.783 254.013 321.04 256.546 319.14 261.262C317.241 265.978 318.905 271.091 322.857 272.683C326.809 274.274 331.552 271.742 333.451 267.026Z" fill="white"/>
<path d="M380.018 260.974C385.889 259.194 388.876 251.91 386.691 244.705C384.506 237.5 377.975 233.103 372.105 234.884C366.234 236.664 363.247 243.948 365.432 251.153C367.617 258.358 374.148 262.755 380.018 260.974Z" fill="white"/>
<path d="M389.961 276.306C393.237 275.757 395.267 271.575 394.496 266.964C393.724 262.353 390.443 259.059 387.167 259.607C383.891 260.155 381.86 264.338 382.632 268.949C383.404 273.56 386.685 276.854 389.961 276.306Z" fill="white"/>
<path d="M356.149 275.223C358.466 269.47 356.418 263.225 351.575 261.275C346.731 259.324 340.927 262.406 338.61 268.159C336.293 273.913 338.341 280.158 343.184 282.108C348.027 284.059 353.832 280.976 356.149 275.223Z" fill="white"/>
<path d="M368.801 280.682C373.625 280.682 377.535 276.771 377.535 271.947C377.535 267.124 373.625 263.213 368.801 263.213C363.977 263.213 360.067 267.124 360.067 271.947C360.067 276.771 363.977 280.682 368.801 280.682Z" fill="white"/>
<path d="M340.745 264.595C347.374 266.447 350.863 261.029 350.863 261.029L350.859 261.022C347.325 259.967 343.404 261.45 340.745 264.595Z" fill="#292A2E"/>
<path d="M382.621 266.813C385.885 265.563 388.589 263.18 390.239 260.099C389.345 259.622 388.319 259.448 387.318 259.605C384.557 260.067 382.683 263.108 382.621 266.813Z" fill="#292A2E"/>
<path d="M367.243 263.354C369.785 265.644 372.962 267.111 376.354 267.56C375.451 266.008 374.092 264.772 372.462 264.019C370.832 263.267 369.009 263.034 367.243 263.354Z" fill="#292A2E"/>
<path d="M407.135 292.869H15.3305C15.1808 292.869 15.0372 292.81 14.9314 292.704C14.8255 292.598 14.766 292.454 14.766 292.304C14.766 292.155 14.8255 292.011 14.9314 291.905C15.0372 291.799 15.1808 291.74 15.3305 291.74H407.135C407.285 291.74 407.429 291.799 407.535 291.905C407.64 292.011 407.7 292.155 407.7 292.304C407.7 292.454 407.64 292.598 407.535 292.704C407.429 292.81 407.285 292.869 407.135 292.869Z" fill="#292A2E"/>
<path d="M224.454 113.534L217.278 128.026L217.396 125.832C217.42 125.123 217.174 124.432 216.707 123.897C216.241 123.363 215.589 123.025 214.883 122.953C214.518 122.929 214.152 122.979 213.806 123.101C213.461 123.222 213.144 123.413 212.875 123.662C212.606 123.91 212.39 124.21 212.241 124.545C212.092 124.879 212.013 125.241 212.008 125.607L211.556 152.755L220.253 153.119C222.955 153.232 225.628 152.536 227.931 151.12C230.235 149.704 232.063 147.632 233.181 145.17L238.225 134.011C238.498 133.436 238.564 132.784 238.412 132.166C238.26 131.548 237.899 131.001 237.391 130.618C236.924 130.283 236.363 130.105 235.788 130.111C235.214 130.117 234.656 130.307 234.197 130.652C234.175 130.614 234.143 130.582 234.105 130.56C234.069 130.541 234.028 130.531 233.987 130.532C233.946 130.533 233.905 130.544 233.869 130.564L234.804 128.508C235.11 127.868 235.162 127.136 234.949 126.46C234.736 125.783 234.275 125.213 233.658 124.864C233.095 124.571 232.447 124.486 231.829 124.624C231.21 124.762 230.659 125.113 230.274 125.617C230.263 125.59 230.248 125.566 230.229 125.545L230.613 124.698C230.886 124.123 230.953 123.471 230.801 122.853C230.649 122.235 230.288 121.689 229.779 121.306C229.213 120.898 228.512 120.726 227.821 120.824C227.131 120.923 226.505 121.285 226.076 121.835C226.059 121.828 226.041 121.823 226.022 121.82L229.01 115.785C229.31 115.181 229.357 114.482 229.141 113.843C228.926 113.204 228.465 112.677 227.861 112.378C227.257 112.078 226.558 112.031 225.919 112.247C225.28 112.462 224.753 112.923 224.454 113.527V113.534Z" fill="#E98862"/>
<path d="M226.238 122.104C226.233 122.134 226.225 122.162 226.212 122.188L223.242 128.017C223.227 128.046 223.206 128.073 223.181 128.094C223.155 128.116 223.126 128.132 223.094 128.143C223.063 128.153 223.029 128.157 222.996 128.154C222.963 128.152 222.931 128.143 222.901 128.128C222.871 128.112 222.845 128.092 222.823 128.066C222.802 128.041 222.785 128.012 222.775 127.98C222.765 127.949 222.761 127.915 222.763 127.882C222.766 127.849 222.775 127.816 222.79 127.787L225.76 121.958C225.787 121.905 225.832 121.864 225.887 121.841C225.942 121.818 226.003 121.814 226.06 121.832C226.116 121.849 226.165 121.886 226.198 121.936C226.23 121.986 226.245 122.045 226.238 122.104Z" fill="#0A0A0A"/>
<path d="M230.294 125.735C230.29 125.764 230.282 125.791 230.269 125.817L227.97 130.416C227.957 130.448 227.937 130.477 227.912 130.5C227.887 130.524 227.857 130.542 227.825 130.554C227.792 130.566 227.758 130.571 227.723 130.569C227.689 130.567 227.655 130.558 227.624 130.543C227.594 130.528 227.566 130.506 227.544 130.48C227.522 130.453 227.505 130.423 227.495 130.39C227.485 130.357 227.482 130.322 227.486 130.288C227.49 130.253 227.501 130.22 227.518 130.191L229.817 125.591C229.844 125.538 229.888 125.495 229.943 125.472C229.998 125.448 230.06 125.444 230.117 125.461C230.174 125.479 230.223 125.516 230.256 125.566C230.289 125.616 230.302 125.676 230.295 125.735L230.294 125.735Z" fill="#0A0A0A"/>
<path d="M234.237 130.818C234.233 130.848 234.224 130.878 234.21 130.905L233.073 133.05C233.058 133.081 233.038 133.109 233.012 133.131C232.986 133.153 232.956 133.171 232.924 133.181C232.892 133.192 232.857 133.196 232.823 133.193C232.79 133.19 232.756 133.18 232.726 133.164C232.696 133.148 232.67 133.126 232.648 133.1C232.627 133.074 232.611 133.043 232.601 133.01C232.592 132.977 232.589 132.943 232.593 132.909C232.598 132.875 232.609 132.843 232.626 132.813L233.762 130.668C233.79 130.616 233.835 130.575 233.89 130.553C233.945 130.53 234.005 130.528 234.062 130.546C234.118 130.563 234.167 130.6 234.199 130.65C234.231 130.7 234.244 130.759 234.237 130.818Z" fill="#0A0A0A"/>
<path d="M207.224 134.717L185.948 195.742L151.371 150.524L119.017 177.556L178.79 241.388C180.916 243.816 183.647 245.639 186.706 246.669C189.764 247.7 193.041 247.902 196.203 247.255C199.366 246.608 202.3 245.135 204.708 242.986C207.116 240.837 208.912 238.089 209.913 235.021L239.048 145.161L207.224 134.717Z" fill="#068FFF"/>
<path d="M18.4043 265.724C15.439 265.724 12.5174 265.007 9.88855 263.635C7.25965 262.263 5.00123 260.276 3.30558 257.844C1.60992 255.411 0.527248 252.604 0.14974 249.663C-0.227768 246.722 0.111069 243.733 1.1374 240.951C2.17894 238.128 26.696 171.636 31.3442 159.656L65.663 172.97C63.0499 179.706 53.5823 205.239 45.9726 225.809L58.6111 224.436L62.5898 261.031L20.396 265.616C19.7345 265.688 19.0697 265.724 18.4043 265.724Z" fill="#068FFF"/>
<path d="M40.4612 263.844L34.8488 291.78H143.858L137.58 263.313L40.4612 263.844Z" fill="#262626"/>
<path d="M64.031 138.999C54.9231 139.676 45.6362 142.634 38.797 148.687C28.4827 157.818 29.4006 163.524 34.5496 188.808C38.9799 210.564 37.222 220.07 40.1857 260.215C40.2732 261.4 40.4601 263.844 40.4601 263.844L137.888 263.682C137.888 263.682 147.016 210.421 152.058 185.854C155.891 167.178 165.958 144.507 123.51 139.937C123.398 139.925 89.3536 137.119 64.031 138.999Z" fill="#068FFF"/>
<path d="M123.51 139.937C123.397 139.922 120.304 151.56 96.1713 149.749C79.4616 148.497 75.3902 137.125 75.0075 137.125C76.8089 136.742 79.7337 136.344 80.5341 135.918C83.1648 134.506 85.0813 132.783 86.0455 129.09C86.8003 126.202 87.1847 115.085 87.1847 109.507L112.893 115.283C112.535 121.576 110.027 136.163 118.818 138.745C120.28 139.173 121.856 139.566 123.51 139.937Z" fill="#E98862"/>
<path d="M112.002 127.656C101.867 128.456 88.8472 124.176 86.3724 110.654L84.1408 98.4533C81.6683 84.9314 86.7653 72.6706 99.4958 70.3403C112.227 68.0116 123.749 77.233 126.222 90.755L127.21 96.1568C128.163 101.347 130.087 126.229 112.002 127.656Z" fill="#E98862"/>
<path d="M121.401 115.241C119.582 106.1 118.748 99.9989 118.845 93.5674C121.407 89.0727 120.734 83.9141 120.151 81.6848C122.662 83.0549 123.712 83.2045 126.078 83.2045C126.078 83.2045 121.841 66.1972 107.437 61.6207C104.789 60.5899 98.0263 59.2881 89.0471 60.5193C81.4097 61.5671 62.5841 67.2772 59.8948 88.4715V88.4833C59.8056 89.1861 57.998 108.714 54.3947 118.083C49.55 130.678 42.7486 134.592 42.9214 149.123C43.1432 167.815 77.5072 170.304 98.2341 168.905C118.961 167.507 130.531 160.691 130.681 147.22C130.846 132.127 125.042 133.529 121.401 115.241Z" fill="#0A0A0A"/>
<path d="M121.407 107.579C117.538 108.286 113.645 104.721 112.939 100.851C112.234 96.9822 114.978 94.2753 118.847 93.5691L121.407 107.579Z" fill="#E98862"/>
<path d="M147.55 210.426C147.534 210.426 147.519 210.425 147.504 210.422C147.472 210.416 147.442 210.404 147.415 210.386C147.388 210.368 147.365 210.346 147.347 210.319C147.329 210.293 147.316 210.263 147.309 210.231C147.303 210.2 147.302 210.167 147.308 210.135L151.394 184.544C151.408 184.482 151.446 184.429 151.499 184.394C151.552 184.36 151.616 184.347 151.679 184.359C151.741 184.371 151.796 184.406 151.833 184.457C151.87 184.509 151.885 184.573 151.876 184.636L147.792 210.226C147.782 210.283 147.752 210.334 147.707 210.37C147.663 210.407 147.607 210.427 147.55 210.426Z" fill="#0C0C0C"/>
<path d="M40.4612 264.09C40.3978 264.09 40.3369 264.065 40.2912 264.021C40.2456 263.977 40.2187 263.917 40.2162 263.854L37.1633 184.599C37.1607 184.534 37.184 184.471 37.2282 184.423C37.2723 184.375 37.3337 184.347 37.3987 184.344C37.4629 184.345 37.5247 184.369 37.5718 184.413C37.6189 184.457 37.648 184.516 37.6533 184.58L40.7068 263.835C40.7092 263.9 40.6858 263.963 40.6415 264.011C40.5973 264.059 40.5359 264.087 40.4708 264.09H40.4612Z" fill="#0C0C0C"/>
</svg>
